<?xml version="1.0" encoding="UTF-8" standalone="no"?>
<!-- Created with Inkscape (http://www.inkscape.org/) -->

<svg
   xmlns:dc="http://purl.org/dc/elements/1.1/"
   xmlns:cc="http://creativecommons.org/ns#"
   xmlns:rdf="http://www.w3.org/1999/02/22-rdf-syntax-ns#"
   xmlns:svg="http://www.w3.org/2000/svg"
   xmlns="http://www.w3.org/2000/svg"
   xmlns:sodipodi="http://sodipodi.sourceforge.net/DTD/sodipodi-0.dtd"
   xmlns:inkscape="http://www.inkscape.org/namespaces/inkscape"
   width="499.99997"
   height="845.97418"
   id="svg3068"
   version="1.1"
   inkscape:version="0.48.2 r9819"
   sodipodi:docname="alpaga.svg"
   inkscape:export-filename="D:\WIP\GGJ2014\lui\Assets\Sprites\Pickables\alpaga.png"
   inkscape:export-xdpi="90"
   inkscape:export-ydpi="90">
  <defs
     id="defs3070" />
  <sodipodi:namedview
     id="base"
     pagecolor="#ffffff"
     bordercolor="#666666"
     borderopacity="1.0"
     inkscape:pageopacity="0.0"
     inkscape:pageshadow="2"
     inkscape:zoom="0.35"
     inkscape:cx="927.22761"
     inkscape:cy="-88.175841"
     inkscape:document-units="px"
     inkscape:current-layer="layer1"
     showgrid="false"
     inkscape:window-width="1920"
     inkscape:window-height="1028"
     inkscape:window-x="-8"
     inkscape:window-y="-8"
     inkscape:window-maximized="1"
     fit-margin-top="0"
     fit-margin-left="0"
     fit-margin-right="0"
     fit-margin-bottom="0" />
  <metadata
     id="metadata3073">
    <rdf:RDF>
      <cc:Work
         rdf:about="">
        <dc:format>image/svg+xml</dc:format>
        <dc:type
           rdf:resource="http://purl.org/dc/dcmitype/StillImage" />
        <dc:title></dc:title>
      </cc:Work>
    </rdf:RDF>
  </metadata>
  <g
     inkscape:label="Layer 1"
     inkscape:groupmode="layer"
     id="layer1"
     transform="translate(-367.77239,730.35926)">
    <path
       style="fill:#fff1b7;fill-opacity:1;stroke:none"
       d="m 461.68086,-730.35926 25.9099,64.77479 24.05925,0 -18.50708,-49.96916 z"
       id="path2999-2"
       inkscape:connector-curvature="0"
       inkscape:export-filename="C:\Users\guillaume\Desktop\ggj2014\lui\Assets\Sprites\alpaga.png"
       inkscape:export-xdpi="90"
       inkscape:export-ydpi="90" />
    <path
       style="fill:#fff1b7;fill-opacity:1;stroke:none"
       d="m 488.51619,-729.4339 25.9099,64.77479 24.05925,0 -18.50708,-49.96915 z"
       id="path2999-1-17"
       inkscape:connector-curvature="0"
       inkscape:export-filename="C:\Users\guillaume\Desktop\ggj2014\lui\Assets\Sprites\alpaga.png"
       inkscape:export-xdpi="90"
       inkscape:export-ydpi="90" />
    <path
       sodipodi:type="spiral"
       style="fill:none;stroke:none"
       id="path3905-4"
       sodipodi:cx="361.78571"
       sodipodi:cy="532.36218"
       sodipodi:expansion="1"
       sodipodi:revolution="3"
       sodipodi:radius="5.3571429"
       sodipodi:argument="-18.206055"
       sodipodi:t0="0"
       d="m 361.78571,532.36218 c 0.21487,0.16116 -0.11123,0.36917 -0.26786,0.35715 -0.42446,-0.0326 -0.56588,-0.5501 -0.44643,-0.89286 0.21367,-0.61313 0.97077,-0.78954 1.51786,-0.53572 0.80286,0.3725 1.0188,1.3968 0.625,2.14286 -0.52488,0.99438 -1.82467,1.2504 -2.76786,0.71429 -1.18691,-0.67464 -1.48318,-2.2534 -0.80357,-3.39286 0.8231,-1.38004 2.68262,-1.71666 4.01786,-0.89286 1.57352,0.97082 1.95056,3.11215 0.98214,4.64286 -1.11808,1.76726 -3.54188,2.18476 -5.26786,1.07143 -1.96117,-1.26504 -2.41916,-3.97175 -1.16071,-5.89286 1.41178,-2.15519 4.40172,-2.6537 6.51785,-1.25 2.34931,1.55838 2.88836,4.83178 1.33929,7.14286"
       transform="matrix(7.3284346,0,0,7.3284346,-1821.3823,-4156.7876)"
       inkscape:export-filename="C:\Users\guillaume\Desktop\ggj2014\lui\Assets\Sprites\alpaga.png"
       inkscape:export-xdpi="90"
       inkscape:export-ydpi="90" />
    <path
       style="fill:#fff1b7;fill-opacity:1;stroke:none"
       d="m 463.36486,-676.8271 -22.20853,54.08773 -73.38394,17.87208 0.31732,58.42411 114.04503,20.30335 -21.3972,190.43478 35.03974,238.737897 3.9117,211.311893 115.16114,0 -14.17062,-209.274813 146.56869,5.23456 -18.7701,205.310413 115.1611,0 19.9858,-329.56168 -64.7204,-83.43591 -197.69899,-9.14457 -61.49047,-369.66476 z"
       id="path2997-8"
       inkscape:connector-curvature="0"
       sodipodi:nodetypes="cccccccccccccccccc"
       inkscape:export-filename="C:\Users\guillaume\Desktop\ggj2014\lui\Assets\Sprites\alpaga.png"
       inkscape:export-xdpi="90"
       inkscape:export-ydpi="90" />
    <path
       sodipodi:type="arc"
       style="fill:#000000;fill-opacity:1;stroke:none"
       id="path3787-2"
       sodipodi:cx="263.77609"
       sodipodi:cy="483.26749"
       sodipodi:rx="2.1465743"
       sodipodi:ry="2.1465743"
       d="m 265.92267,483.26749 c 0,1.18552 -0.96106,2.14657 -2.14658,2.14657 -1.18552,0 -2.14657,-0.96105 -2.14657,-2.14657 0,-1.18552 0.96105,-2.14658 2.14657,-2.14658 1.18552,0 2.14658,0.96106 2.14658,2.14658 z"
       transform="matrix(7.3284346,0,0,7.3284346,-1448.2511,-4167.3882)"
       inkscape:export-xdpi="90"
       inkscape:export-ydpi="90"
       inkscape:export-filename="C:\Users\guillaume\Desktop\ggj2014\lui\Assets\Sprites\alpaga.png" />
  </g>
</svg>
