<?xml version="1.0" encoding="UTF-8" standalone="no"?>
<!-- Created with Inkscape (http://www.inkscape.org/) -->

<svg
   xmlns:dc="http://purl.org/dc/elements/1.1/"
   xmlns:cc="http://creativecommons.org/ns#"
   xmlns:rdf="http://www.w3.org/1999/02/22-rdf-syntax-ns#"
   xmlns:svg="http://www.w3.org/2000/svg"
   xmlns="http://www.w3.org/2000/svg"
   xmlns:sodipodi="http://sodipodi.sourceforge.net/DTD/sodipodi-0.dtd"
   xmlns:inkscape="http://www.inkscape.org/namespaces/inkscape"
   width="744.09448819"
   height="1052.3622047"
   id="svg4109"
   version="1.1"
   inkscape:version="0.48.2 r9819"
   sodipodi:docname="New document 13">
  <defs
     id="defs4111" />
  <sodipodi:namedview
     id="base"
     pagecolor="#ffffff"
     bordercolor="#666666"
     borderopacity="1.0"
     inkscape:pageopacity="0.0"
     inkscape:pageshadow="2"
     inkscape:zoom="0.35"
     inkscape:cx="375"
     inkscape:cy="520"
     inkscape:document-units="px"
     inkscape:current-layer="layer1"
     showgrid="false"
     inkscape:window-width="469"
     inkscape:window-height="403"
     inkscape:window-x="175"
     inkscape:window-y="175"
     inkscape:window-maximized="0" />
  <metadata
     id="metadata4114">
    <rdf:RDF>
      <cc:Work
         rdf:about="">
        <dc:format>image/svg+xml</dc:format>
        <dc:type
           rdf:resource="http://purl.org/dc/dcmitype/StillImage" />
        <dc:title></dc:title>
      </cc:Work>
    </rdf:RDF>
  </metadata>
  <g
     inkscape:label="Layer 1"
     inkscape:groupmode="layer"
     id="layer1">
    <path
       style="fill:#ffffff;fill-opacity:1;stroke:none"
       d="m 224.99488,530.39054 -3.59308,16.08553 -0.32664,8.80874 0.65329,5.74482 2.93978,4.59587 2.93978,4.21288 0.97993,5.36184 -0.65328,9.19173 -1.30657,4.21288 -1.63321,-2.29794 1.63321,-7.27678 -0.97993,-7.27679 -1.63321,-3.82988 -3.59307,-4.21288 -2.2865,-7.65978 0.97992,-11.10667 1.63322,-8.04277 1.30657,-4.21287 z"
       id="path4014"
       inkscape:connector-curvature="0" />
    <path
       sodipodi:type="arc"
       style="fill:#5fd38d;fill-opacity:1;stroke:none"
       id="path4012"
       sodipodi:cx="-149.28572"
       sodipodi:cy="446.59448"
       sodipodi:rx="20.714285"
       sodipodi:ry="35.357143"
       d="m -128.57144,446.59448 a 20.714285,35.357143 0 1 1 -41.42857,0 20.714285,35.357143 0 1 1 41.42857,0 z"
       transform="translate(373.84966,53.438908)" />
    <path
       style="fill:#ffffff;fill-opacity:1;stroke:none"
       d="m 525.867,534.09188 -3.59308,16.08553 -0.32664,8.80874 0.65329,5.74482 2.93978,4.59587 2.93978,4.21288 0.97993,5.36184 -0.65328,9.19173 -1.30657,4.21288 -1.63321,-2.29794 1.63321,-7.27678 -0.97993,-7.27679 -1.63321,-3.82988 -3.59307,-4.21288 -2.2865,-7.65978 0.97992,-11.10667 1.63322,-8.04277 1.30657,-4.21287 z"
       id="path4014-2"
       inkscape:connector-curvature="0" />
    <path
       sodipodi:type="arc"
       style="fill:#5599ff;fill-opacity:1;stroke:none"
       id="path4012-7"
       sodipodi:cx="-149.28572"
       sodipodi:cy="446.59448"
       sodipodi:rx="20.714285"
       sodipodi:ry="35.357143"
       d="m -128.57144,446.59448 a 20.714285,35.357143 0 1 1 -41.42857,0 20.714285,35.357143 0 1 1 41.42857,0 z"
       transform="translate(674.72178,57.140248)" />
    <path
       style="fill:#ffffff;fill-opacity:1;stroke:none"
       d="m 284.94561,544.69848 -3.59308,16.08553 -0.32664,8.80874 0.65329,5.74482 2.93978,4.59587 2.93978,4.21288 0.97993,5.36184 -0.65328,9.19173 -1.30657,4.21288 -1.63321,-2.29794 1.63321,-7.27678 -0.97993,-7.27679 -1.63321,-3.82988 -3.59307,-4.21288 -2.2865,-7.65978 0.97992,-11.10667 1.63322,-8.04277 1.30657,-4.21287 z"
       id="path4014-9"
       inkscape:connector-curvature="0" />
    <path
       sodipodi:type="arc"
       style="fill:#a02c2c;fill-opacity:1;stroke:none"
       id="path4012-5"
       sodipodi:cx="-149.28572"
       sodipodi:cy="446.59448"
       sodipodi:rx="20.714285"
       sodipodi:ry="35.357143"
       d="m -128.57144,446.59448 a 20.714285,35.357143 0 1 1 -41.42857,0 20.714285,35.357143 0 1 1 41.42857,0 z"
       transform="translate(433.80039,67.746848)" />
    <path
       style="fill:#ffffff;fill-opacity:1;stroke:none"
       d="m 475.35937,527.52589 -3.59308,16.08553 -0.32664,8.80874 0.65329,5.74482 2.93978,4.59587 2.93978,4.21288 0.97993,5.36184 -0.65328,9.19173 -1.30657,4.21288 -1.63321,-2.29794 1.63321,-7.27678 -0.97993,-7.27679 -1.63321,-3.82988 -3.59307,-4.21288 -2.2865,-7.65978 0.97992,-11.10667 1.63322,-8.04277 1.30657,-4.21287 z"
       id="path4014-4"
       inkscape:connector-curvature="0" />
    <path
       sodipodi:type="arc"
       style="fill:#ff5599;fill-opacity:1;stroke:none"
       id="path4012-3"
       sodipodi:cx="-149.28572"
       sodipodi:cy="446.59448"
       sodipodi:rx="20.714285"
       sodipodi:ry="35.357143"
       d="m -128.57144,446.59448 a 20.714285,35.357143 0 1 1 -41.42857,0 20.714285,35.357143 0 1 1 41.42857,0 z"
       transform="translate(624.21415,50.574258)" />
  </g>
</svg>
