<?xml version="1.0" encoding="UTF-8" standalone="no"?>
<!-- Created with Inkscape (http://www.inkscape.org/) -->

<svg
   xmlns:dc="http://purl.org/dc/elements/1.1/"
   xmlns:cc="http://creativecommons.org/ns#"
   xmlns:rdf="http://www.w3.org/1999/02/22-rdf-syntax-ns#"
   xmlns:svg="http://www.w3.org/2000/svg"
   xmlns="http://www.w3.org/2000/svg"
   xmlns:sodipodi="http://sodipodi.sourceforge.net/DTD/sodipodi-0.dtd"
   xmlns:inkscape="http://www.inkscape.org/namespaces/inkscape"
   width="999.99994"
   height="787.70514"
   id="svg3068"
   version="1.1"
   inkscape:version="0.48.2 r9819"
   sodipodi:docname="elephant.svg">
  <defs
     id="defs3070" />
  <sodipodi:namedview
     id="base"
     pagecolor="#ffffff"
     bordercolor="#666666"
     borderopacity="1.0"
     inkscape:pageopacity="0.0"
     inkscape:pageshadow="2"
     inkscape:zoom="0.35"
     inkscape:cx="607.37813"
     inkscape:cy="239.9055"
     inkscape:document-units="px"
     inkscape:current-layer="layer1"
     showgrid="false"
     inkscape:window-width="1920"
     inkscape:window-height="1028"
     inkscape:window-x="-8"
     inkscape:window-y="-8"
     inkscape:window-maximized="1"
     fit-margin-top="0"
     fit-margin-left="0"
     fit-margin-right="0"
     fit-margin-bottom="0" />
  <metadata
     id="metadata3073">
    <rdf:RDF>
      <cc:Work
         rdf:about="">
        <dc:format>image/svg+xml</dc:format>
        <dc:type
           rdf:resource="http://purl.org/dc/dcmitype/StillImage" />
        <dc:title></dc:title>
      </cc:Work>
    </rdf:RDF>
  </metadata>
  <g
     inkscape:label="Layer 1"
     inkscape:groupmode="layer"
     id="layer1"
     transform="translate(78.092417,44.008902)">
    <path
       style="fill:#e9e9e9;fill-opacity:1;stroke:none"
       d="m 261.006,573.25503 c 9.72066,15.2753 8.87706,168.66584 8.87706,168.66584 l 172.21664,1.77538 -3.5508,-173.99208 147.36063,1.77544 5.32628,170.44126 173.99203,0 21.3052,-168.66584 c 0,0 144.3542,-192.02266 134.9326,-301.823 C 913.66344,180.50456 847.68664,90.027125 768.77874,44.177104 671.29244,-12.46796 537.12942,-19.96682 431.44722,19.32112 290.23902,71.816105 111.86992,338.89831 111.86992,338.89831 z"
       id="path3058"
       inkscape:connector-curvature="0"
       sodipodi:nodetypes="scccccccasscs"
       inkscape:export-filename="C:\Users\guillaume\Desktop\ggj2014\lui\Assets\Sprites\elephant.png"
       inkscape:export-xdpi="90"
       inkscape:export-ydpi="90" />
    <path
       style="fill:#cfcfcf;fill-opacity:1;stroke:none"
       d="m 302.66338,-27.84366 c 18.23336,-12.75838 206.57112,-21.94946 245.02897,-11.87732 38.4581,10.07214 129.91319,58.99108 141.73989,73.185844 11.8269,14.19478 75.257,124.974936 78.7883,158.081966 3.5311,33.1071 -22.3419,157.9453 -30.6375,176.85762 -8.2957,18.91232 -56.6311,102.3561 -72.9758,123.15554 -16.34431,20.7993 -98.51779,86.72512 -116.15573,92.98124 -17.63789,6.25596 -88.53829,20.75726 -112.08935,19.91594 C 412.8109,603.61505 296.14374,558.85615 279.6968,552.10735 263.25008,545.35843 157.0653,450.97897 157.0653,450.97897 l -27.33832,-67.32164 -70.437257,41.6927 -105.38918,201.1397 -31.99296,-11.83186 26.34728,-226.4934 c 0,0 49.3441199,-219.01303 127.97224,-299.174185 C 138.52124,25.481604 302.66338,-27.84366 302.66338,-27.84366 z"
       id="path3060"
       inkscape:connector-curvature="0"
       sodipodi:nodetypes="cssssscssccccccsc"
       inkscape:export-filename="C:\Users\guillaume\Desktop\ggj2014\lui\Assets\Sprites\elephant.png"
       inkscape:export-xdpi="90"
       inkscape:export-ydpi="90" />
    <path
       sodipodi:type="arc"
       style="fill:#000000;fill-opacity:1;stroke:none"
       id="path3787-1-9-5"
       sodipodi:cx="263.77609"
       sodipodi:cy="483.26749"
       sodipodi:rx="2.1465743"
       sodipodi:ry="2.1465743"
       d="m 265.92267,483.26749 c 0,1.18552 -0.96106,2.14657 -2.14658,2.14657 -1.18552,0 -2.14657,-0.96105 -2.14657,-2.14657 0,-1.18552 0.96105,-2.14658 2.14657,-2.14658 1.18552,0 2.14658,0.96106 2.14658,2.14658 z"
       transform="matrix(10.39956,0,0,9.7094815,-2644.801,-4481.9315)"
       inkscape:export-xdpi="90"
       inkscape:export-ydpi="90"
       inkscape:export-filename="C:\Users\guillaume\Desktop\ggj2014\lui\Assets\Sprites\elephant.png" />
    <path
       style="fill:#e9e9e9;fill-opacity:1;stroke:none"
       d="m -72.027357,227.74631 c 0,0 56.67338,74.7268 98.24676,101.58146 28.58092,18.46212 105.041097,38.85598 105.041097,38.85598 l -14.28582,22.94334 c 0,0 -87.148357,-16.8578 -114.5457571,-38.25624 C -37.961997,321.32391 -72.027357,227.74631 -72.027357,227.74631 z"
       id="path3856"
       inkscape:connector-curvature="0"
       sodipodi:nodetypes="csccsc"
       inkscape:export-filename="C:\Users\guillaume\Desktop\ggj2014\lui\Assets\Sprites\elephant.png"
       inkscape:export-xdpi="90"
       inkscape:export-ydpi="90" />
  </g>
</svg>
