<?xml version="1.0" encoding="UTF-8" standalone="no"?>
<!-- Created with Inkscape (http://www.inkscape.org/) -->

<svg
   xmlns:dc="http://purl.org/dc/elements/1.1/"
   xmlns:cc="http://creativecommons.org/ns#"
   xmlns:rdf="http://www.w3.org/1999/02/22-rdf-syntax-ns#"
   xmlns:svg="http://www.w3.org/2000/svg"
   xmlns="http://www.w3.org/2000/svg"
   xmlns:sodipodi="http://sodipodi.sourceforge.net/DTD/sodipodi-0.dtd"
   xmlns:inkscape="http://www.inkscape.org/namespaces/inkscape"
   width="558.08997"
   height="1300"
   id="svg3068"
   version="1.1"
   inkscape:version="0.48.2 r9819"
   sodipodi:docname="girafe.svg"
   inkscape:export-filename="D:\WIP\GGJ2014\lui\Assets\Sprites\Pickables\elephant.png"
   inkscape:export-xdpi="90"
   inkscape:export-ydpi="90">
  <defs
     id="defs3070" />
  <sodipodi:namedview
     id="base"
     pagecolor="#ffffff"
     bordercolor="#666666"
     borderopacity="1.0"
     inkscape:pageopacity="0.0"
     inkscape:pageshadow="2"
     inkscape:zoom="0.35"
     inkscape:cx="718.82821"
     inkscape:cy="174.10555"
     inkscape:document-units="px"
     inkscape:current-layer="layer1"
     showgrid="false"
     inkscape:window-width="1920"
     inkscape:window-height="1028"
     inkscape:window-x="-8"
     inkscape:window-y="-8"
     inkscape:window-maximized="1"
     fit-margin-top="0"
     fit-margin-left="0"
     fit-margin-right="0"
     fit-margin-bottom="0" />
  <metadata
     id="metadata3073">
    <rdf:RDF>
      <cc:Work
         rdf:about="">
        <dc:format>image/svg+xml</dc:format>
        <dc:type
           rdf:resource="http://purl.org/dc/dcmitype/StillImage" />
        <dc:title></dc:title>
      </cc:Work>
    </rdf:RDF>
  </metadata>
  <g
     inkscape:label="Layer 1"
     inkscape:groupmode="layer"
     id="layer1"
     transform="translate(-373.31465,910.67514)">
    <path
       style="fill:#020202;fill-opacity:1;stroke:none"
       d="m 606.1105,-353.09343 70.07724,-26.69606 20.0219,76.75107 -76.75107,16.68503 z"
       id="path3909-58-3-5"
       inkscape:connector-curvature="0"
       sodipodi:nodetypes="ccccc"
       inkscape:export-filename="C:\Users\guillaume\Desktop\ggj2014\lui\Assets\Sprites\girafe.png"
       inkscape:export-xdpi="90"
       inkscape:export-ydpi="90" />
    <path
       style="fill:#020202;fill-opacity:1;stroke:none"
       d="m 620.61169,-255.21036 70.07724,-26.69606 20.02191,76.75107 -76.75108,16.68495 z"
       id="path3909-58-2-9"
       inkscape:connector-curvature="0"
       sodipodi:nodetypes="ccccc"
       inkscape:export-filename="C:\Users\guillaume\Desktop\ggj2014\lui\Assets\Sprites\girafe.png"
       inkscape:export-xdpi="90"
       inkscape:export-ydpi="90" />
    <path
       style="fill:#fff1b7;fill-opacity:1;stroke:none"
       d="m 446.10224,-903.0783 c -18.78386,17.7011 28.75701,71.89244 28.75701,71.89244 l 26.70297,0 -20.54076,-55.45988 c 0,0 -25.55709,-25.25501 -34.91922,-16.43256 z"
       id="path2999-4-5"
       inkscape:connector-curvature="0"
       inkscape:export-filename="C:\Users\guillaume\Desktop\ggj2014\lui\Assets\Sprites\girafe.png"
       inkscape:export-xdpi="90"
       inkscape:export-ydpi="90"
       sodipodi:nodetypes="scccs" />
    <path
       style="fill:#fff1b7;fill-opacity:1;stroke:none"
       d="m 546.56283,-908.75819 c 19.25269,18.14293 -29.47464,73.6866 -29.47464,73.6866 l -27.36938,0 21.05326,-56.84393 c 0,0 26.19495,-25.88537 35.79076,-16.84267 z"
       id="path2999-1-1-1"
       inkscape:connector-curvature="0"
       inkscape:export-filename="C:\Users\guillaume\Desktop\ggj2014\lui\Assets\Sprites\girafe.png"
       inkscape:export-xdpi="90"
       inkscape:export-ydpi="90"
       sodipodi:nodetypes="scccs" />
    <path
       style="fill:#020202;fill-opacity:1;stroke:none"
       d="m 512.99512,-840.59141 70.07723,-26.69607 20.0219,76.75108 -76.75106,16.68494 z"
       id="path3909-0"
       inkscape:connector-curvature="0"
       sodipodi:nodetypes="ccccc"
       inkscape:export-filename="C:\Users\guillaume\Desktop\ggj2014\lui\Assets\Sprites\girafe.png"
       inkscape:export-xdpi="90"
       inkscape:export-ydpi="90" />
    <path
       style="fill:#020202;fill-opacity:1;stroke:none"
       d="m 534.68567,-740.48132 70.07723,-26.69615 20.02182,76.75108 -76.75091,16.68503 z"
       id="path3909-5-6"
       inkscape:connector-curvature="0"
       sodipodi:nodetypes="ccccc"
       inkscape:export-filename="C:\Users\guillaume\Desktop\ggj2014\lui\Assets\Sprites\girafe.png"
       inkscape:export-xdpi="90"
       inkscape:export-ydpi="90" />
    <path
       style="fill:#020202;fill-opacity:1;stroke:none"
       d="m 548.03373,-647.04513 70.07724,-26.69607 20.02182,76.75099 -76.75099,16.68495 z"
       id="path3909-7-4"
       inkscape:connector-curvature="0"
       sodipodi:nodetypes="ccccc"
       inkscape:export-filename="C:\Users\guillaume\Desktop\ggj2014\lui\Assets\Sprites\girafe.png"
       inkscape:export-xdpi="90"
       inkscape:export-ydpi="90" />
    <path
       style="fill:#020202;fill-opacity:1;stroke:none"
       d="m 568.05581,-550.27224 70.07723,-26.69607 20.02182,76.75108 -76.75099,16.68502 z"
       id="path3909-8-5"
       inkscape:connector-curvature="0"
       sodipodi:nodetypes="ccccc"
       inkscape:export-filename="C:\Users\guillaume\Desktop\ggj2014\lui\Assets\Sprites\girafe.png"
       inkscape:export-xdpi="90"
       inkscape:export-ydpi="90" />
    <path
       style="fill:#020202;fill-opacity:1;stroke:none"
       d="m 581.4037,-450.16207 70.07725,-26.69607 20.0219,76.751 -76.75107,16.68511 z"
       id="path3909-58-30"
       inkscape:connector-curvature="0"
       sodipodi:nodetypes="ccccc"
       inkscape:export-filename="C:\Users\guillaume\Desktop\ggj2014\lui\Assets\Sprites\girafe.png"
       inkscape:export-xdpi="90"
       inkscape:export-ydpi="90" />
    <path
       style="fill:#fff1b7;fill-opacity:1;stroke:none"
       d="m 605.28451,157.17161 11.05476,232.15325 104.30566,-12.77798 -9.15276,-224.90258 99.20334,-5.52753 48.85202,226.62596 71.85707,-5.52755 L 914.82221,151.6443 903.76722,7.930259 682.6688,-113.67379 544.48237,-848.82595 l -44.21968,5.52754 c 0,0 -84.82228,31.45896 -107.46091,69.95467 -15.54678,26.43651 -31.08683,58.13052 -7.07149,77.20542 26.39625,20.96606 100.03119,-14.85924 100.03119,-14.85924 l 107.39707,608.38617 z"
       id="path3907-8"
       inkscape:connector-curvature="0"
       sodipodi:nodetypes="ccccccccccccssccc"
       inkscape:export-filename="C:\Users\guillaume\Desktop\ggj2014\lui\Assets\Sprites\girafe.png"
       inkscape:export-xdpi="90"
       inkscape:export-ydpi="90" />
    <path
       sodipodi:type="arc"
       style="fill:#000000;fill-opacity:1;stroke:none"
       id="path3787-1-9"
       sodipodi:cx="263.77609"
       sodipodi:cy="483.26749"
       sodipodi:rx="2.1465743"
       sodipodi:ry="2.1465743"
       d="m 265.92267,483.26749 c 0,1.18552 -0.96106,2.14657 -2.14658,2.14657 -1.18552,0 -2.14657,-0.96105 -2.14657,-2.14657 0,-1.18552 0.96105,-2.14658 2.14657,-2.14658 1.18552,0 2.14658,0.96106 2.14658,2.14658 z"
       transform="matrix(8.133709,0,0,8.133709,-1668.3733,-4716.0385)"
       inkscape:export-xdpi="90"
       inkscape:export-ydpi="90"
       inkscape:export-filename="C:\Users\guillaume\Desktop\ggj2014\lui\Assets\Sprites\girafe.png" />
    <path
       transform="matrix(8.133709,0,0,8.133709,-2227.3536,-4238.0819)"
       sodipodi:type="arc"
       style="fill:#020202;fill-opacity:1;stroke:none"
       id="path4022-1"
       sodipodi:cx="340.17856"
       sodipodi:cy="431.46933"
       sodipodi:rx="1.6071428"
       sodipodi:ry="1.6071428"
       d="m 341.7857,431.46933 c 0,0.8876 -0.71954,1.60714 -1.60714,1.60714 -0.8876,0 -1.60714,-0.71954 -1.60714,-1.60714 0,-0.8876 0.71954,-1.60714 1.60714,-1.60714 0.8876,0 1.60714,0.71954 1.60714,1.60714 z"
       inkscape:export-filename="C:\Users\guillaume\Desktop\ggj2014\lui\Assets\Sprites\girafe.png"
       inkscape:export-xdpi="90"
       inkscape:export-ydpi="90" />
    <path
       transform="matrix(8.133709,0,0,8.133709,-2227.3536,-4238.0819)"
       sodipodi:type="arc"
       style="fill:#020202;fill-opacity:1;stroke:none"
       id="path4024-3"
       sodipodi:cx="337.85715"
       sodipodi:cy="440.57648"
       sodipodi:rx="1.7857143"
       sodipodi:ry="1.4285715"
       d="m 339.64286,440.57648 c 0,0.78898 -0.79949,1.42857 -1.78571,1.42857 -0.98623,0 -1.78572,-0.63959 -1.78572,-1.42857 0,-0.78898 0.79949,-1.42857 1.78572,-1.42857 0.98622,0 1.78571,0.63959 1.78571,1.42857 z"
       inkscape:export-filename="C:\Users\guillaume\Desktop\ggj2014\lui\Assets\Sprites\girafe.png"
       inkscape:export-xdpi="90"
       inkscape:export-ydpi="90" />
    <path
       transform="matrix(8.133709,0,0,8.133709,-2227.3536,-4238.0819)"
       sodipodi:type="arc"
       style="fill:#020202;fill-opacity:1;stroke:none"
       id="path4026-4"
       sodipodi:cx="343.57144"
       sodipodi:cy="447.54074"
       sodipodi:rx="2.5"
       sodipodi:ry="2.6785715"
       d="m 346.07144,447.54074 c 0,1.47934 -1.11929,2.67857 -2.5,2.67857 -1.38071,0 -2.5,-1.19923 -2.5,-2.67857 0,-1.47933 1.11929,-2.67857 2.5,-2.67857 1.38071,0 2.5,1.19924 2.5,2.67857 z"
       inkscape:export-filename="C:\Users\guillaume\Desktop\ggj2014\lui\Assets\Sprites\girafe.png"
       inkscape:export-xdpi="90"
       inkscape:export-ydpi="90" />
    <path
       transform="matrix(8.133709,0,0,8.133709,-2227.3536,-4238.0819)"
       sodipodi:type="arc"
       style="fill:#020202;fill-opacity:1;stroke:none"
       id="path4028-7"
       sodipodi:cx="340.17856"
       sodipodi:cy="456.29074"
       sodipodi:rx="2.3214285"
       sodipodi:ry="2.5"
       d="m 342.49999,456.29074 c 0,1.38071 -1.03934,2.5 -2.32143,2.5 -1.28209,0 -2.32143,-1.11929 -2.32143,-2.5 0,-1.38071 1.03934,-2.5 2.32143,-2.5 1.28209,0 2.32143,1.11929 2.32143,2.5 z"
       inkscape:export-filename="C:\Users\guillaume\Desktop\ggj2014\lui\Assets\Sprites\girafe.png"
       inkscape:export-xdpi="90"
       inkscape:export-ydpi="90" />
    <path
       transform="matrix(8.133709,0,0,8.133709,-2227.3536,-4238.0819)"
       sodipodi:type="arc"
       style="fill:#020202;fill-opacity:1;stroke:none"
       id="path4030-4"
       sodipodi:cx="345.35715"
       sodipodi:cy="462.18362"
       sodipodi:rx="1.0714285"
       sodipodi:ry="0.89285713"
       d="m 346.42858,462.18362 c 0,0.49312 -0.4797,0.89286 -1.07143,0.89286 -0.59174,0 -1.07143,-0.39974 -1.07143,-0.89286 0,-0.49311 0.47969,-0.89285 1.07143,-0.89285 0.59173,0 1.07143,0.39974 1.07143,0.89285 z"
       inkscape:export-filename="C:\Users\guillaume\Desktop\ggj2014\lui\Assets\Sprites\girafe.png"
       inkscape:export-xdpi="90"
       inkscape:export-ydpi="90" />
    <path
       transform="matrix(8.133709,0,0,8.133709,-2227.3536,-4238.0819)"
       sodipodi:type="arc"
       style="fill:#020202;fill-opacity:1;stroke:none"
       id="path4032-6"
       sodipodi:cx="343.21429"
       sodipodi:cy="471.29074"
       sodipodi:rx="2.5"
       sodipodi:ry="2.5"
       d="m 345.71429,471.29074 c 0,1.38071 -1.11928,2.5 -2.5,2.5 -1.38071,0 -2.5,-1.11929 -2.5,-2.5 0,-1.38071 1.11929,-2.5 2.5,-2.5 1.38072,0 2.5,1.11929 2.5,2.5 z"
       inkscape:export-filename="C:\Users\guillaume\Desktop\ggj2014\lui\Assets\Sprites\girafe.png"
       inkscape:export-xdpi="90"
       inkscape:export-ydpi="90" />
    <path
       transform="matrix(8.133709,0,0,8.133709,-2227.3536,-4238.0819)"
       sodipodi:type="arc"
       style="fill:#020202;fill-opacity:1;stroke:none"
       id="path4034-3"
       sodipodi:cx="349.10715"
       sodipodi:cy="479.50504"
       sodipodi:rx="2.3214285"
       sodipodi:ry="2.5"
       d="m 351.42858,479.50504 c 0,1.38071 -1.03934,2.5 -2.32143,2.5 -1.28209,0 -2.32143,-1.11929 -2.32143,-2.5 0,-1.38072 1.03934,-2.5 2.32143,-2.5 1.28209,0 2.32143,1.11928 2.32143,2.5 z"
       inkscape:export-filename="C:\Users\guillaume\Desktop\ggj2014\lui\Assets\Sprites\girafe.png"
       inkscape:export-xdpi="90"
       inkscape:export-ydpi="90" />
    <path
       transform="matrix(8.133709,0,0,8.133709,-2227.3536,-4238.0819)"
       sodipodi:type="arc"
       style="fill:#020202;fill-opacity:1;stroke:none"
       id="path4036-6"
       sodipodi:cx="352.67856"
       sodipodi:cy="488.79074"
       sodipodi:rx="0.89285713"
       sodipodi:ry="1.4285715"
       d="m 353.57142,488.79074 c 0,0.78898 -0.39975,1.42857 -0.89286,1.42857 -0.49311,0 -0.89286,-0.63959 -0.89286,-1.42857 0,-0.78898 0.39975,-1.42857 0.89286,-1.42857 0.49311,0 0.89286,0.63959 0.89286,1.42857 z"
       inkscape:export-filename="C:\Users\guillaume\Desktop\ggj2014\lui\Assets\Sprites\girafe.png"
       inkscape:export-xdpi="90"
       inkscape:export-ydpi="90" />
    <path
       transform="matrix(8.133709,0,0,8.133709,-2227.3536,-4238.0819)"
       sodipodi:type="arc"
       style="fill:#020202;fill-opacity:1;stroke:none"
       id="path4038-5"
       sodipodi:cx="346.07144"
       sodipodi:cy="490.04074"
       sodipodi:rx="1.4285715"
       sodipodi:ry="2.6785715"
       d="m 347.50001,490.04074 c 0,1.47934 -0.63959,2.67857 -1.42857,2.67857 -0.78898,0 -1.42857,-1.19923 -1.42857,-2.67857 0,-1.47933 0.63959,-2.67857 1.42857,-2.67857 0.78898,0 1.42857,1.19924 1.42857,2.67857 z"
       inkscape:export-filename="C:\Users\guillaume\Desktop\ggj2014\lui\Assets\Sprites\girafe.png"
       inkscape:export-xdpi="90"
       inkscape:export-ydpi="90" />
    <path
       transform="matrix(8.133709,0,0,8.133709,-2227.3536,-4238.0819)"
       sodipodi:type="arc"
       style="fill:#020202;fill-opacity:1;stroke:none"
       id="path4040-2"
       sodipodi:cx="351.07144"
       sodipodi:cy="495.21933"
       sodipodi:rx="0.71428573"
       sodipodi:ry="1.0714285"
       d="m 351.78573,495.21933 c 0,0.59173 -0.3198,1.07143 -0.71429,1.07143 -0.39449,0 -0.71428,-0.4797 -0.71428,-1.07143 0,-0.59173 0.31979,-1.07143 0.71428,-1.07143 0.39449,0 0.71429,0.4797 0.71429,1.07143 z"
       inkscape:export-filename="C:\Users\guillaume\Desktop\ggj2014\lui\Assets\Sprites\girafe.png"
       inkscape:export-xdpi="90"
       inkscape:export-ydpi="90" />
    <path
       transform="matrix(8.133709,0,0,8.133709,-2227.3536,-4238.0819)"
       sodipodi:type="arc"
       style="fill:#020202;fill-opacity:1;stroke:none"
       id="path4042-8"
       sodipodi:cx="348.03571"
       sodipodi:cy="503.43362"
       sodipodi:rx="1.6071428"
       sodipodi:ry="3.2142856"
       d="m 349.64285,503.43362 c 0,1.77521 -0.71954,3.21429 -1.60714,3.21429 -0.8876,0 -1.60715,-1.43908 -1.60715,-3.21429 0,-1.7752 0.71955,-3.21428 1.60715,-3.21428 0.8876,0 1.60714,1.43908 1.60714,3.21428 z"
       inkscape:export-filename="C:\Users\guillaume\Desktop\ggj2014\lui\Assets\Sprites\girafe.png"
       inkscape:export-xdpi="90"
       inkscape:export-ydpi="90" />
    <path
       transform="matrix(8.133709,0,0,8.133709,-2227.3536,-4238.0819)"
       sodipodi:type="arc"
       style="fill:#020202;fill-opacity:1;stroke:none"
       id="path4044-1"
       sodipodi:cx="354.46429"
       sodipodi:cy="503.61218"
       sodipodi:rx="0.89285713"
       sodipodi:ry="1.6071428"
       d="m 355.35715,503.61218 c 0,0.8876 -0.39974,1.60715 -0.89286,1.60715 -0.49311,0 -0.89285,-0.71955 -0.89285,-1.60715 0,-0.8876 0.39974,-1.60714 0.89285,-1.60714 0.49312,0 0.89286,0.71954 0.89286,1.60714 z"
       inkscape:export-filename="C:\Users\guillaume\Desktop\ggj2014\lui\Assets\Sprites\girafe.png"
       inkscape:export-xdpi="90"
       inkscape:export-ydpi="90" />
    <path
       transform="matrix(8.133709,0,0,8.133709,-2227.3536,-4238.0819)"
       sodipodi:type="arc"
       style="fill:#020202;fill-opacity:1;stroke:none"
       id="path4046-0"
       sodipodi:cx="364.10715"
       sodipodi:cy="526.82648"
       sodipodi:rx="1.6071428"
       sodipodi:ry="1.6071428"
       d="m 365.71429,526.82648 c 0,0.8876 -0.71954,1.60714 -1.60714,1.60714 -0.8876,0 -1.60715,-0.71954 -1.60715,-1.60714 0,-0.8876 0.71955,-1.60715 1.60715,-1.60715 0.8876,0 1.60714,0.71955 1.60714,1.60715 z"
       inkscape:export-filename="C:\Users\guillaume\Desktop\ggj2014\lui\Assets\Sprites\girafe.png"
       inkscape:export-xdpi="90"
       inkscape:export-ydpi="90" />
    <path
       transform="matrix(7.8432193,0,0,10.457626,-2120.2874,-5437.8987)"
       sodipodi:type="arc"
       style="fill:#020202;fill-opacity:1;stroke:none"
       id="path4048-3"
       sodipodi:cx="373.57144"
       sodipodi:cy="518.79077"
       sodipodi:rx="5"
       sodipodi:ry="2.5"
       d="m 378.57144,518.79077 c 0,1.38071 -2.23857,2.5 -5,2.5 -2.76142,0 -5,-1.11929 -5,-2.5 0,-1.38071 2.23858,-2.5 5,-2.5 2.76143,0 5,1.11929 5,2.5 z"
       inkscape:export-filename="C:\Users\guillaume\Desktop\ggj2014\lui\Assets\Sprites\girafe.png"
       inkscape:export-xdpi="90"
       inkscape:export-ydpi="90" />
    <path
       transform="matrix(8.133709,0,0,8.133709,-2227.3536,-4238.0819)"
       sodipodi:type="arc"
       style="fill:#020202;fill-opacity:1;stroke:none"
       id="path4050-1"
       sodipodi:cx="362.32144"
       sodipodi:cy="512.89789"
       sodipodi:rx="3.0357144"
       sodipodi:ry="3.3928571"
       d="m 365.35716,512.89789 c 0,1.87382 -1.35914,3.39286 -3.03572,3.39286 -1.67658,0 -3.03571,-1.51904 -3.03571,-3.39286 0,-1.87383 1.35913,-3.39286 3.03571,-3.39286 1.67658,0 3.03572,1.51903 3.03572,3.39286 z"
       inkscape:export-filename="C:\Users\guillaume\Desktop\ggj2014\lui\Assets\Sprites\girafe.png"
       inkscape:export-xdpi="90"
       inkscape:export-ydpi="90" />
    <path
       transform="matrix(8.133709,0,0,8.133709,-2227.3536,-4238.0819)"
       sodipodi:type="arc"
       style="fill:#020202;fill-opacity:1;stroke:none"
       id="path4052-5"
       sodipodi:cx="352.32144"
       sodipodi:cy="516.4693"
       sodipodi:rx="3.0357144"
       sodipodi:ry="3.75"
       d="m 355.35716,516.4693 c 0,2.07107 -1.35914,3.75 -3.03572,3.75 -1.67658,0 -3.03571,-1.67893 -3.03571,-3.75 0,-2.07107 1.35913,-3.75 3.03571,-3.75 1.67658,0 3.03572,1.67893 3.03572,3.75 z"
       inkscape:export-filename="C:\Users\guillaume\Desktop\ggj2014\lui\Assets\Sprites\girafe.png"
       inkscape:export-xdpi="90"
       inkscape:export-ydpi="90" />
    <path
       transform="matrix(8.133709,0,0,8.133709,-2227.3536,-4238.0819)"
       sodipodi:type="arc"
       style="fill:#020202;fill-opacity:1;stroke:none"
       id="path4054-5"
       sodipodi:cx="349.28571"
       sodipodi:cy="530.2193"
       sodipodi:rx="1.7857143"
       sodipodi:ry="2.5"
       d="m 351.07142,530.2193 c 0,1.38071 -0.79949,2.5 -1.78571,2.5 -0.98623,0 -1.78572,-1.11929 -1.78572,-2.5 0,-1.38071 0.79949,-2.5 1.78572,-2.5 0.98622,0 1.78571,1.11929 1.78571,2.5 z"
       inkscape:export-filename="C:\Users\guillaume\Desktop\ggj2014\lui\Assets\Sprites\girafe.png"
       inkscape:export-xdpi="90"
       inkscape:export-ydpi="90" />
    <path
       transform="matrix(8.133709,0,0,8.133709,-2227.3536,-4238.0819)"
       sodipodi:type="arc"
       style="fill:#020202;fill-opacity:1;stroke:none"
       id="path4056-2"
       sodipodi:cx="381.25"
       sodipodi:cy="527.89789"
       sodipodi:rx="3.0357144"
       sodipodi:ry="2.6785715"
       d="m 384.28571,527.89789 c 0,1.47933 -1.35913,2.67857 -3.03571,2.67857 -1.67658,0 -3.03571,-1.19924 -3.03571,-2.67857 0,-1.47934 1.35913,-2.67857 3.03571,-2.67857 1.67658,0 3.03571,1.19923 3.03571,2.67857 z"
       inkscape:export-filename="C:\Users\guillaume\Desktop\ggj2014\lui\Assets\Sprites\girafe.png"
       inkscape:export-xdpi="90"
       inkscape:export-ydpi="90" />
  </g>
</svg>
