<?xml version="1.0" encoding="UTF-8" standalone="no"?>
<!-- Created with Inkscape (http://www.inkscape.org/) -->

<svg
   xmlns:dc="http://purl.org/dc/elements/1.1/"
   xmlns:cc="http://creativecommons.org/ns#"
   xmlns:rdf="http://www.w3.org/1999/02/22-rdf-syntax-ns#"
   xmlns:svg="http://www.w3.org/2000/svg"
   xmlns="http://www.w3.org/2000/svg"
   xmlns:sodipodi="http://sodipodi.sourceforge.net/DTD/sodipodi-0.dtd"
   xmlns:inkscape="http://www.inkscape.org/namespaces/inkscape"
   width="1200"
   height="1488.7925"
   id="svg2"
   version="1.1"
   inkscape:version="0.48.2 r9819"
   sodipodi:docname="shop.svg"
   inkscape:export-filename="D:\WIP\GGJ2014\lui\Assets\Sprites\Pickables\shop.png"
   inkscape:export-xdpi="90"
   inkscape:export-ydpi="90">
  <defs
     id="defs4" />
  <sodipodi:namedview
     id="base"
     pagecolor="#ffffff"
     bordercolor="#666666"
     borderopacity="1.0"
     inkscape:pageopacity="0.0"
     inkscape:pageshadow="2"
     inkscape:zoom="90.509668"
     inkscape:cx="508.45298"
     inkscape:cy="-0.73673508"
     inkscape:document-units="px"
     inkscape:current-layer="layer1"
     showgrid="false"
     inkscape:window-width="1920"
     inkscape:window-height="1028"
     inkscape:window-x="-8"
     inkscape:window-y="-8"
     inkscape:window-maximized="1"
     fit-margin-top="0"
     fit-margin-left="0"
     fit-margin-right="0"
     fit-margin-bottom="0" />
  <metadata
     id="metadata7">
    <rdf:RDF>
      <cc:Work
         rdf:about="">
        <dc:format>image/svg+xml</dc:format>
        <dc:type
           rdf:resource="http://purl.org/dc/dcmitype/StillImage" />
        <dc:title></dc:title>
      </cc:Work>
    </rdf:RDF>
  </metadata>
  <g
     inkscape:label="Layer 1"
     inkscape:groupmode="layer"
     id="layer1"
     transform="translate(0,436.4302)">
    <rect
       style="fill:#a05a2c;fill-opacity:1;stroke:none"
       id="rect2985"
       width="140.78212"
       height="891.62012"
       x="5.6161673e-016"
       y="160.74188"
       ry="0.026167151" />
    <rect
       style="fill:#a05a2c;fill-opacity:1;stroke:none"
       id="rect2985-4"
       width="140.78212"
       height="891.62012"
       x="1055.866"
       y="160.74203"
       ry="0.026167151" />
    <rect
       style="fill:#a05a2c;fill-opacity:1;stroke:none"
       id="rect2985-4-9"
       width="140.78212"
       height="1055.866"
       x="-301.52414"
       y="70.39106"
       ry="0.030987414"
       transform="matrix(0,-1,1,0,0,0)" />
    <rect
       style="fill:#a05a2c;fill-opacity:1;stroke:none"
       id="rect2985-4-9-8"
       width="375.41901"
       height="1055.866"
       x="-1052.3622"
       y="70.39106"
       ry="0.030987414"
       transform="matrix(0,-1,1,0,0,0)" />
    <rect
       style="fill:#784421;fill-opacity:1;stroke:none"
       id="rect3112-1"
       width="3.3519554"
       height="921.24744"
       x="1126.257"
       y="131.11469"
       ry="0.060182005" />
    <path
       style="fill:#a05a2c;fill-opacity:1;stroke:none"
       d="m 41.478329,153.11194 552.491371,-555.80963 575.7192,572.40097 -1149.779301,0 z"
       id="path4212"
       inkscape:connector-curvature="0" />
    <rect
       style="fill:#784421;fill-opacity:1;stroke:none"
       id="rect3112-16"
       width="3.3519554"
       height="1339.5861"
       x="703.91064"
       y="-287.22394"
       ry="0.08751066" />
    <rect
       style="fill:#784421;fill-opacity:1;stroke:none"
       id="rect3112"
       width="3.3519554"
       height="928.49164"
       x="70.39106"
       y="123.8705"
       ry="0.06065524" />
    <rect
       style="fill:#784421;fill-opacity:1;stroke:none"
       id="rect3112-22"
       width="3.3519554"
       height="1410.0992"
       x="633.51953"
       y="-357.73706"
       ry="0.092117049" />
    <rect
       style="fill:#784421;fill-opacity:1;stroke:none"
       id="rect3112-7"
       width="3.3519554"
       height="998.88269"
       x="140.78212"
       y="53.479439"
       ry="0.065253653" />
    <rect
       style="fill:#784421;fill-opacity:1;stroke:none"
       id="rect3112-8"
       width="3.3519554"
       height="1277.9611"
       x="774.3017"
       y="-225.59901"
       ry="0.08348491" />
    <rect
       style="fill:#784421;fill-opacity:1;stroke:none"
       id="rect3112-57"
       width="3.3519554"
       height="1201.5225"
       x="844.69275"
       y="-149.16037"
       ry="0.078491427" />
    <rect
       style="fill:#784421;fill-opacity:1;stroke:none"
       id="rect3112-6"
       width="3.3519554"
       height="1128.6392"
       x="915.0838"
       y="-76.277016"
       ry="0.073730201" />
    <rect
       style="fill:#784421;fill-opacity:1;stroke:none"
       id="rect3112-18"
       width="3.3519554"
       height="1059.311"
       x="985.47485"
       y="-6.9490066"
       ry="0.069201238" />
    <rect
       style="fill:#784421;fill-opacity:1;stroke:none"
       id="rect3112-9"
       width="3.3519554"
       height="990.57556"
       x="1055.866"
       y="61.786537"
       ry="0.064710975" />
    <rect
       style="fill:#803300;fill-opacity:1;stroke:none"
       id="rect4008-1"
       width="848.04468"
       height="35.19553"
       x="-960.18536"
       y="-729.36987"
       ry="0.040507019"
       transform="matrix(-0.70710678,-0.70710678,-0.70710678,0.70710678,0,0)" />
    <rect
       style="fill:#784421;fill-opacity:1;stroke:none"
       id="rect3112-11"
       width="3.3519554"
       height="1072.6257"
       x="211.17319"
       y="-20.263618"
       ry="0.070071034" />
    <rect
       style="fill:#784421;fill-opacity:1;stroke:none"
       id="rect3112-23"
       width="3.3519554"
       height="1418.9875"
       x="563.12848"
       y="-366.62531"
       ry="0.092697687" />
    <rect
       style="fill:#784421;fill-opacity:1;stroke:none"
       id="rect3112-5"
       width="3.3519554"
       height="1134.637"
       x="281.56424"
       y="-82.274689"
       ry="0.074122012" />
    <rect
       style="fill:#784421;fill-opacity:1;stroke:none"
       id="rect3112-2"
       width="3.3519554"
       height="1198.743"
       x="351.95532"
       y="-146.38094"
       ry="0.078309849" />
    <rect
       style="fill:#784421;fill-opacity:1;stroke:none"
       id="rect3112-76"
       width="3.3519554"
       height="1275.5909"
       x="422.34637"
       y="-223.22881"
       ry="0.08333008" />
    <rect
       style="fill:#784421;fill-opacity:1;stroke:none"
       id="rect3112-14"
       width="3.3519554"
       height="1347.2892"
       x="492.73743"
       y="-294.92703"
       ry="0.08801388" />
    <rect
       style="fill:#803300;fill-opacity:1;stroke:none"
       id="rect4008-1-2"
       width="848.04468"
       height="35.19553"
       x="-115.44302"
       y="115.4194"
       ry="0.040507019"
       transform="matrix(0.70710678,-0.70710678,0.70710678,0.70710678,0,0)" />
    <rect
       style="fill:#c8ab37;fill-opacity:1;stroke:#784421;stroke-width:14.07821274;stroke-miterlimit:4;stroke-opacity:1;stroke-dasharray:none"
       id="rect3230"
       width="912.73743"
       height="375.41901"
       x="143.12849"
       y="306.21689"
       ry="0.0618352" />
    <rect
       style="fill:#784421;fill-opacity:1;stroke:#803300;stroke-width:9.38547516;stroke-miterlimit:4;stroke-opacity:1;stroke-dasharray:none"
       id="rect3232"
       width="469.27374"
       height="117.31844"
       x="363.68716"
       y="109.12192"
       ry="0.084871843" />
    <path
       style="fill:#ffffff;fill-opacity:1;stroke:none"
       d="m 506.12572,139.06533 -37.43744,1.74126 -14.80085,37.43747 32.2136,31.34293 31.34296,-16.54211 10.44765,-36.56677 28.73105,53.10888 0.87062,-95.77013 16.54214,0 0.87064,94.02887 60.07401,0.87064 27.8604,-32.2136 11.3183,33.95486 16.54211,-55.72081 33.95489,0.87065 2.61188,54.85016 -34.82548,-0.87064 6.09446,-40.04932 16.54211,3.48253 -4.35317,23.50723 -6.96513,-2.61191 3.48255,-15.67146 -4.35317,0 -2.61193,26.98976 21.76595,-2.61193 -1.74127,-39.1787 -23.50723,-3.48253 -21.76593,62.68591 -13.93022,-35.69615 -24.37784,28.73105 -67.03913,-2.6119 0.87064,-92.28764 -7.83572,0.87067 -3.48257,99.25269 -29.6017,-52.23827 -8.70636,33.95487 -34.82551,14.80087 -39.1787,-37.43744 18.2834,-47.01445 41.79061,-1.74126 z"
       id="path3238"
       inkscape:connector-curvature="0" />
    <rect
       style="fill:#784421;fill-opacity:1;stroke:none"
       id="rect4010"
       width="1008.9385"
       height="46.927376"
       x="93.854752"
       y="658.17218"
       ry="0.074131973" />
    <rect
       style="fill:#784421;fill-opacity:1;stroke:none"
       id="rect3112-3"
       width="3.3519554"
       height="891.62012"
       x="5.6161673e-016"
       y="160.74203"
       ry="0.058246549" />
    <rect
       style="fill:#784421;fill-opacity:1;stroke:none"
       id="rect3112-3-3"
       width="3.3519554"
       height="891.62012"
       x="1196.6481"
       y="160.74203"
       ry="0.058246549" />
    <rect
       style="fill:#803300;fill-opacity:1;stroke:none"
       id="rect4010-4"
       width="1199.9773"
       height="28.156425"
       x="5.6161673e-016"
       y="1024.2057"
       ry="0.04447918" />
    <path
       sodipodi:type="arc"
       style="fill:#c8ab37;fill-opacity:1;stroke:#803300;stroke-width:6.09042645;stroke-linejoin:round;stroke-miterlimit:4;stroke-opacity:1;stroke-dasharray:none"
       id="path4192"
       sodipodi:cx="249.28572"
       sodipodi:cy="274.45163"
       sodipodi:rx="42.857143"
       sodipodi:ry="42.5"
       d="m 292.14286,274.45163 c 0,23.4721 -19.18779,42.5 -42.85714,42.5 -23.66935,0 -42.85714,-19.0279 -42.85714,-42.5 0,-23.4721 19.18779,-42.5 42.85714,-42.5 23.66935,0 42.85714,19.0279 42.85714,42.5 z"
       transform="matrix(2.3018799,0,0,2.3212235,24.602739,-769.72213)" />
  </g>
</svg>
