<?xml version="1.0" encoding="UTF-8" standalone="no"?>
<!-- Created with Inkscape (http://www.inkscape.org/) -->

<svg
   xmlns:dc="http://purl.org/dc/elements/1.1/"
   xmlns:cc="http://creativecommons.org/ns#"
   xmlns:rdf="http://www.w3.org/1999/02/22-rdf-syntax-ns#"
   xmlns:svg="http://www.w3.org/2000/svg"
   xmlns="http://www.w3.org/2000/svg"
   xmlns:sodipodi="http://sodipodi.sourceforge.net/DTD/sodipodi-0.dtd"
   xmlns:inkscape="http://www.inkscape.org/namespaces/inkscape"
   width="1000"
   height="870.00006"
   id="svg4840"
   version="1.1"
   inkscape:version="0.48.2 r9819"
   sodipodi:docname="cloud1.svg"
   inkscape:export-filename="D:\WIP\GGJ2014\lui\Assets\Sprites\cloud1.png"
   inkscape:export-xdpi="90"
   inkscape:export-ydpi="90">
  <defs
     id="defs4842" />
  <sodipodi:namedview
     id="base"
     pagecolor="#ffffff"
     bordercolor="#666666"
     borderopacity="1.0"
     inkscape:pageopacity="0.0"
     inkscape:pageshadow="2"
     inkscape:zoom="0.0875"
     inkscape:cx="1979.3363"
     inkscape:cy="1533.7237"
     inkscape:document-units="px"
     inkscape:current-layer="layer1"
     showgrid="false"
     fit-margin-top="0"
     fit-margin-left="0"
     fit-margin-right="0"
     fit-margin-bottom="0"
     inkscape:window-width="1920"
     inkscape:window-height="1028"
     inkscape:window-x="-8"
     inkscape:window-y="-8"
     inkscape:window-maximized="1" />
  <metadata
     id="metadata4845">
    <rdf:RDF>
      <cc:Work
         rdf:about="">
        <dc:format>image/svg+xml</dc:format>
        <dc:type
           rdf:resource="http://purl.org/dc/dcmitype/StillImage" />
        <dc:title />
      </cc:Work>
    </rdf:RDF>
  </metadata>
  <g
     inkscape:label="Layer 1"
     inkscape:groupmode="layer"
     id="layer1"
     transform="translate(1221.6192,-1414.9741)">
    <path
       sodipodi:type="arc"
       style="fill:#ffffff;fill-opacity:1;stroke:none"
       id="path4692-8"
       sodipodi:cx="-357.85715"
       sodipodi:cy="119.42857"
       sodipodi:rx="77.85714"
       sodipodi:ry="85.714287"
       d="m -280.00001,119.42857 c 0,47.3387 -34.85783,85.71429 -77.85714,85.71429 -42.99931,0 -77.85714,-38.37559 -77.85714,-85.71429 0,-47.33869 34.85783,-85.714283 77.85714,-85.714283 42.99931,0 77.85714,38.375593 77.85714,85.714283 z"
       transform="matrix(3.1684194,0,0,2.7714538,158.90635,1506.6428)" />
    <path
       sodipodi:type="arc"
       style="fill:#ffffff;fill-opacity:1;stroke:none"
       id="path4692-7"
       sodipodi:cx="-357.85715"
       sodipodi:cy="119.42857"
       sodipodi:rx="77.85714"
       sodipodi:ry="85.714287"
       d="m -280.00001,119.42857 c 0,47.3387 -34.85783,85.71429 -77.85714,85.71429 -42.99931,0 -77.85714,-38.37559 -77.85714,-85.71429 0,-47.33869 34.85783,-85.714283 77.85714,-85.714283 42.99931,0 77.85714,38.375593 77.85714,85.714283 z"
       transform="matrix(3.1288139,0,0,2.7714538,456.17192,1716.4302)" />
    <path
       sodipodi:type="arc"
       style="fill:#ffffff;fill-opacity:1;stroke:none"
       id="path4692-78"
       sodipodi:cx="-357.85715"
       sodipodi:cy="119.42857"
       sodipodi:rx="77.85714"
       sodipodi:ry="85.714287"
       d="m -280.00001,119.42857 c 0,47.3387 -34.85783,85.71429 -77.85714,85.71429 -42.99931,0 -77.85714,-38.37559 -77.85714,-85.71429 0,-47.33869 34.85783,-85.714283 77.85714,-85.714283 42.99931,0 77.85714,38.375593 77.85714,85.714283 z"
       transform="matrix(3.7624981,0,0,2.7714538,652.10467,1321.5365)" />
    <path
       sodipodi:type="arc"
       style="fill:#ffffff;fill-opacity:1;stroke:none"
       id="path4692-78-3"
       sodipodi:cx="-357.85715"
       sodipodi:cy="119.42857"
       sodipodi:rx="77.85714"
       sodipodi:ry="85.714287"
       d="m -280.00001,119.42857 c 0,47.3387 -34.85783,85.71429 -77.85714,85.71429 -42.99931,0 -77.85714,-38.37559 -77.85714,-85.71429 0,-47.33869 34.85783,-85.714283 77.85714,-85.714283 42.99931,0 77.85714,38.375593 77.85714,85.714283 z"
       transform="matrix(3.7624981,0,0,2.7714538,831.88024,1503.0159)" />
  </g>
</svg>
