<?xml version="1.0" encoding="UTF-8" standalone="no"?>
<!-- Created with Inkscape (http://www.inkscape.org/) -->

<svg
   xmlns:dc="http://purl.org/dc/elements/1.1/"
   xmlns:cc="http://creativecommons.org/ns#"
   xmlns:rdf="http://www.w3.org/1999/02/22-rdf-syntax-ns#"
   xmlns:svg="http://www.w3.org/2000/svg"
   xmlns="http://www.w3.org/2000/svg"
   xmlns:sodipodi="http://sodipodi.sourceforge.net/DTD/sodipodi-0.dtd"
   xmlns:inkscape="http://www.inkscape.org/namespaces/inkscape"
   width="231.64384"
   height="201.42859"
   id="svg4840"
   version="1.1"
   inkscape:version="0.48.2 r9819"
   sodipodi:docname="cloud.svg">
  <defs
     id="defs4842" />
  <sodipodi:namedview
     id="base"
     pagecolor="#ffffff"
     bordercolor="#666666"
     borderopacity="1.0"
     inkscape:pageopacity="0.0"
     inkscape:pageshadow="2"
     inkscape:zoom="0.7"
     inkscape:cx="77.945801"
     inkscape:cy="118.91414"
     inkscape:document-units="px"
     inkscape:current-layer="layer1"
     showgrid="false"
     fit-margin-top="0"
     fit-margin-left="0"
     fit-margin-right="0"
     fit-margin-bottom="0"
     inkscape:window-width="469"
     inkscape:window-height="403"
     inkscape:window-x="75"
     inkscape:window-y="75"
     inkscape:window-maximized="0" />
  <metadata
     id="metadata4845">
    <rdf:RDF>
      <cc:Work
         rdf:about="">
        <dc:format>image/svg+xml</dc:format>
        <dc:type
           rdf:resource="http://purl.org/dc/dcmitype/StillImage" />
        <dc:title></dc:title>
      </cc:Work>
    </rdf:RDF>
  </metadata>
  <g
     inkscape:label="Layer 1"
     inkscape:groupmode="layer"
     id="layer1"
     transform="translate(-259.17807,-431.64789)">
    <path
       sodipodi:type="arc"
       style="fill:#ffffff;fill-opacity:1;stroke:none"
       id="path4692-8"
       sodipodi:cx="-357.85715"
       sodipodi:cy="119.42857"
       sodipodi:rx="77.85714"
       sodipodi:ry="85.714287"
       d="m -280.00001,119.42857 c 0,47.3387 -34.85783,85.71429 -77.85714,85.71429 -42.99931,0 -77.85714,-38.37559 -77.85714,-85.71429 0,-47.33869 34.85783,-85.714283 77.85714,-85.714283 42.99931,0 77.85714,38.375593 77.85714,85.714283 z"
       transform="matrix(0.73394487,0,0,0.64166667,578.96834,452.8717)"
       inkscape:export-filename="D:\WIP\GGJ2014\lui\Assets\Sprites\cloud.png"
       inkscape:export-xdpi="90"
       inkscape:export-ydpi="90" />
    <path
       sodipodi:type="arc"
       style="fill:#ffffff;fill-opacity:1;stroke:none"
       id="path4692-7"
       sodipodi:cx="-357.85715"
       sodipodi:cy="119.42857"
       sodipodi:rx="77.85714"
       sodipodi:ry="85.714287"
       d="m -280.00001,119.42857 c 0,47.3387 -34.85783,85.71429 -77.85714,85.71429 -42.99931,0 -77.85714,-38.37559 -77.85714,-85.71429 0,-47.33869 34.85783,-85.714283 77.85714,-85.714283 42.99931,0 77.85714,38.375593 77.85714,85.714283 z"
       transform="matrix(0.72477056,0,0,0.64166667,647.8281,501.44314)"
       inkscape:export-filename="D:\WIP\GGJ2014\lui\Assets\Sprites\cloud.png"
       inkscape:export-xdpi="90"
       inkscape:export-ydpi="90" />
    <path
       sodipodi:type="arc"
       style="fill:#ffffff;fill-opacity:1;stroke:none"
       id="path4692-78"
       sodipodi:cx="-357.85715"
       sodipodi:cy="119.42857"
       sodipodi:rx="77.85714"
       sodipodi:ry="85.714287"
       d="m -280.00001,119.42857 c 0,47.3387 -34.85783,85.71429 -77.85714,85.71429 -42.99931,0 -77.85714,-38.37559 -77.85714,-85.71429 0,-47.33869 34.85783,-85.714283 77.85714,-85.714283 42.99931,0 77.85714,38.375593 77.85714,85.714283 z"
       transform="matrix(0.87155956,0,0,0.64166667,693.21474,410.01456)"
       inkscape:export-filename="D:\WIP\GGJ2014\lui\Assets\Sprites\cloud.png"
       inkscape:export-xdpi="90"
       inkscape:export-ydpi="90" />
    <path
       sodipodi:type="arc"
       style="fill:#ffffff;fill-opacity:1;stroke:none"
       id="path4692-78-3"
       sodipodi:cx="-357.85715"
       sodipodi:cy="119.42857"
       sodipodi:rx="77.85714"
       sodipodi:ry="85.714287"
       d="m -280.00001,119.42857 c 0,47.3387 -34.85783,85.71429 -77.85714,85.71429 -42.99931,0 -77.85714,-38.37559 -77.85714,-85.71429 0,-47.33869 34.85783,-85.714283 77.85714,-85.714283 42.99931,0 77.85714,38.375593 77.85714,85.714283 z"
       transform="matrix(0.87155956,0,0,0.64166667,734.85861,452.03195)"
       inkscape:export-filename="D:\WIP\GGJ2014\lui\Assets\Sprites\cloud.png"
       inkscape:export-xdpi="90"
       inkscape:export-ydpi="90" />
  </g>
</svg>
