<?xml version="1.0" encoding="UTF-8" standalone="no"?>
<!-- Created with Inkscape (http://www.inkscape.org/) -->

<svg
   xmlns:dc="http://purl.org/dc/elements/1.1/"
   xmlns:cc="http://creativecommons.org/ns#"
   xmlns:rdf="http://www.w3.org/1999/02/22-rdf-syntax-ns#"
   xmlns:svg="http://www.w3.org/2000/svg"
   xmlns="http://www.w3.org/2000/svg"
   xmlns:sodipodi="http://sodipodi.sourceforge.net/DTD/sodipodi-0.dtd"
   xmlns:inkscape="http://www.inkscape.org/namespaces/inkscape"
   width="500.00003"
   height="1250"
   id="svg4784"
   version="1.1"
   inkscape:version="0.48.2 r9819"
   sodipodi:docname="lui.svg"
   inkscape:export-filename="D:\WIP\GGJ2014\lui\Assets\Sprites\lui.png"
   inkscape:export-xdpi="90"
   inkscape:export-ydpi="90">
  <defs
     id="defs4786" />
  <sodipodi:namedview
     id="base"
     pagecolor="#ffffff"
     bordercolor="#666666"
     borderopacity="1.0"
     inkscape:pageopacity="0.0"
     inkscape:pageshadow="2"
     inkscape:zoom="0.12374369"
     inkscape:cx="-282.6176"
     inkscape:cy="837.30383"
     inkscape:document-units="px"
     inkscape:current-layer="layer1"
     showgrid="false"
     fit-margin-top="0"
     fit-margin-left="0"
     fit-margin-right="0"
     fit-margin-bottom="0"
     inkscape:window-width="907"
     inkscape:window-height="522"
     inkscape:window-x="200"
     inkscape:window-y="200"
     inkscape:window-maximized="0" />
  <metadata
     id="metadata4789">
    <rdf:RDF>
      <cc:Work
         rdf:about="">
        <dc:format>image/svg+xml</dc:format>
        <dc:type
           rdf:resource="http://purl.org/dc/dcmitype/StillImage" />
        <dc:title />
      </cc:Work>
    </rdf:RDF>
  </metadata>
  <g
     inkscape:label="Layer 1"
     inkscape:groupmode="layer"
     id="layer1"
     transform="translate(-202.49694,127.94071)">
    <rect
       style="fill:#000000;fill-opacity:1;stroke:none"
       id="rect3777"
       width="56.94986"
       height="571.90887"
       x="422.39517"
       y="169.45218"
       ry="0.065109149" />
    <rect
       style="fill:#000000;fill-opacity:1;stroke:none"
       id="rect3777-7"
       width="57.190895"
       height="455.59888"
       x="340.20804"
       y="-684.3645"
       ry="0.051867791"
       transform="matrix(0,1,-1,0,0,0)" />
    <rect
       style="fill:#000000;fill-opacity:1;stroke:none"
       id="rect3777-7-0"
       width="57.010216"
       height="457.04587"
       x="716.47906"
       y="380.31357"
       ry="0.052032523"
       transform="matrix(0.86510857,0.50158464,-0.49841702,0.86693741,0,0)" />
    <rect
       style="fill:#000000;fill-opacity:1;stroke:none"
       id="rect3777-7-0-4"
       width="57.010216"
       height="457.04587"
       x="-64.027283"
       y="841.31543"
       ry="0.052032523"
       transform="matrix(-0.86510857,0.50158464,0.49841702,0.86693741,0,0)" />
    <g
       id="g3903"
       transform="matrix(5.6949861,0,0,5.7190898,2814.2891,-746.03976)">
      <a
         id="a3891">
        <path
           sodipodi:type="arc"
           style="fill:#000000;fill-opacity:1;stroke:none"
           id="path3775"
           sodipodi:cx="-393.57144"
           sodipodi:cy="200.21933"
           sodipodi:rx="57.857143"
           sodipodi:ry="56.42857"
           d="m -335.7143,200.21933 c 0,31.16464 -25.90352,56.42857 -57.85714,56.42857 -31.95362,0 -57.85715,-25.26393 -57.85715,-56.42857 0,-31.16464 25.90353,-56.42857 57.85715,-56.42857 31.95362,0 57.85714,25.26393 57.85714,56.42857 z"
           transform="matrix(0.51851851,0,0,0.53164559,-210.21165,31.630748)" />
      </a>
      <a
         id="a3894">
        <path
           sodipodi:type="arc"
           style="fill:#ffffff;fill-opacity:1;stroke:none"
           id="path3775-8"
           sodipodi:cx="-393.57144"
           sodipodi:cy="200.21933"
           sodipodi:rx="57.857143"
           sodipodi:ry="56.42857"
           d="m -335.7143,200.21933 c 0,31.16464 -25.90352,56.42857 -57.85714,56.42857 -31.95362,0 -57.85715,-25.26393 -57.85715,-56.42857 0,-31.16464 25.90353,-56.42857 57.85715,-56.42857 31.95362,0 57.85714,25.26393 57.85714,56.42857 z"
           transform="matrix(0.43209876,0,0,0.44303799,-244.30259,49.166059)" />
      </a>
    </g>
  </g>
</svg>
