<?xml version="1.0" encoding="UTF-8" standalone="no"?>
<!-- Created with Inkscape (http://www.inkscape.org/) -->

<svg
   xmlns:dc="http://purl.org/dc/elements/1.1/"
   xmlns:cc="http://creativecommons.org/ns#"
   xmlns:rdf="http://www.w3.org/1999/02/22-rdf-syntax-ns#"
   xmlns:svg="http://www.w3.org/2000/svg"
   xmlns="http://www.w3.org/2000/svg"
   xmlns:sodipodi="http://sodipodi.sourceforge.net/DTD/sodipodi-0.dtd"
   xmlns:inkscape="http://www.inkscape.org/namespaces/inkscape"
   width="30.000021"
   height="74.683952"
   id="svg4784"
   version="1.1"
   inkscape:version="0.48.2 r9819"
   sodipodi:docname="lui.svg"
   inkscape:export-filename="D:\WIP\GGJ2014\lui\Assets\Sprites\lui.png"
   inkscape:export-xdpi="90"
   inkscape:export-ydpi="90">
  <defs
     id="defs4786" />
  <sodipodi:namedview
     id="base"
     pagecolor="#ffffff"
     bordercolor="#666666"
     borderopacity="1.0"
     inkscape:pageopacity="0.0"
     inkscape:pageshadow="2"
     inkscape:zoom="1.979899"
     inkscape:cx="11.398947"
     inkscape:cy="29.939832"
     inkscape:document-units="px"
     inkscape:current-layer="layer1"
     showgrid="false"
     fit-margin-top="0"
     fit-margin-left="0"
     fit-margin-right="0"
     fit-margin-bottom="0"
     inkscape:window-width="469"
     inkscape:window-height="403"
     inkscape:window-x="200"
     inkscape:window-y="200"
     inkscape:window-maximized="0" />
  <metadata
     id="metadata4789">
    <rdf:RDF>
      <cc:Work
         rdf:about="">
        <dc:format>image/svg+xml</dc:format>
        <dc:type
           rdf:resource="http://purl.org/dc/dcmitype/StillImage" />
        <dc:title></dc:title>
      </cc:Work>
    </rdf:RDF>
  </metadata>
  <g
     inkscape:label="Layer 1"
     inkscape:groupmode="layer"
     id="layer1"
     transform="translate(-359.99999,-495.0202)">
    <rect
       style="fill:#000000;fill-opacity:1;stroke:none"
       id="rect3777"
       width="3.4169939"
       height="34.169937"
       x="373.19388"
       y="512.78857"
       ry="0.0038900867" />
    <rect
       style="fill:#000000;fill-opacity:1;stroke:none"
       id="rect3777-7"
       width="3.4169939"
       height="27.335951"
       x="522.99078"
       y="-388.91205"
       ry="0.0031120693"
       transform="matrix(0,1,-1,0,0,0)" />
    <rect
       style="fill:#000000;fill-opacity:1;stroke:none"
       id="rect3777-7-0"
       width="3.4169939"
       height="27.335951"
       x="595.52246"
       y="284.14154"
       ry="0.0031120693"
       transform="matrix(0.8660254,0.5,-0.5,0.8660254,0,0)" />
    <rect
       style="fill:#000000;fill-opacity:1;stroke:none"
       id="rect3777-7-0-4"
       width="3.4169939"
       height="27.335951"
       x="-53.752502"
       y="659.56427"
       ry="0.0031120693"
       transform="matrix(-0.8660254,0.5,0.5,0.8660254,0,0)" />
    <g
       id="g3903"
       transform="matrix(0.34169939,0,0,0.34169939,516.70761,458.09054)">
      <a
         id="a3891">
        <path
           sodipodi:type="arc"
           style="fill:#000000;fill-opacity:1;stroke:none"
           id="path3775"
           sodipodi:cx="-393.57144"
           sodipodi:cy="200.21933"
           sodipodi:rx="57.857143"
           sodipodi:ry="56.42857"
           d="m -335.7143,200.21933 c 0,31.16464 -25.90352,56.42857 -57.85714,56.42857 -31.95362,0 -57.85715,-25.26393 -57.85715,-56.42857 0,-31.16464 25.90353,-56.42857 57.85715,-56.42857 31.95362,0 57.85714,25.26393 57.85714,56.42857 z"
           transform="matrix(0.51851851,0,0,0.53164559,-210.21165,31.630748)" />
      </a>
      <a
         id="a3894">
        <path
           sodipodi:type="arc"
           style="fill:#ffffff;fill-opacity:1;stroke:none"
           id="path3775-8"
           sodipodi:cx="-393.57144"
           sodipodi:cy="200.21933"
           sodipodi:rx="57.857143"
           sodipodi:ry="56.42857"
           d="m -335.7143,200.21933 c 0,31.16464 -25.90352,56.42857 -57.85714,56.42857 -31.95362,0 -57.85715,-25.26393 -57.85715,-56.42857 0,-31.16464 25.90353,-56.42857 57.85715,-56.42857 31.95362,0 57.85714,25.26393 57.85714,56.42857 z"
           transform="matrix(0.43209876,0,0,0.44303799,-244.30259,49.166059)" />
      </a>
    </g>
  </g>
</svg>
