<?xml version="1.0" encoding="UTF-8" standalone="no"?>
<!-- Created with Inkscape (http://www.inkscape.org/) -->

<svg
   xmlns:dc="http://purl.org/dc/elements/1.1/"
   xmlns:cc="http://creativecommons.org/ns#"
   xmlns:rdf="http://www.w3.org/1999/02/22-rdf-syntax-ns#"
   xmlns:svg="http://www.w3.org/2000/svg"
   xmlns="http://www.w3.org/2000/svg"
   xmlns:sodipodi="http://sodipodi.sourceforge.net/DTD/sodipodi-0.dtd"
   xmlns:inkscape="http://www.inkscape.org/namespaces/inkscape"
   width="1024"
   height="768"
   id="svg2"
   version="1.1"
   inkscape:version="0.48.2 r9819"
   sodipodi:docname="New document 1">
  <defs
     id="defs4" />
  <sodipodi:namedview
     id="base"
     pagecolor="#ffffff"
     bordercolor="#666666"
     borderopacity="1.0"
     inkscape:pageopacity="0.0"
     inkscape:pageshadow="2"
     inkscape:zoom="1"
     inkscape:cx="502.56935"
     inkscape:cy="315.71138"
     inkscape:document-units="px"
     inkscape:current-layer="layer1"
     showgrid="false"
     inkscape:window-width="1920"
     inkscape:window-height="1028"
     inkscape:window-x="-8"
     inkscape:window-y="-8"
     inkscape:window-maximized="1"
     width="1024px" />
  <metadata
     id="metadata7">
    <rdf:RDF>
      <cc:Work
         rdf:about="">
        <dc:format>image/svg+xml</dc:format>
        <dc:type
           rdf:resource="http://purl.org/dc/dcmitype/StillImage" />
        <dc:title></dc:title>
      </cc:Work>
    </rdf:RDF>
  </metadata>
  <g
     inkscape:label="Layer 1"
     inkscape:groupmode="layer"
     id="layer1"
     transform="translate(0,-284.36218)">
    <rect
       style="fill:#ffc82d;fill-opacity:1;stroke:none"
       id="rect3773"
       width="1024"
       height="768"
       x="0"
       y="284.36218"
       ry="0.0070209834" />
    <path
       sodipodi:type="arc"
       style="fill:#ffe8a7;fill-opacity:1;stroke:none"
       id="path2985"
       sodipodi:cx="392.14285"
       sodipodi:cy="533.79077"
       sodipodi:rx="469.28571"
       sodipodi:ry="254.28572"
       d="m 861.42856,533.79077 a 469.28571,254.28572 0 1 1 -938.571413,0 469.28571,254.28572 0 1 1 938.571413,0 z"
       transform="matrix(1.3917609,0,0,1.3395143,-43.172958,156.1316)" />
    <g
       id="g3909"
       transform="translate(1155.6145,343.45187)">
      <rect
         ry="0.0038900867"
         y="297.93021"
         x="-374.70795"
         height="34.169937"
         width="3.4169939"
         id="rect3777"
         style="fill:#000000;fill-opacity:1;stroke:none" />
      <rect
         transform="matrix(0,1,-1,0,0,0)"
         ry="0.0031120693"
         y="358.98978"
         x="308.13239"
         height="27.335951"
         width="3.4169939"
         id="rect3777-7"
         style="fill:#000000;fill-opacity:1;stroke:none" />
      <rect
         transform="matrix(0.8660254,0.5,-0.5,0.8660254,0,0)"
         ry="0.0031120693"
         y="472.01965"
         x="-159.60869"
         height="27.335951"
         width="3.4169939"
         id="rect3777-7-0"
         style="fill:#000000;fill-opacity:1;stroke:none" />
      <rect
         transform="matrix(-0.8660254,0.5,0.5,0.8660254,0,0)"
         ry="0.0031120693"
         y="99.540543"
         x="486.52029"
         height="27.335951"
         width="3.4169939"
         id="rect3777-7-0-4"
         style="fill:#000000;fill-opacity:1;stroke:none" />
      <g
         transform="matrix(0.34169939,0,0,0.34169939,-231.19422,243.23216)"
         id="g3903">
        <a
           id="a3891">
          <path
             transform="matrix(0.51851851,0,0,0.53164559,-210.21165,31.630748)"
             d="m -335.7143,200.21933 c 0,31.16464 -25.90352,56.42857 -57.85714,56.42857 -31.95362,0 -57.85715,-25.26393 -57.85715,-56.42857 0,-31.16464 25.90353,-56.42857 57.85715,-56.42857 31.95362,0 57.85714,25.26393 57.85714,56.42857 z"
             sodipodi:ry="56.42857"
             sodipodi:rx="57.857143"
             sodipodi:cy="200.21933"
             sodipodi:cx="-393.57144"
             id="path3775"
             style="fill:#000000;fill-opacity:1;stroke:none"
             sodipodi:type="arc" />
        </a>
        <a
           id="a3894">
          <path
             transform="matrix(0.43209876,0,0,0.44303799,-244.30259,49.166059)"
             d="m -335.7143,200.21933 c 0,31.16464 -25.90352,56.42857 -57.85714,56.42857 -31.95362,0 -57.85715,-25.26393 -57.85715,-56.42857 0,-31.16464 25.90353,-56.42857 57.85715,-56.42857 31.95362,0 57.85714,25.26393 57.85714,56.42857 z"
             sodipodi:ry="56.42857"
             sodipodi:rx="57.857143"
             sodipodi:cy="200.21933"
             sodipodi:cx="-393.57144"
             id="path3775-8"
             style="fill:#ffffff;fill-opacity:1;stroke:none"
             sodipodi:type="arc" />
        </a>
      </g>
    </g>
    <rect
       style="fill:#cca024;fill-opacity:1;stroke:none"
       id="rect3920-8"
       width="27.274122"
       height="143.44167"
       x="271.22595"
       y="705.87982"
       ry="0.0070209834" />
    <rect
       style="fill:#7f6435;fill-opacity:1;stroke:none"
       id="rect3920"
       width="148.49243"
       height="124.24876"
       x="211.1828"
       y="599.81384"
       ry="0.006081556" />
    <rect
       style="fill:#7f6416;fill-opacity:1;stroke:none"
       id="rect3940"
       width="17.930208"
       height="3.5355339"
       x="228.25386"
       y="614.2085"
       ry="0.0021285445" />
    <rect
       style="fill:#7f6416;fill-opacity:1;stroke:none"
       id="rect3940-2"
       width="17.930208"
       height="3.5355339"
       x="-632.10712"
       y="-246.22469"
       ry="0.0021285445"
       transform="matrix(0,-1,-1,0,0,0)" />
    <rect
       style="fill:#7f6416;fill-opacity:1;stroke:none"
       id="rect3940-7"
       width="17.930208"
       height="3.5355339"
       x="620.67987"
       y="-233.11298"
       ry="0.0021285445"
       transform="matrix(0,1,-1,0,0,0)" />
    <rect
       style="fill:#7f6416;fill-opacity:1;stroke:none"
       id="rect3940-2-1"
       width="17.930208"
       height="3.5355339"
       x="229.61807"
       y="-638.57849"
       ry="0.0021285445"
       transform="scale(1,-1)" />
    <rect
       style="fill:#7f6416;fill-opacity:1;stroke:none"
       id="rect3940-6"
       width="17.930208"
       height="3.5355339"
       x="276.73105"
       y="608.33691"
       ry="0.0021285445" />
    <rect
       style="fill:#7f6416;fill-opacity:1;stroke:none"
       id="rect3940-2-14"
       width="17.930208"
       height="3.5355339"
       x="-626.23553"
       y="-294.70187"
       ry="0.0021285445"
       transform="matrix(0,-1,-1,0,0,0)" />
    <rect
       style="fill:#7f6416;fill-opacity:1;stroke:none"
       id="rect3940-7-2"
       width="17.930208"
       height="3.5355339"
       x="614.80829"
       y="-281.59018"
       ry="0.0021285445"
       transform="matrix(0,1,-1,0,0,0)" />
    <rect
       style="fill:#7f6416;fill-opacity:1;stroke:none"
       id="rect3940-2-1-3"
       width="17.930208"
       height="3.5355339"
       x="278.09528"
       y="-632.70691"
       ry="0.0021285445"
       transform="scale(1,-1)" />
    <rect
       style="fill:#7f6416;fill-opacity:1;stroke:none"
       id="rect3940-22"
       width="17.930208"
       height="3.5355339"
       x="255.51784"
       y="634.34839"
       ry="0.0021285445" />
    <rect
       style="fill:#7f6416;fill-opacity:1;stroke:none"
       id="rect3940-2-16"
       width="17.930208"
       height="3.5355339"
       x="-652.24701"
       y="-273.48865"
       ry="0.0021285445"
       transform="matrix(0,-1,-1,0,0,0)" />
    <rect
       style="fill:#7f6416;fill-opacity:1;stroke:none"
       id="rect3940-7-8"
       width="17.930208"
       height="3.5355339"
       x="640.81976"
       y="-260.37692"
       ry="0.0021285445"
       transform="matrix(0,1,-1,0,0,0)" />
    <rect
       style="fill:#7f6416;fill-opacity:1;stroke:none"
       id="rect3940-2-1-5"
       width="17.930208"
       height="3.5355339"
       x="256.88202"
       y="-658.71838"
       ry="0.0021285445"
       transform="scale(1,-1)" />
    <rect
       style="fill:#7f6416;fill-opacity:1;stroke:none"
       id="rect3940-76"
       width="17.930208"
       height="3.5355339"
       x="229.75894"
       y="652.78363"
       ry="0.0021285445" />
    <rect
       style="fill:#7f6416;fill-opacity:1;stroke:none"
       id="rect3940-2-18"
       width="17.930208"
       height="3.5355339"
       x="-670.68225"
       y="-247.72977"
       ry="0.0021285445"
       transform="matrix(0,-1,-1,0,0,0)" />
    <rect
       style="fill:#7f6416;fill-opacity:1;stroke:none"
       id="rect3940-7-9"
       width="17.930208"
       height="3.5355339"
       x="659.255"
       y="-234.61807"
       ry="0.0021285445"
       transform="matrix(0,1,-1,0,0,0)" />
    <rect
       style="fill:#7f6416;fill-opacity:1;stroke:none"
       id="rect3940-2-1-2"
       width="17.930208"
       height="3.5355339"
       x="231.12317"
       y="-677.15363"
       ry="0.0021285445"
       transform="scale(1,-1)" />
    <rect
       style="fill:#7f6416;fill-opacity:1;stroke:none"
       id="rect3940-79"
       width="17.930208"
       height="3.5355339"
       x="255.26529"
       y="682.83569"
       ry="0.0021285445" />
    <rect
       style="fill:#7f6416;fill-opacity:1;stroke:none"
       id="rect3940-2-5"
       width="17.930208"
       height="3.5355339"
       x="-700.73431"
       y="-273.23611"
       ry="0.0021285445"
       transform="matrix(0,-1,-1,0,0,0)" />
    <rect
       style="fill:#7f6416;fill-opacity:1;stroke:none"
       id="rect3940-7-4"
       width="17.930208"
       height="3.5355339"
       x="689.30707"
       y="-260.12442"
       ry="0.0021285445"
       transform="matrix(0,1,-1,0,0,0)" />
    <rect
       style="fill:#7f6416;fill-opacity:1;stroke:none"
       id="rect3940-2-1-31"
       width="17.930208"
       height="3.5355339"
       x="256.62952"
       y="-707.20569"
       ry="0.0021285445"
       transform="scale(1,-1)" />
    <rect
       style="fill:#7f6416;fill-opacity:1;stroke:none"
       id="rect3940-23"
       width="17.930208"
       height="3.5355339"
       x="286.83255"
       y="658.59204"
       ry="0.0021285445" />
    <rect
       style="fill:#7f6416;fill-opacity:1;stroke:none"
       id="rect3940-2-3"
       width="17.930208"
       height="3.5355339"
       x="-676.49066"
       y="-304.80338"
       ry="0.0021285445"
       transform="matrix(0,-1,-1,0,0,0)" />
    <rect
       style="fill:#7f6416;fill-opacity:1;stroke:none"
       id="rect3940-7-41"
       width="17.930208"
       height="3.5355339"
       x="665.06342"
       y="-291.69168"
       ry="0.0021285445"
       transform="matrix(0,1,-1,0,0,0)" />
    <rect
       style="fill:#7f6416;fill-opacity:1;stroke:none"
       id="rect3940-2-1-1"
       width="17.930208"
       height="3.5355339"
       x="288.19678"
       y="-682.96204"
       ry="0.0021285445"
       transform="scale(1,-1)" />
    <rect
       style="fill:#7f6416;fill-opacity:1;stroke:none"
       id="rect3940-3"
       width="17.930208"
       height="3.5355339"
       x="316.37952"
       y="620.71136"
       ry="0.0021285445" />
    <rect
       style="fill:#7f6416;fill-opacity:1;stroke:none"
       id="rect3940-2-8"
       width="17.930208"
       height="3.5355339"
       x="-638.60999"
       y="-334.35034"
       ry="0.0021285445"
       transform="matrix(0,-1,-1,0,0,0)" />
    <rect
       style="fill:#7f6416;fill-opacity:1;stroke:none"
       id="rect3940-7-7"
       width="17.930208"
       height="3.5355339"
       x="627.18274"
       y="-321.23865"
       ry="0.0021285445"
       transform="matrix(0,1,-1,0,0,0)" />
    <rect
       style="fill:#7f6416;fill-opacity:1;stroke:none"
       id="rect3940-2-1-4"
       width="17.930208"
       height="3.5355339"
       x="317.74374"
       y="-645.08136"
       ry="0.0021285445"
       transform="scale(1,-1)" />
    <rect
       style="fill:#7f6416;fill-opacity:1;stroke:none"
       id="rect3940-27"
       width="17.930208"
       height="3.5355339"
       x="329.00644"
       y="688.64404"
       ry="0.0021285445" />
    <rect
       style="fill:#7f6416;fill-opacity:1;stroke:none"
       id="rect3940-2-7"
       width="17.930208"
       height="3.5355339"
       x="-706.54266"
       y="-346.97726"
       ry="0.0021285445"
       transform="matrix(0,-1,-1,0,0,0)" />
    <rect
       style="fill:#7f6416;fill-opacity:1;stroke:none"
       id="rect3940-7-93"
       width="17.930208"
       height="3.5355339"
       x="695.11542"
       y="-333.86554"
       ry="0.0021285445"
       transform="matrix(0,1,-1,0,0,0)" />
    <rect
       style="fill:#7f6416;fill-opacity:1;stroke:none"
       id="rect3940-2-1-19"
       width="17.930208"
       height="3.5355339"
       x="330.37064"
       y="-713.01404"
       ry="0.0021285445"
       transform="scale(1,-1)" />
    <rect
       style="fill:#7f6416;fill-opacity:1;stroke:none"
       id="rect3940-8"
       width="17.930208"
       height="3.5355339"
       x="333.04706"
       y="651.01593"
       ry="0.0021285445" />
    <rect
       style="fill:#7f6416;fill-opacity:1;stroke:none"
       id="rect3940-2-6"
       width="17.930208"
       height="3.5355339"
       x="-668.91455"
       y="-351.01788"
       ry="0.0021285445"
       transform="matrix(0,-1,-1,0,0,0)" />
    <rect
       style="fill:#7f6416;fill-opacity:1;stroke:none"
       id="rect3940-7-5"
       width="17.930208"
       height="3.5355339"
       x="657.4873"
       y="-337.90616"
       ry="0.0021285445"
       transform="matrix(0,1,-1,0,0,0)" />
    <rect
       style="fill:#7f6416;fill-opacity:1;stroke:none"
       id="rect3940-2-1-0"
       width="17.930208"
       height="3.5355339"
       x="334.41125"
       y="-675.38593"
       ry="0.0021285445"
       transform="scale(1,-1)" />
    <rect
       style="fill:#7f6416;fill-opacity:1;stroke:none"
       id="rect3940-28"
       width="17.930208"
       height="3.5355339"
       x="220.9201"
       y="691.422"
       ry="0.0021285445" />
    <rect
       style="fill:#7f6416;fill-opacity:1;stroke:none"
       id="rect3940-2-60"
       width="17.930208"
       height="3.5355339"
       x="-709.32062"
       y="-238.89093"
       ry="0.0021285445"
       transform="matrix(0,-1,-1,0,0,0)" />
    <rect
       style="fill:#7f6416;fill-opacity:1;stroke:none"
       id="rect3940-7-24"
       width="17.930208"
       height="3.5355339"
       x="697.89337"
       y="-225.77924"
       ry="0.0021285445"
       transform="matrix(0,1,-1,0,0,0)" />
    <rect
       style="fill:#7f6416;fill-opacity:1;stroke:none"
       id="rect3940-2-1-8"
       width="17.930208"
       height="3.5355339"
       x="222.28433"
       y="-715.79199"
       ry="0.0021285445"
       transform="scale(1,-1)" />
    <rect
       style="fill:#7f6416;fill-opacity:1;stroke:none"
       id="rect3940-65"
       width="17.930208"
       height="3.5355339"
       x="295.41888"
       y="691.42206"
       ry="0.0021285445" />
    <rect
       style="fill:#7f6416;fill-opacity:1;stroke:none"
       id="rect3940-2-0"
       width="17.930208"
       height="3.5355339"
       x="-709.32068"
       y="-313.38971"
       ry="0.0021285445"
       transform="matrix(0,-1,-1,0,0,0)" />
    <rect
       style="fill:#7f6416;fill-opacity:1;stroke:none"
       id="rect3940-7-90"
       width="17.930208"
       height="3.5355339"
       x="697.89343"
       y="-300.27798"
       ry="0.0021285445"
       transform="matrix(0,1,-1,0,0,0)" />
    <rect
       style="fill:#7f6416;fill-opacity:1;stroke:none"
       id="rect3940-2-1-06"
       width="17.930208"
       height="3.5355339"
       x="296.78308"
       y="-715.79205"
       ry="0.0021285445"
       transform="scale(1,-1)" />
    <rect
       style="fill:#7f6c35;fill-opacity:1;stroke:none"
       id="rect4208"
       width="1.2878789"
       height="10"
       x="275.96106"
       y="729.02545"
       ry="0.00063853082" />
    <rect
       style="fill:#7f6c35;fill-opacity:1;stroke:none"
       id="rect4208-1"
       width="1.2878789"
       height="10"
       x="290.15375"
       y="726.38623"
       ry="0.00063853082" />
    <rect
       style="fill:#7f6c35;fill-opacity:1;stroke:none"
       id="rect4208-3"
       width="1.2878789"
       height="10"
       x="294.38373"
       y="742.92743"
       ry="0.00063853082" />
    <rect
       style="fill:#7f6c35;fill-opacity:1;stroke:none"
       id="rect4208-8"
       width="1.2878789"
       height="10"
       x="284.21906"
       y="738.25549"
       ry="0.00063853082" />
    <rect
       style="fill:#7f6c35;fill-opacity:1;stroke:none"
       id="rect4208-9"
       width="1.2878789"
       height="10"
       x="274.43323"
       y="746.58923"
       ry="0.00063853082" />
    <rect
       style="fill:#7f6c35;fill-opacity:1;stroke:none"
       id="rect4208-34"
       width="1.2878789"
       height="10"
       x="292.55283"
       y="757.82721"
       ry="0.00063853082" />
    <rect
       style="fill:#7f6c35;fill-opacity:1;stroke:none"
       id="rect4208-4"
       width="1.2878789"
       height="10"
       x="281.88312"
       y="757.89026"
       ry="0.00063853082" />
    <rect
       style="fill:#7f6c35;fill-opacity:1;stroke:none"
       id="rect4208-0"
       width="1.2878789"
       height="10"
       x="275.56961"
       y="769.3808"
       ry="0.00063853082" />
    <rect
       style="fill:#7f6c35;fill-opacity:1;stroke:none"
       id="rect4208-66"
       width="1.2878789"
       height="10"
       x="292.74225"
       y="775.88367"
       ry="0.00063853082" />
    <rect
       style="fill:#7f6c35;fill-opacity:1;stroke:none"
       id="rect4208-18"
       width="1.2878789"
       height="10"
       x="282.95639"
       y="783.14417"
       ry="0.00063853082" />
    <rect
       style="fill:#7f6c35;fill-opacity:1;stroke:none"
       id="rect4208-49"
       width="1.2878789"
       height="10"
       x="289.90121"
       y="792.55121"
       ry="0.00063853082" />
    <rect
       style="fill:#7f6c35;fill-opacity:1;stroke:none"
       id="rect4208-63"
       width="1.2878789"
       height="10"
       x="276.0116"
       y="798.67523"
       ry="0.00063853082" />
    <rect
       style="fill:#7f6c35;fill-opacity:1;stroke:none"
       id="rect4208-7"
       width="1.2878789"
       height="10"
       x="284.2822"
       y="807.38788"
       ry="0.00063853082" />
    <rect
       style="fill:#7f6c35;fill-opacity:1;stroke:none"
       id="rect4208-88"
       width="1.2878789"
       height="10"
       x="291.6058"
       y="817.3631"
       ry="0.00063853082" />
    <rect
       style="fill:#7f6c35;fill-opacity:1;stroke:none"
       id="rect4208-2"
       width="1.2878789"
       height="10"
       x="281.37802"
       y="823.67651"
       ry="0.00063853082" />
    <rect
       style="fill:#7f6c35;fill-opacity:1;stroke:none"
       id="rect4208-91"
       width="1.2878789"
       height="10"
       x="289.39612"
       y="834.28314"
       ry="0.00063853082" />
    <rect
       style="fill:#7f6c35;fill-opacity:1;stroke:none"
       id="rect4208-35"
       width="1.2878789"
       height="10"
       x="275.75903"
       y="836.61908"
       ry="0.00063853082" />
    <path
       sodipodi:type="arc"
       style="fill:#ffbe87;fill-opacity:1;stroke:none"
       id="path4352"
       sodipodi:cx="-265"
       sodipodi:cy="247.46428"
       sodipodi:rx="20.714285"
       sodipodi:ry="19.821428"
       d="m -244.28572,247.46428 a 20.714285,19.821428 0 1 1 -41.42856,0 20.714285,19.821428 0 1 1 41.42856,0 z"
       transform="translate(309.89636,482.76795)" />
    <path
       sodipodi:type="arc"
       style="fill:#ffbe87;fill-opacity:1;stroke:none"
       id="path4352-9"
       sodipodi:cx="-265"
       sodipodi:cy="247.46428"
       sodipodi:rx="20.714285"
       sodipodi:ry="19.821428"
       d="m -244.28572,247.46428 a 20.714285,19.821428 0 1 1 -41.42856,0 20.714285,19.821428 0 1 1 41.42856,0 z"
       transform="translate(321.18208,487.80367)" />
    <path
       sodipodi:type="arc"
       style="fill:#ffbe87;fill-opacity:1;stroke:none"
       id="path4352-8"
       sodipodi:cx="-265"
       sodipodi:cy="247.46428"
       sodipodi:rx="20.714285"
       sodipodi:ry="19.821428"
       d="m -244.28572,247.46428 a 20.714285,19.821428 0 1 1 -41.42856,0 20.714285,19.821428 0 1 1 41.42856,0 z"
       transform="translate(309.53922,498.66082)" />
    <path
       sodipodi:type="arc"
       style="fill:#ffbe87;fill-opacity:1;stroke:none"
       id="path4352-4"
       sodipodi:cx="-265"
       sodipodi:cy="247.46428"
       sodipodi:rx="20.714285"
       sodipodi:ry="19.821428"
       d="m -244.28572,247.46428 a 20.714285,19.821428 0 1 1 -41.42856,0 20.714285,19.821428 0 1 1 41.42856,0 z"
       transform="translate(320.11065,500.30367)" />
    <path
       sodipodi:type="arc"
       style="fill:#ffbe87;fill-opacity:1;stroke:none"
       id="path4352-0"
       sodipodi:cx="-265"
       sodipodi:cy="247.46428"
       sodipodi:rx="20.714285"
       sodipodi:ry="19.821428"
       d="m -244.28572,247.46428 a 20.714285,19.821428 0 1 1 -41.42856,0 20.714285,19.821428 0 1 1 41.42856,0 z"
       transform="translate(304.61065,491.08938)" />
    <rect
       style="fill:#cca024;fill-opacity:1;stroke:none"
       id="rect3920-8-7"
       width="38.978809"
       height="204.99963"
       x="906.31451"
       y="855.80017"
       ry="0.010034038" />
    <rect
       style="fill:#7f6435;fill-opacity:1;stroke:none"
       id="rect3920-2"
       width="212.21794"
       height="177.5701"
       x="820.50385"
       y="704.216"
       ry="0.0086914552" />
    <rect
       style="fill:#7f6416;fill-opacity:1;stroke:none"
       id="rect3940-60"
       width="25.624954"
       height="5.0528078"
       x="844.90094"
       y="724.78815"
       ry="0.003042009" />
    <rect
       style="fill:#7f6416;fill-opacity:1;stroke:none"
       id="rect3940-2-165"
       width="25.624954"
       height="5.0528078"
       x="-750.36792"
       y="-870.58392"
       ry="0.003042009"
       transform="matrix(0,-1,-1,0,0,0)" />
    <rect
       style="fill:#7f6416;fill-opacity:1;stroke:none"
       id="rect3940-7-75"
       width="25.624954"
       height="5.0528078"
       x="734.03668"
       y="-851.84534"
       ry="0.003042009"
       transform="matrix(0,1,-1,0,0,0)" />
    <rect
       style="fill:#7f6416;fill-opacity:1;stroke:none"
       id="rect3940-2-1-41"
       width="25.624954"
       height="5.0528078"
       x="846.85059"
       y="-759.61652"
       ry="0.003042009"
       transform="scale(1,-1)" />
    <rect
       style="fill:#7f6416;fill-opacity:1;stroke:none"
       id="rect3940-6-2"
       width="25.624954"
       height="5.0528078"
       x="914.18207"
       y="716.39673"
       ry="0.003042009" />
    <rect
       style="fill:#7f6416;fill-opacity:1;stroke:none"
       id="rect3940-2-14-0"
       width="25.624954"
       height="5.0528078"
       x="-741.97656"
       y="-939.86505"
       ry="0.003042009"
       transform="matrix(0,-1,-1,0,0,0)" />
    <rect
       style="fill:#7f6416;fill-opacity:1;stroke:none"
       id="rect3940-7-2-0"
       width="25.624954"
       height="5.0528078"
       x="725.64532"
       y="-921.12653"
       ry="0.003042009"
       transform="matrix(0,1,-1,0,0,0)" />
    <rect
       style="fill:#7f6416;fill-opacity:1;stroke:none"
       id="rect3940-2-1-3-1"
       width="25.624954"
       height="5.0528078"
       x="916.13177"
       y="-751.2251"
       ry="0.003042009"
       transform="scale(1,-1)" />
    <rect
       style="fill:#7f6416;fill-opacity:1;stroke:none"
       id="rect3940-22-4"
       width="25.624954"
       height="5.0528078"
       x="883.86523"
       y="753.57104"
       ry="0.003042009" />
    <rect
       style="fill:#7f6416;fill-opacity:1;stroke:none"
       id="rect3940-2-16-6"
       width="25.624954"
       height="5.0528078"
       x="-779.15088"
       y="-909.54822"
       ry="0.003042009"
       transform="matrix(0,-1,-1,0,0,0)" />
    <rect
       style="fill:#7f6416;fill-opacity:1;stroke:none"
       id="rect3940-7-8-0"
       width="25.624954"
       height="5.0528078"
       x="762.81964"
       y="-890.80957"
       ry="0.003042009"
       transform="matrix(0,1,-1,0,0,0)" />
    <rect
       style="fill:#7f6416;fill-opacity:1;stroke:none"
       id="rect3940-2-1-5-7"
       width="25.624954"
       height="5.0528078"
       x="885.81488"
       y="-788.39941"
       ry="0.003042009"
       transform="scale(1,-1)" />
    <rect
       style="fill:#7f6416;fill-opacity:1;stroke:none"
       id="rect3940-76-1"
       width="25.624954"
       height="5.0528078"
       x="847.05188"
       y="779.91779"
       ry="0.003042009" />
    <rect
       style="fill:#7f6416;fill-opacity:1;stroke:none"
       id="rect3940-2-18-7"
       width="25.624954"
       height="5.0528078"
       x="-805.49756"
       y="-872.73486"
       ry="0.003042009"
       transform="matrix(0,-1,-1,0,0,0)" />
    <rect
       style="fill:#7f6416;fill-opacity:1;stroke:none"
       id="rect3940-7-9-7"
       width="25.624954"
       height="5.0528078"
       x="789.16632"
       y="-853.99634"
       ry="0.003042009"
       transform="matrix(0,1,-1,0,0,0)" />
    <rect
       style="fill:#7f6416;fill-opacity:1;stroke:none"
       id="rect3940-2-1-2-7"
       width="25.624954"
       height="5.0528078"
       x="849.00165"
       y="-814.74615"
       ry="0.003042009"
       transform="scale(1,-1)" />
    <rect
       style="fill:#7f6416;fill-opacity:1;stroke:none"
       id="rect3940-79-7"
       width="25.624954"
       height="5.0528078"
       x="883.50427"
       y="822.8667"
       ry="0.003042009" />
    <rect
       style="fill:#7f6416;fill-opacity:1;stroke:none"
       id="rect3940-2-5-3"
       width="25.624954"
       height="5.0528078"
       x="-848.44647"
       y="-909.18732"
       ry="0.003042009"
       transform="matrix(0,-1,-1,0,0,0)" />
    <rect
       style="fill:#7f6416;fill-opacity:1;stroke:none"
       id="rect3940-7-4-3"
       width="25.624954"
       height="5.0528078"
       x="832.11523"
       y="-890.44873"
       ry="0.003042009"
       transform="matrix(0,1,-1,0,0,0)" />
    <rect
       style="fill:#7f6416;fill-opacity:1;stroke:none"
       id="rect3940-2-1-31-5"
       width="25.624954"
       height="5.0528078"
       x="885.45404"
       y="-857.69507"
       ry="0.003042009"
       transform="scale(1,-1)" />
    <rect
       style="fill:#7f6416;fill-opacity:1;stroke:none"
       id="rect3940-23-9"
       width="25.624954"
       height="5.0528078"
       x="928.61865"
       y="788.21887"
       ry="0.003042009" />
    <rect
       style="fill:#7f6416;fill-opacity:1;stroke:none"
       id="rect3940-2-3-9"
       width="25.624954"
       height="5.0528078"
       x="-813.79865"
       y="-954.30164"
       ry="0.003042009"
       transform="matrix(0,-1,-1,0,0,0)" />
    <rect
       style="fill:#7f6416;fill-opacity:1;stroke:none"
       id="rect3940-7-41-8"
       width="25.624954"
       height="5.0528078"
       x="797.46741"
       y="-935.56305"
       ry="0.003042009"
       transform="matrix(0,1,-1,0,0,0)" />
    <rect
       style="fill:#7f6416;fill-opacity:1;stroke:none"
       id="rect3940-2-1-1-1"
       width="25.624954"
       height="5.0528078"
       x="930.56836"
       y="-823.04724"
       ry="0.003042009"
       transform="scale(1,-1)" />
    <rect
       style="fill:#7f6416;fill-opacity:1;stroke:none"
       id="rect3940-3-8"
       width="25.624954"
       height="5.0528078"
       x="970.8457"
       y="734.08173"
       ry="0.003042009" />
    <rect
       style="fill:#7f6416;fill-opacity:1;stroke:none"
       id="rect3940-2-8-2"
       width="25.624954"
       height="5.0528078"
       x="-759.6615"
       y="-996.52881"
       ry="0.003042009"
       transform="matrix(0,-1,-1,0,0,0)" />
    <rect
       style="fill:#7f6416;fill-opacity:1;stroke:none"
       id="rect3940-7-7-6"
       width="25.624954"
       height="5.0528078"
       x="743.33026"
       y="-977.79016"
       ry="0.003042009"
       transform="matrix(0,1,-1,0,0,0)" />
    <rect
       style="fill:#7f6416;fill-opacity:1;stroke:none"
       id="rect3940-2-1-4-6"
       width="25.624954"
       height="5.0528078"
       x="972.79535"
       y="-768.9101"
       ry="0.003042009"
       transform="scale(1,-1)" />
    <rect
       style="fill:#7f6416;fill-opacity:1;stroke:none"
       id="rect3940-27-0"
       width="25.624954"
       height="5.0528078"
       x="988.89142"
       y="831.16766"
       ry="0.003042009" />
    <rect
       style="fill:#7f6416;fill-opacity:1;stroke:none"
       id="rect3940-2-7-3"
       width="25.624954"
       height="5.0528078"
       x="-856.7475"
       y="-1014.5745"
       ry="0.003042009"
       transform="matrix(0,-1,-1,0,0,0)" />
    <rect
       style="fill:#7f6416;fill-opacity:1;stroke:none"
       id="rect3940-7-93-8"
       width="25.624954"
       height="5.0528078"
       x="840.41626"
       y="-995.83588"
       ry="0.003042009"
       transform="matrix(0,1,-1,0,0,0)" />
    <rect
       style="fill:#7f6416;fill-opacity:1;stroke:none"
       id="rect3940-2-1-19-0"
       width="25.624954"
       height="5.0528078"
       x="990.84119"
       y="-865.99603"
       ry="0.003042009"
       transform="scale(1,-1)" />
    <rect
       style="fill:#7f6416;fill-opacity:1;stroke:none"
       id="rect3940-8-1"
       width="25.624954"
       height="5.0528078"
       x="994.66614"
       y="777.39148"
       ry="0.003042009" />
    <rect
       style="fill:#7f6416;fill-opacity:1;stroke:none"
       id="rect3940-2-6-2"
       width="25.624954"
       height="5.0528078"
       x="-802.97125"
       y="-1020.3492"
       ry="0.003042009"
       transform="matrix(0,-1,-1,0,0,0)" />
    <rect
       style="fill:#7f6416;fill-opacity:1;stroke:none"
       id="rect3940-7-5-5"
       width="25.624954"
       height="5.0528078"
       x="786.64001"
       y="-1001.6105"
       ry="0.003042009"
       transform="matrix(0,1,-1,0,0,0)" />
    <rect
       style="fill:#7f6416;fill-opacity:1;stroke:none"
       id="rect3940-2-1-0-0"
       width="25.624954"
       height="5.0528078"
       x="996.61578"
       y="-812.21985"
       ry="0.003042009"
       transform="scale(1,-1)" />
    <rect
       style="fill:#7f6416;fill-opacity:1;stroke:none"
       id="rect3940-28-9"
       width="25.624954"
       height="5.0528078"
       x="834.41992"
       y="835.13776"
       ry="0.003042009" />
    <rect
       style="fill:#7f6416;fill-opacity:1;stroke:none"
       id="rect3940-2-60-4"
       width="25.624954"
       height="5.0528078"
       x="-860.71759"
       y="-860.10291"
       ry="0.003042009"
       transform="matrix(0,-1,-1,0,0,0)" />
    <rect
       style="fill:#7f6416;fill-opacity:1;stroke:none"
       id="rect3940-7-24-7"
       width="25.624954"
       height="5.0528078"
       x="844.38635"
       y="-841.36432"
       ry="0.003042009"
       transform="matrix(0,1,-1,0,0,0)" />
    <rect
       style="fill:#7f6416;fill-opacity:1;stroke:none"
       id="rect3940-2-1-8-8"
       width="25.624954"
       height="5.0528078"
       x="836.36957"
       y="-869.96619"
       ry="0.003042009"
       transform="scale(1,-1)" />
    <rect
       style="fill:#7f6416;fill-opacity:1;stroke:none"
       id="rect3940-65-3"
       width="25.624954"
       height="5.0528078"
       x="940.88983"
       y="835.13788"
       ry="0.003042009" />
    <rect
       style="fill:#7f6416;fill-opacity:1;stroke:none"
       id="rect3940-2-0-5"
       width="25.624954"
       height="5.0528078"
       x="-860.71771"
       y="-966.57281"
       ry="0.003042009"
       transform="matrix(0,-1,-1,0,0,0)" />
    <rect
       style="fill:#7f6416;fill-opacity:1;stroke:none"
       id="rect3940-7-90-1"
       width="25.624954"
       height="5.0528078"
       x="844.38641"
       y="-947.83417"
       ry="0.003042009"
       transform="matrix(0,1,-1,0,0,0)" />
    <rect
       style="fill:#7f6416;fill-opacity:1;stroke:none"
       id="rect3940-2-1-06-2"
       width="25.624954"
       height="5.0528078"
       x="942.83948"
       y="-869.96625"
       ry="0.003042009"
       transform="scale(1,-1)" />
    <rect
       style="fill:#7f6c35;fill-opacity:1;stroke:none"
       id="rect4208-01"
       width="1.8405719"
       height="14.291498"
       x="913.08167"
       y="888.87878"
       ry="0.00091255625" />
    <rect
       style="fill:#7f6c35;fill-opacity:1;stroke:none"
       id="rect4208-1-6"
       width="1.8405719"
       height="14.291498"
       x="933.36517"
       y="885.10693"
       ry="0.00091255625" />
    <rect
       style="fill:#7f6c35;fill-opacity:1;stroke:none"
       id="rect4208-3-4"
       width="1.8405719"
       height="14.291498"
       x="939.41046"
       y="908.74677"
       ry="0.00091255625" />
    <rect
       style="fill:#7f6c35;fill-opacity:1;stroke:none"
       id="rect4208-8-0"
       width="1.8405719"
       height="14.291498"
       x="924.88361"
       y="902.06989"
       ry="0.00091255625" />
    <rect
       style="fill:#7f6c35;fill-opacity:1;stroke:none"
       id="rect4208-9-6"
       width="1.8405719"
       height="14.291498"
       x="910.89819"
       y="913.98004"
       ry="0.00091255625" />
    <rect
       style="fill:#7f6c35;fill-opacity:1;stroke:none"
       id="rect4208-34-1"
       width="1.8405719"
       height="14.291498"
       x="936.79376"
       y="930.04077"
       ry="0.00091255625" />
    <rect
       style="fill:#7f6c35;fill-opacity:1;stroke:none"
       id="rect4208-4-8"
       width="1.8405719"
       height="14.291498"
       x="921.54517"
       y="930.13092"
       ry="0.00091255625" />
    <rect
       style="fill:#7f6c35;fill-opacity:1;stroke:none"
       id="rect4208-0-9"
       width="1.8405719"
       height="14.291498"
       x="912.52222"
       y="946.55261"
       ry="0.00091255625" />
    <rect
       style="fill:#7f6c35;fill-opacity:1;stroke:none"
       id="rect4208-66-8"
       width="1.8405719"
       height="14.291498"
       x="937.06451"
       y="955.84619"
       ry="0.00091255625" />
    <rect
       style="fill:#7f6c35;fill-opacity:1;stroke:none"
       id="rect4208-18-4"
       width="1.8405719"
       height="14.291498"
       x="923.07904"
       y="966.22253"
       ry="0.00091255625" />
    <rect
       style="fill:#7f6c35;fill-opacity:1;stroke:none"
       id="rect4208-49-1"
       width="1.8405719"
       height="14.291498"
       x="933.00421"
       y="979.66669"
       ry="0.00091255625" />
    <rect
       style="fill:#7f6c35;fill-opacity:1;stroke:none"
       id="rect4208-63-4"
       width="1.8405719"
       height="14.291498"
       x="913.15393"
       y="988.4187"
       ry="0.00091255625" />
    <rect
       style="fill:#7f6c35;fill-opacity:1;stroke:none"
       id="rect4208-7-3"
       width="1.8405719"
       height="14.291498"
       x="924.97382"
       y="1000.8704"
       ry="0.00091255625" />
    <rect
       style="fill:#7f6c35;fill-opacity:1;stroke:none"
       id="rect4208-88-9"
       width="1.8405719"
       height="14.291498"
       x="935.44031"
       y="1015.1265"
       ry="0.00091255625" />
    <rect
       style="fill:#7f6c35;fill-opacity:1;stroke:none"
       id="rect4208-2-8"
       width="1.8405719"
       height="14.291498"
       x="920.8233"
       y="1024.1492"
       ry="0.00091255625" />
    <rect
       style="fill:#7f6c35;fill-opacity:1;stroke:none"
       id="rect4208-91-8"
       width="1.8405719"
       height="14.291498"
       x="932.28241"
       y="1039.3077"
       ry="0.00091255625" />
    <rect
       style="fill:#7f6c35;fill-opacity:1;stroke:none"
       id="rect4208-35-0"
       width="1.8405719"
       height="14.291498"
       x="912.79297"
       y="1042.6461"
       ry="0.00091255625" />
    <path
       sodipodi:type="arc"
       style="fill:#ffffff;fill-opacity:1;stroke:none"
       id="path4692-8"
       sodipodi:cx="-357.85715"
       sodipodi:cy="119.42857"
       sodipodi:rx="77.85714"
       sodipodi:ry="85.714287"
       d="m -280.00001,119.42857 a 77.85714,85.714287 0 1 1 -155.71428,0 77.85714,85.714287 0 1 1 155.71428,0 z"
       transform="matrix(0.73394487,0,0,0.64166667,416.21885,355.72884)" />
    <path
       sodipodi:type="arc"
       style="fill:#ffffff;fill-opacity:1;stroke:none"
       id="path4692-7"
       sodipodi:cx="-357.85715"
       sodipodi:cy="119.42857"
       sodipodi:rx="77.85714"
       sodipodi:ry="85.714287"
       d="m -280.00001,119.42857 a 77.85714,85.714287 0 1 1 -155.71428,0 77.85714,85.714287 0 1 1 155.71428,0 z"
       transform="matrix(0.72477056,0,0,0.64166667,485.07861,404.30028)" />
    <path
       sodipodi:type="arc"
       style="fill:#ffffff;fill-opacity:1;stroke:none"
       id="path4692-78"
       sodipodi:cx="-357.85715"
       sodipodi:cy="119.42857"
       sodipodi:rx="77.85714"
       sodipodi:ry="85.714287"
       d="m -280.00001,119.42857 a 77.85714,85.714287 0 1 1 -155.71428,0 77.85714,85.714287 0 1 1 155.71428,0 z"
       transform="matrix(0.87155956,0,0,0.64166667,530.46525,312.8717)" />
    <path
       sodipodi:type="arc"
       style="fill:#fff32d;fill-opacity:1;stroke:none"
       id="path4726"
       sodipodi:cx="-421.42856"
       sodipodi:cy="81.571426"
       sodipodi:rx="80"
       sodipodi:ry="75"
       d="m -341.42856,81.571426 a 80,75 0 1 1 -160,0 80,75 0 1 1 160,0 z"
       transform="matrix(0.625,0,0,0.66666667,797.67859,331.55265)" />
    <path
       sodipodi:type="arc"
       style="fill:#ffffff;fill-opacity:1;stroke:none"
       id="path4692-78-3"
       sodipodi:cx="-357.85715"
       sodipodi:cy="119.42857"
       sodipodi:rx="77.85714"
       sodipodi:ry="85.714287"
       d="m -280.00001,119.42857 a 77.85714,85.714287 0 1 1 -155.71428,0 77.85714,85.714287 0 1 1 155.71428,0 z"
       transform="matrix(0.87155956,0,0,0.64166667,572.10912,354.88909)" />
  </g>
</svg>
