<?xml version="1.0" encoding="UTF-8" standalone="no"?>
<!-- Created with Inkscape (http://www.inkscape.org/) -->

<svg
   xmlns:dc="http://purl.org/dc/elements/1.1/"
   xmlns:cc="http://creativecommons.org/ns#"
   xmlns:rdf="http://www.w3.org/1999/02/22-rdf-syntax-ns#"
   xmlns:svg="http://www.w3.org/2000/svg"
   xmlns="http://www.w3.org/2000/svg"
   xmlns:sodipodi="http://sodipodi.sourceforge.net/DTD/sodipodi-0.dtd"
   xmlns:inkscape="http://www.inkscape.org/namespaces/inkscape"
   width="199.99998"
   height="242.00002"
   id="svg6477"
   version="1.1"
   inkscape:version="0.48.2 r9819"
   sodipodi:docname="plant1.svg"
   inkscape:export-filename="D:\WIP\GGJ2014\lui\Assets\Sprites\plant1.png"
   inkscape:export-xdpi="90"
   inkscape:export-ydpi="90">
  <defs
     id="defs6479" />
  <sodipodi:namedview
     id="base"
     pagecolor="#ffffff"
     bordercolor="#666666"
     borderopacity="1.0"
     inkscape:pageopacity="0.0"
     inkscape:pageshadow="2"
     inkscape:zoom="0.7"
     inkscape:cx="40.231533"
     inkscape:cy="-11.409212"
     inkscape:document-units="px"
     inkscape:current-layer="layer1"
     showgrid="false"
     inkscape:window-width="1920"
     inkscape:window-height="1028"
     inkscape:window-x="-8"
     inkscape:window-y="-8"
     inkscape:window-maximized="1"
     fit-margin-top="0"
     fit-margin-left="0"
     fit-margin-right="0"
     fit-margin-bottom="0" />
  <metadata
     id="metadata6482">
    <rdf:RDF>
      <cc:Work
         rdf:about="">
        <dc:format>image/svg+xml</dc:format>
        <dc:type
           rdf:resource="http://purl.org/dc/dcmitype/StillImage" />
        <dc:title></dc:title>
      </cc:Work>
    </rdf:RDF>
  </metadata>
  <g
     inkscape:label="Layer 1"
     inkscape:groupmode="layer"
     id="layer1"
     transform="translate(-177.61736,-369.1337)">
    <rect
       style="fill:#37c871;fill-opacity:1;stroke:none"
       id="rect6485"
       width="32.461384"
       height="140.01564"
       x="262.862"
       y="471.11807"
       ry="0.0012363321" />
    <rect
       style="fill:#7ecfad;fill-opacity:1;stroke:none"
       id="rect7275"
       width="94.0336"
       height="13.440425"
       x="3.308749"
       y="530.18488"
       ry="0.0012362332"
       transform="matrix(0.93961727,-0.34222711,0.34181328,0.93976789,0,0)" />
    <rect
       style="fill:#7ecfad;fill-opacity:1;stroke:none"
       id="rect7275-4"
       width="94.0336"
       height="13.440425"
       x="425.8624"
       y="339.65393"
       ry="0.0012362332"
       transform="matrix(0.93961727,0.34222711,-0.34181328,0.93976789,0,0)" />
    <rect
       style="fill:#7ecfad;fill-opacity:1;stroke:none"
       id="rect7275-4-9"
       width="94.0336"
       height="13.440425"
       x="-205.22017"
       y="527.17426"
       ry="0.0012362332"
       transform="matrix(-0.93961727,0.34222711,0.34181328,0.93976789,0,0)" />
    <rect
       style="fill:#7ecfad;fill-opacity:1;stroke:none"
       id="rect7275-4-9-8"
       width="94.063881"
       height="13.4361"
       x="77.031219"
       y="504.92194"
       ry="0.0012358354"
       transform="matrix(-0.64252915,0.76626124,0.76582755,0.64304601,0,0)" />
    <rect
       style="fill:#7ecfad;fill-opacity:1;stroke:none"
       id="rect7275-4-9-8-2"
       width="94.063881"
       height="13.4361"
       x="432.45047"
       y="78.637802"
       ry="0.0012358354"
       transform="matrix(0.64252915,0.76626124,-0.76582755,0.64304601,0,0)" />
    <rect
       style="fill:#7ecfad;fill-opacity:1;stroke:none"
       id="rect7275-4-9-4"
       width="94.0336"
       height="13.440425"
       x="318.46677"
       y="342.36746"
       ry="0.0012362332"
       transform="matrix(0.93961727,0.34222711,-0.34181328,0.93976789,0,0)" />
    <rect
       style="fill:#7ecfad;fill-opacity:1;stroke:none"
       id="rect7275-4-9-8-5"
       width="94.0905"
       height="13.432296"
       x="369.1337"
       y="270.36801"
       ry="0.0012354854"
       transform="matrix(0,1,1,0,0,0)" />
    <path
       sodipodi:type="arc"
       style="fill:#ff2a2a;fill-opacity:1;stroke:none"
       id="path7273"
       sodipodi:cx="342.44171"
       sodipodi:cy="481.62601"
       sodipodi:rx="100.0051"
       sodipodi:ry="83.842659"
       d="m 442.44681,481.62601 c 0,46.30502 -44.77381,83.84266 -100.0051,83.84266 -55.23129,0 -100.0051,-37.53764 -100.0051,-83.84266 0,-46.30502 44.77381,-83.84266 100.0051,-83.84266 55.23129,0 100.0051,37.53764 100.0051,83.84266 z"
       transform="matrix(0.13850641,0,0,0.16531966,231.05806,385.93979)" />
  </g>
</svg>
