<?xml version="1.0" encoding="UTF-8" standalone="no"?>
<!-- Created with Inkscape (http://www.inkscape.org/) -->

<svg
   xmlns:dc="http://purl.org/dc/elements/1.1/"
   xmlns:cc="http://creativecommons.org/ns#"
   xmlns:rdf="http://www.w3.org/1999/02/22-rdf-syntax-ns#"
   xmlns:svg="http://www.w3.org/2000/svg"
   xmlns="http://www.w3.org/2000/svg"
   xmlns:sodipodi="http://sodipodi.sourceforge.net/DTD/sodipodi-0.dtd"
   xmlns:inkscape="http://www.inkscape.org/namespaces/inkscape"
   width="744.09448819"
   height="1052.3622047"
   id="svg6477"
   version="1.1"
   inkscape:version="0.48.2 r9819"
   sodipodi:docname="New document 28">
  <defs
     id="defs6479" />
  <sodipodi:namedview
     id="base"
     pagecolor="#ffffff"
     bordercolor="#666666"
     borderopacity="1.0"
     inkscape:pageopacity="0.0"
     inkscape:pageshadow="2"
     inkscape:zoom="0.7"
     inkscape:cx="103.56318"
     inkscape:cy="459.81926"
     inkscape:document-units="px"
     inkscape:current-layer="layer1"
     showgrid="false"
     inkscape:window-width="1920"
     inkscape:window-height="1028"
     inkscape:window-x="-8"
     inkscape:window-y="-8"
     inkscape:window-maximized="1" />
  <metadata
     id="metadata6482">
    <rdf:RDF>
      <cc:Work
         rdf:about="">
        <dc:format>image/svg+xml</dc:format>
        <dc:type
           rdf:resource="http://purl.org/dc/dcmitype/StillImage" />
        <dc:title></dc:title>
      </cc:Work>
    </rdf:RDF>
  </metadata>
  <g
     inkscape:label="Layer 1"
     inkscape:groupmode="layer"
     id="layer1">
    <rect
       style="fill:#37c871;fill-opacity:1;stroke:none"
       id="rect6485"
       width="32.483635"
       height="140.01566"
       x="248.63474"
       y="591.11804"
       ry="0.0012363323" />
    <rect
       style="fill:#7ecfad;fill-opacity:1;stroke:none"
       id="rect7275"
       width="94.090515"
       height="13.441504"
       x="-51.270229"
       y="638.06281"
       ry="0.0012363323"
       transform="matrix(0.93969262,-0.34202015,0.34202015,0.93969262,0,0)" />
    <rect
       style="fill:#7ecfad;fill-opacity:1;stroke:none"
       id="rect7275-4"
       width="94.090515"
       height="13.441504"
       x="453.62393"
       y="457.37186"
       ry="0.0012363323"
       transform="matrix(0.93969262,0.34202015,-0.34202015,0.93969262,0,0)" />
    <rect
       style="fill:#7ecfad;fill-opacity:1;stroke:none"
       id="rect7275-4-9"
       width="94.090515"
       height="13.441504"
       x="-150.7634"
       y="635.052"
       ry="0.0012363323"
       transform="matrix(-0.93969262,0.34202015,0.34202015,0.93969262,0,0)" />
    <rect
       style="fill:#7ecfad;fill-opacity:1;stroke:none"
       id="rect7275-4-9-8"
       width="94.090515"
       height="13.441504"
       x="178.23924"
       y="571.22266"
       ry="0.0012363323"
       transform="matrix(-0.6427876,0.76604445,0.76604445,0.6427876,0,0)" />
    <rect
       style="fill:#7ecfad;fill-opacity:1;stroke:none"
       id="rect7275-4-9-8-2"
       width="94.090515"
       height="13.441504"
       x="515.23724"
       y="166.84064"
       ry="0.0012363323"
       transform="matrix(0.6427876,0.76604445,-0.76604445,0.6427876,0,0)" />
    <rect
       style="fill:#7ecfad;fill-opacity:1;stroke:none"
       id="rect7275-4-9-4"
       width="94.090515"
       height="13.441504"
       x="346.1633"
       y="460.0856"
       ry="0.0012363323"
       transform="matrix(0.93969262,0.34202015,-0.34202015,0.93969262,0,0)" />
    <rect
       style="fill:#7ecfad;fill-opacity:1;stroke:none"
       id="rect7275-4-9-8-5"
       width="94.090515"
       height="13.441504"
       x="489.13367"
       y="256.14587"
       ry="0.0012363323"
       transform="matrix(0,1,1,0,0,0)" />
    <path
       sodipodi:type="arc"
       style="fill:#ff2a2a;fill-opacity:1;stroke:none"
       id="path7273"
       sodipodi:cx="342.44171"
       sodipodi:cy="481.62601"
       sodipodi:rx="100.0051"
       sodipodi:ry="83.842659"
       d="m 442.44681,481.62601 a 100.0051,83.842659 0 1 1 -200.0102,0 100.0051,83.842659 0 1 1 200.0102,0 z"
       transform="matrix(0.13860136,0,0,0.16531969,216.80898,505.93976)" />
  </g>
</svg>
