<?xml version="1.0" encoding="UTF-8" standalone="no"?>
<!-- Created with Inkscape (http://www.inkscape.org/) -->

<svg
   xmlns:dc="http://purl.org/dc/elements/1.1/"
   xmlns:cc="http://creativecommons.org/ns#"
   xmlns:rdf="http://www.w3.org/1999/02/22-rdf-syntax-ns#"
   xmlns:svg="http://www.w3.org/2000/svg"
   xmlns="http://www.w3.org/2000/svg"
   xmlns:sodipodi="http://sodipodi.sourceforge.net/DTD/sodipodi-0.dtd"
   xmlns:inkscape="http://www.inkscape.org/namespaces/inkscape"
   width="200"
   height="196"
   id="svg5088"
   version="1.1"
   inkscape:version="0.48.2 r9819"
   sodipodi:docname="rock1.svg"
   inkscape:export-filename="D:\WIP\GGJ2014\lui\Assets\Sprites\rock1.png"
   inkscape:export-xdpi="90"
   inkscape:export-ydpi="90">
  <defs
     id="defs5090" />
  <sodipodi:namedview
     id="base"
     pagecolor="#ffffff"
     bordercolor="#666666"
     borderopacity="1.0"
     inkscape:pageopacity="0.0"
     inkscape:pageshadow="2"
     inkscape:zoom="0.49497475"
     inkscape:cx="801.21701"
     inkscape:cy="192.72462"
     inkscape:document-units="px"
     inkscape:current-layer="layer1"
     showgrid="false"
     fit-margin-top="0"
     fit-margin-left="0"
     fit-margin-right="0"
     fit-margin-bottom="0"
     inkscape:window-width="1920"
     inkscape:window-height="1028"
     inkscape:window-x="-8"
     inkscape:window-y="-8"
     inkscape:window-maximized="1" />
  <metadata
     id="metadata5093">
    <rdf:RDF>
      <cc:Work
         rdf:about="">
        <dc:format>image/svg+xml</dc:format>
        <dc:type
           rdf:resource="http://purl.org/dc/dcmitype/StillImage" />
        <dc:title />
      </cc:Work>
    </rdf:RDF>
  </metadata>
  <g
     inkscape:label="Layer 1"
     inkscape:groupmode="layer"
     id="layer1"
     transform="translate(-217.62399,-540.85156)">
    <path
       sodipodi:type="arc"
       style="fill:#ffbe87;fill-opacity:1;stroke:none"
       id="path4352"
       sodipodi:cx="-265"
       sodipodi:cy="247.46428"
       sodipodi:rx="20.714285"
       sodipodi:ry="19.821428"
       d="m -244.28572,247.46428 c 0,10.94707 -9.2741,19.82143 -20.71428,19.82143 -11.44018,0 -20.71428,-8.87436 -20.71428,-19.82143 0,-10.94707 9.2741,-19.82143 20.71428,-19.82143 11.44018,0 20.71428,8.87436 20.71428,19.82143 z"
       transform="matrix(3.4482774,0,0,3.4278558,1221.0725,-239.47531)" />
    <path
       sodipodi:type="arc"
       style="fill:#ffbe87;fill-opacity:1;stroke:none"
       id="path4352-9"
       sodipodi:cx="-265"
       sodipodi:cy="247.46428"
       sodipodi:rx="20.714285"
       sodipodi:ry="19.821428"
       d="m -244.28572,247.46428 c 0,10.94707 -9.2741,19.82143 -20.71428,19.82143 -11.44018,0 -20.71428,-8.87436 -20.71428,-19.82143 0,-10.94707 9.2741,-19.82143 20.71428,-19.82143 11.44018,0 20.71428,8.87436 20.71428,19.82143 z"
       transform="matrix(3.4482774,0,0,3.4278558,1259.9889,-222.21356)" />
    <path
       sodipodi:type="arc"
       style="fill:#ffbe87;fill-opacity:1;stroke:none"
       id="path4352-8"
       sodipodi:cx="-265"
       sodipodi:cy="247.46428"
       sodipodi:rx="20.714285"
       sodipodi:ry="19.821428"
       d="m -244.28572,247.46428 c 0,10.94707 -9.2741,19.82143 -20.71428,19.82143 -11.44018,0 -20.71428,-8.87436 -20.71428,-19.82143 0,-10.94707 9.2741,-19.82143 20.71428,-19.82143 11.44018,0 20.71428,8.87436 20.71428,19.82143 z"
       transform="matrix(3.4482774,0,0,3.4278558,1219.841,-184.99681)" />
    <path
       sodipodi:type="arc"
       style="fill:#ffbe87;fill-opacity:1;stroke:none"
       id="path4352-4"
       sodipodi:cx="-265"
       sodipodi:cy="247.46428"
       sodipodi:rx="20.714285"
       sodipodi:ry="19.821428"
       d="m -244.28572,247.46428 c 0,10.94707 -9.2741,19.82143 -20.71428,19.82143 -11.44018,0 -20.71428,-8.87436 -20.71428,-19.82143 0,-10.94707 9.2741,-19.82143 20.71428,-19.82143 11.44018,0 20.71428,8.87436 20.71428,19.82143 z"
       transform="matrix(3.4482774,0,0,3.4278558,1256.2942,-179.3653)" />
    <path
       sodipodi:type="arc"
       style="fill:#ffbe87;fill-opacity:1;stroke:none"
       id="path4352-0"
       sodipodi:cx="-265"
       sodipodi:cy="247.46428"
       sodipodi:rx="20.714285"
       sodipodi:ry="19.821428"
       d="m -244.28572,247.46428 c 0,10.94707 -9.2741,19.82143 -20.71428,19.82143 -11.44018,0 -20.71428,-8.87436 -20.71428,-19.82143 0,-10.94707 9.2741,-19.82143 20.71428,-19.82143 11.44018,0 20.71428,8.87436 20.71428,19.82143 z"
       transform="matrix(3.4482774,0,0,3.4278558,1202.8461,-210.95073)" />
  </g>
</svg>
