<?xml version="1.0" encoding="UTF-8" standalone="no"?>
<!-- Created with Inkscape (http://www.inkscape.org/) -->

<svg
   xmlns:dc="http://purl.org/dc/elements/1.1/"
   xmlns:cc="http://creativecommons.org/ns#"
   xmlns:rdf="http://www.w3.org/1999/02/22-rdf-syntax-ns#"
   xmlns:svg="http://www.w3.org/2000/svg"
   xmlns="http://www.w3.org/2000/svg"
   xmlns:sodipodi="http://sodipodi.sourceforge.net/DTD/sodipodi-0.dtd"
   xmlns:inkscape="http://www.inkscape.org/namespaces/inkscape"
   width="500"
   height="840"
   id="svg4934"
   version="1.1"
   inkscape:version="0.48.2 r9819"
   sodipodi:docname="tree1.svg"
   inkscape:export-filename="D:\WIP\GGJ2014\lui\Assets\Sprites\tree1.png"
   inkscape:export-xdpi="90"
   inkscape:export-ydpi="90">
  <defs
     id="defs4936" />
  <sodipodi:namedview
     id="base"
     pagecolor="#ffffff"
     bordercolor="#666666"
     borderopacity="1.0"
     inkscape:pageopacity="0.0"
     inkscape:pageshadow="2"
     inkscape:zoom="0.0875"
     inkscape:cx="1439.3883"
     inkscape:cy="517.4237"
     inkscape:document-units="px"
     inkscape:current-layer="layer1"
     showgrid="false"
     fit-margin-top="0"
     fit-margin-left="0"
     fit-margin-right="0"
     fit-margin-bottom="0"
     inkscape:window-width="1920"
     inkscape:window-height="1028"
     inkscape:window-x="-8"
     inkscape:window-y="-8"
     inkscape:window-maximized="1" />
  <metadata
     id="metadata4939">
    <rdf:RDF>
      <cc:Work
         rdf:about="">
        <dc:format>image/svg+xml</dc:format>
        <dc:type
           rdf:resource="http://purl.org/dc/dcmitype/StillImage" />
        <dc:title />
      </cc:Work>
    </rdf:RDF>
  </metadata>
  <g
     inkscape:label="Layer 1"
     inkscape:groupmode="layer"
     id="layer1"
     transform="translate(-177.78403,-253.19388)">
    <rect
       style="fill:#cca024;fill-opacity:1;stroke:none"
       id="rect3920-8-7"
       width="91.836746"
       height="482.91498"
       x="379.96005"
       y="610.27887"
       ry="0.023637054" />
    <rect
       style="fill:#7f6435;fill-opacity:1;stroke:none"
       id="rect3920-2"
       width="500"
       height="418.29956"
       x="177.78403"
       y="253.19388"
       ry="0.020474348" />
    <rect
       style="fill:#7f6416;fill-opacity:1;stroke:none"
       id="rect3940-60"
       width="60.374149"
       height="11.902834"
       x="235.26523"
       y="301.65552"
       ry="0.0071660215" />
    <rect
       style="fill:#7f6416;fill-opacity:1;stroke:none"
       id="rect3940-2-165"
       width="60.364372"
       height="11.904761"
       x="-361.91333"
       y="-295.77634"
       ry="0.0071671819"
       transform="matrix(0,-1,-1,0,0,0)" />
    <rect
       style="fill:#7f6416;fill-opacity:1;stroke:none"
       id="rect3940-7-75"
       width="60.364372"
       height="11.904761"
       x="323.44226"
       y="-251.62692"
       ry="0.0071671819"
       transform="matrix(0,1,-1,0,0,0)" />
    <rect
       style="fill:#7f6416;fill-opacity:1;stroke:none"
       id="rect3940-2-1-41"
       width="60.374149"
       height="11.902834"
       x="239.85886"
       y="-383.70032"
       ry="0.0071660215"
       transform="scale(1,-1)" />
    <rect
       style="fill:#7f6416;fill-opacity:1;stroke:none"
       id="rect3940-6-2"
       width="60.374149"
       height="11.902834"
       x="398.49631"
       y="281.88797"
       ry="0.0071660215" />
    <rect
       style="fill:#7f6416;fill-opacity:1;stroke:none"
       id="rect3940-2-14-0"
       width="60.364372"
       height="11.904761"
       x="-342.14603"
       y="-459.00735"
       ry="0.0071671819"
       transform="matrix(0,-1,-1,0,0,0)" />
    <rect
       style="fill:#7f6416;fill-opacity:1;stroke:none"
       id="rect3940-7-2-0"
       width="60.364372"
       height="11.904761"
       x="303.67471"
       y="-414.85788"
       ry="0.0071671819"
       transform="matrix(0,1,-1,0,0,0)" />
    <rect
       style="fill:#7f6416;fill-opacity:1;stroke:none"
       id="rect3940-2-1-3-1"
       width="60.374149"
       height="11.902834"
       x="403.08994"
       y="-363.93277"
       ry="0.0071660215"
       transform="scale(1,-1)" />
    <rect
       style="fill:#7f6416;fill-opacity:1;stroke:none"
       id="rect3940-22-4"
       width="60.374149"
       height="11.902834"
       x="327.06784"
       y="369.45898"
       ry="0.0071660215" />
    <rect
       style="fill:#7f6416;fill-opacity:1;stroke:none"
       id="rect3940-2-16-6"
       width="60.364372"
       height="11.904761"
       x="-429.71704"
       y="-387.57883"
       ry="0.0071671819"
       transform="matrix(0,-1,-1,0,0,0)" />
    <rect
       style="fill:#7f6416;fill-opacity:1;stroke:none"
       id="rect3940-7-8-0"
       width="60.364372"
       height="11.904761"
       x="391.24573"
       y="-343.42917"
       ry="0.0071671819"
       transform="matrix(0,1,-1,0,0,0)" />
    <rect
       style="fill:#7f6416;fill-opacity:1;stroke:none"
       id="rect3940-2-1-5-7"
       width="60.374149"
       height="11.902834"
       x="331.66147"
       y="-451.50381"
       ry="0.0071660215"
       transform="scale(1,-1)" />
    <rect
       style="fill:#7f6416;fill-opacity:1;stroke:none"
       id="rect3940-76-1"
       width="60.374149"
       height="11.902834"
       x="240.33298"
       y="431.52365"
       ry="0.0071660215" />
    <rect
       style="fill:#7f6416;fill-opacity:1;stroke:none"
       id="rect3940-2-18-7"
       width="60.364372"
       height="11.904761"
       x="-491.78171"
       y="-300.84402"
       ry="0.0071671819"
       transform="matrix(0,-1,-1,0,0,0)" />
    <rect
       style="fill:#7f6416;fill-opacity:1;stroke:none"
       id="rect3940-7-9-7"
       width="60.364372"
       height="11.904761"
       x="453.31039"
       y="-256.69467"
       ry="0.0071671819"
       transform="matrix(0,1,-1,0,0,0)" />
    <rect
       style="fill:#7f6416;fill-opacity:1;stroke:none"
       id="rect3940-2-1-2-7"
       width="60.374149"
       height="11.902834"
       x="244.92697"
       y="-513.56848"
       ry="0.0071660215"
       transform="scale(1,-1)" />
    <rect
       style="fill:#7f6416;fill-opacity:1;stroke:none"
       id="rect3940-79-7"
       width="60.374149"
       height="11.902834"
       x="326.21725"
       y="532.69794"
       ry="0.0071660215" />
    <rect
       style="fill:#7f6416;fill-opacity:1;stroke:none"
       id="rect3940-2-5-3"
       width="60.364372"
       height="11.904761"
       x="-592.95599"
       y="-386.7283"
       ry="0.0071671819"
       transform="matrix(0,-1,-1,0,0,0)" />
    <rect
       style="fill:#7f6416;fill-opacity:1;stroke:none"
       id="rect3940-7-4-3"
       width="60.364372"
       height="11.904761"
       x="554.4845"
       y="-342.57889"
       ry="0.0071671819"
       transform="matrix(0,1,-1,0,0,0)" />
    <rect
       style="fill:#7f6416;fill-opacity:1;stroke:none"
       id="rect3940-2-1-31-5"
       width="60.374149"
       height="11.902834"
       x="330.81119"
       y="-614.7428"
       ry="0.0071660215"
       transform="scale(1,-1)" />
    <rect
       style="fill:#7f6416;fill-opacity:1;stroke:none"
       id="rect3940-23-9"
       width="60.374149"
       height="11.902834"
       x="432.50986"
       y="451.07858"
       ry="0.0071660215" />
    <rect
       style="fill:#7f6416;fill-opacity:1;stroke:none"
       id="rect3940-2-3-9"
       width="60.364372"
       height="11.904761"
       x="-511.3364"
       y="-493.0209"
       ry="0.0071671819"
       transform="matrix(0,-1,-1,0,0,0)" />
    <rect
       style="fill:#7f6416;fill-opacity:1;stroke:none"
       id="rect3940-7-41-8"
       width="60.364372"
       height="11.904761"
       x="472.86508"
       y="-448.87149"
       ry="0.0071671819"
       transform="matrix(0,1,-1,0,0,0)" />
    <rect
       style="fill:#7f6416;fill-opacity:1;stroke:none"
       id="rect3940-2-1-1-1"
       width="60.374149"
       height="11.902834"
       x="437.10349"
       y="-533.12317"
       ry="0.0071660215"
       transform="scale(1,-1)" />
    <rect
       style="fill:#7f6416;fill-opacity:1;stroke:none"
       id="rect3940-3-8"
       width="60.374149"
       height="11.902834"
       x="531.99988"
       y="323.54822"
       ry="0.0071660215" />
    <rect
       style="fill:#7f6416;fill-opacity:1;stroke:none"
       id="rect3940-2-8-2"
       width="60.364372"
       height="11.904761"
       x="-383.80627"
       y="-592.51093"
       ry="0.0071671819"
       transform="matrix(0,-1,-1,0,0,0)" />
    <rect
       style="fill:#7f6416;fill-opacity:1;stroke:none"
       id="rect3940-7-7-6"
       width="60.364372"
       height="11.904761"
       x="345.33496"
       y="-548.36151"
       ry="0.0071671819"
       transform="matrix(0,1,-1,0,0,0)" />
    <rect
       style="fill:#7f6416;fill-opacity:1;stroke:none"
       id="rect3940-2-1-4-6"
       width="60.374149"
       height="11.902834"
       x="536.5932"
       y="-405.59302"
       ry="0.0071660215"
       transform="scale(1,-1)" />
    <rect
       style="fill:#7f6416;fill-opacity:1;stroke:none"
       id="rect3940-27-0"
       width="60.374149"
       height="11.902834"
       x="574.5166"
       y="552.25238"
       ry="0.0071660215" />
    <rect
       style="fill:#7f6416;fill-opacity:1;stroke:none"
       id="rect3940-2-7-3"
       width="60.364372"
       height="11.904761"
       x="-612.5105"
       y="-635.02789"
       ry="0.0071671819"
       transform="matrix(0,-1,-1,0,0,0)" />
    <rect
       style="fill:#7f6416;fill-opacity:1;stroke:none"
       id="rect3940-7-93-8"
       width="60.364372"
       height="11.904761"
       x="574.03918"
       y="-590.87823"
       ry="0.0071671819"
       transform="matrix(0,1,-1,0,0,0)" />
    <rect
       style="fill:#7f6416;fill-opacity:1;stroke:none"
       id="rect3940-2-1-19-0"
       width="60.374149"
       height="11.902834"
       x="579.11053"
       y="-634.29724"
       ry="0.0071660215"
       transform="scale(1,-1)" />
    <rect
       style="fill:#7f6416;fill-opacity:1;stroke:none"
       id="rect3940-8-1"
       width="60.374149"
       height="11.902834"
       x="588.12238"
       y="425.57245"
       ry="0.0071660215" />
    <rect
       style="fill:#7f6416;fill-opacity:1;stroke:none"
       id="rect3940-2-6-2"
       width="60.364372"
       height="11.904761"
       x="-485.83051"
       y="-648.63342"
       ry="0.0071671819"
       transform="matrix(0,-1,-1,0,0,0)" />
    <rect
       style="fill:#7f6416;fill-opacity:1;stroke:none"
       id="rect3940-7-5-5"
       width="60.364372"
       height="11.904761"
       x="447.35922"
       y="-604.4837"
       ry="0.0071671819"
       transform="matrix(0,1,-1,0,0,0)" />
    <rect
       style="fill:#7f6416;fill-opacity:1;stroke:none"
       id="rect3940-2-1-0-0"
       width="60.374149"
       height="11.902834"
       x="592.7157"
       y="-507.61728"
       ry="0.0071660215"
       transform="scale(1,-1)" />
    <rect
       style="fill:#7f6416;fill-opacity:1;stroke:none"
       id="rect3940-28-9"
       width="60.374149"
       height="11.902834"
       x="210.57126"
       y="561.60468"
       ry="0.0071660215" />
    <rect
       style="fill:#7f6416;fill-opacity:1;stroke:none"
       id="rect3940-2-60-4"
       width="60.364372"
       height="11.904761"
       x="-621.86273"
       y="-271.082"
       ry="0.0071671819"
       transform="matrix(0,-1,-1,0,0,0)" />
    <rect
       style="fill:#7f6416;fill-opacity:1;stroke:none"
       id="rect3940-7-24-7"
       width="60.364372"
       height="11.904761"
       x="583.39166"
       y="-226.93283"
       ry="0.0071671819"
       transform="matrix(0,1,-1,0,0,0)" />
    <rect
       style="fill:#7f6416;fill-opacity:1;stroke:none"
       id="rect3940-2-1-8-8"
       width="60.374149"
       height="11.902834"
       x="215.16489"
       y="-643.64972"
       ry="0.0071660215"
       transform="scale(1,-1)" />
    <rect
       style="fill:#7f6416;fill-opacity:1;stroke:none"
       id="rect3940-65-3"
       width="60.374149"
       height="11.902834"
       x="461.42172"
       y="561.60516"
       ry="0.0071660215" />
    <rect
       style="fill:#7f6416;fill-opacity:1;stroke:none"
       id="rect3940-2-0-5"
       width="60.364372"
       height="11.904761"
       x="-621.86322"
       y="-521.93268"
       ry="0.0071671819"
       transform="matrix(0,-1,-1,0,0,0)" />
    <rect
       style="fill:#7f6416;fill-opacity:1;stroke:none"
       id="rect3940-7-90-1"
       width="60.364372"
       height="11.904761"
       x="583.39166"
       y="-477.78299"
       ry="0.0071671819"
       transform="matrix(0,1,-1,0,0,0)" />
    <rect
       style="fill:#7f6416;fill-opacity:1;stroke:none"
       id="rect3940-2-1-06-2"
       width="60.374149"
       height="11.902834"
       x="466.01529"
       y="-643.64972"
       ry="0.0071660215"
       transform="scale(1,-1)" />
    <rect
       style="fill:#7f6c35;fill-opacity:1;stroke:none"
       id="rect4208-01"
       width="4.3365135"
       height="33.666302"
       x="395.90372"
       y="688.20184"
       ry="0.0021496972" />
    <rect
       style="fill:#7f6c35;fill-opacity:1;stroke:none"
       id="rect4208-1-6"
       width="4.3365135"
       height="33.666302"
       x="443.69296"
       y="679.31653"
       ry="0.0021496972" />
    <rect
       style="fill:#7f6c35;fill-opacity:1;stroke:none"
       id="rect4208-3-4"
       width="4.3365135"
       height="33.666302"
       x="457.93613"
       y="735.00452"
       ry="0.0021496972" />
    <rect
       style="fill:#7f6c35;fill-opacity:1;stroke:none"
       id="rect4208-8-0"
       width="4.3365135"
       height="33.666302"
       x="423.70999"
       y="719.27588"
       ry="0.0021496972" />
    <rect
       style="fill:#7f6c35;fill-opacity:1;stroke:none"
       id="rect4208-9-6"
       width="4.3365135"
       height="33.666302"
       x="390.75925"
       y="747.33264"
       ry="0.0021496972" />
    <rect
       style="fill:#7f6c35;fill-opacity:1;stroke:none"
       id="rect4208-34-1"
       width="4.3365135"
       height="33.666302"
       x="451.77097"
       y="785.16656"
       ry="0.0021496972" />
    <rect
       style="fill:#7f6c35;fill-opacity:1;stroke:none"
       id="rect4208-4-8"
       width="4.3365135"
       height="33.666302"
       x="415.84433"
       y="785.37897"
       ry="0.0021496972" />
    <rect
       style="fill:#7f6c35;fill-opacity:1;stroke:none"
       id="rect4208-0-9"
       width="4.3365135"
       height="33.666302"
       x="394.58566"
       y="824.06311"
       ry="0.0021496972" />
    <rect
       style="fill:#7f6c35;fill-opacity:1;stroke:none"
       id="rect4208-66-8"
       width="4.3365135"
       height="33.666302"
       x="452.40891"
       y="845.95605"
       ry="0.0021496972" />
    <rect
       style="fill:#7f6c35;fill-opacity:1;stroke:none"
       id="rect4208-18-4"
       width="4.3365135"
       height="33.666302"
       x="419.45816"
       y="870.39935"
       ry="0.0021496972" />
    <rect
       style="fill:#7f6c35;fill-opacity:1;stroke:none"
       id="rect4208-49-1"
       width="4.3365135"
       height="33.666302"
       x="442.84274"
       y="902.06952"
       ry="0.0021496972" />
    <rect
       style="fill:#7f6c35;fill-opacity:1;stroke:none"
       id="rect4208-63-4"
       width="4.3365135"
       height="33.666302"
       x="396.07388"
       y="922.68652"
       ry="0.0021496972" />
    <rect
       style="fill:#7f6c35;fill-opacity:1;stroke:none"
       id="rect4208-7-3"
       width="4.3365135"
       height="33.666302"
       x="423.92258"
       y="952.01898"
       ry="0.0021496972" />
    <rect
       style="fill:#7f6c35;fill-opacity:1;stroke:none"
       id="rect4208-88-9"
       width="4.3365135"
       height="33.666302"
       x="448.58224"
       y="985.60193"
       ry="0.0021496972" />
    <rect
       style="fill:#7f6c35;fill-opacity:1;stroke:none"
       id="rect4208-2-8"
       width="4.3365135"
       height="33.666302"
       x="414.14352"
       y="1006.8565"
       ry="0.0021496972" />
    <rect
       style="fill:#7f6c35;fill-opacity:1;stroke:none"
       id="rect4208-91-8"
       width="4.3365135"
       height="33.666302"
       x="441.14194"
       y="1042.5653"
       ry="0.0021496972" />
    <rect
       style="fill:#7f6c35;fill-opacity:1;stroke:none"
       id="rect4208-35-0"
       width="4.3365135"
       height="33.666302"
       x="395.2236"
       y="1050.4296"
       ry="0.0021496972" />
  </g>
</svg>
