<?xml version="1.0" encoding="UTF-8" standalone="no"?>
<!-- Created with Inkscape (http://www.inkscape.org/) -->

<svg
   xmlns:dc="http://purl.org/dc/elements/1.1/"
   xmlns:cc="http://creativecommons.org/ns#"
   xmlns:rdf="http://www.w3.org/1999/02/22-rdf-syntax-ns#"
   xmlns:svg="http://www.w3.org/2000/svg"
   xmlns="http://www.w3.org/2000/svg"
   xmlns:sodipodi="http://sodipodi.sourceforge.net/DTD/sodipodi-0.dtd"
   xmlns:inkscape="http://www.inkscape.org/namespaces/inkscape"
   width="1500"
   height="1760"
   id="svg3118"
   version="1.1"
   inkscape:version="0.48.2 r9819"
   sodipodi:docname="tree2.svg"
   inkscape:export-filename="D:\WIP\GGJ2014\lui\Assets\Sprites\tree2.png"
   inkscape:export-xdpi="90"
   inkscape:export-ydpi="90">
  <defs
     id="defs3120" />
  <sodipodi:namedview
     id="base"
     pagecolor="#ffffff"
     bordercolor="#666666"
     borderopacity="1.0"
     inkscape:pageopacity="0.0"
     inkscape:pageshadow="2"
     inkscape:zoom="0.24748737"
     inkscape:cx="568.19754"
     inkscape:cy="861.07544"
     inkscape:document-units="px"
     inkscape:current-layer="layer1"
     showgrid="false"
     inkscape:window-width="1920"
     inkscape:window-height="1028"
     inkscape:window-x="-8"
     inkscape:window-y="-8"
     inkscape:window-maximized="1"
     fit-margin-top="0"
     fit-margin-left="0"
     fit-margin-right="0"
     fit-margin-bottom="0" />
  <metadata
     id="metadata3123">
    <rdf:RDF>
      <cc:Work
         rdf:about="">
        <dc:format>image/svg+xml</dc:format>
        <dc:type
           rdf:resource="http://purl.org/dc/dcmitype/StillImage" />
        <dc:title></dc:title>
      </cc:Work>
    </rdf:RDF>
  </metadata>
  <g
     inkscape:label="Layer 1"
     inkscape:groupmode="layer"
     id="layer1"
     transform="translate(0,744.7807)">
    <rect
       style="fill:#504416;fill-opacity:1;stroke:none"
       id="rect3920-8-7"
       width="218.57146"
       height="909.79761"
       x="623.32178"
       y="105.42171"
       ry="0.044531513" />
    <rect
       style="fill:#005522;fill-opacity:1;stroke:none"
       id="rect3920-2"
       width="1500"
       height="995.95135"
       x="0"
       y="-744.7807"
       ry="0.048748448" />
    <rect
       style="fill:#165016;fill-opacity:1;stroke:none"
       id="rect3940-60"
       width="143.69049"
       height="28.340082"
       x="95.100357"
       y="-651.61914"
       ry="0.017061956" />
    <rect
       style="fill:#165016;fill-opacity:1;stroke:none"
       id="rect3940-2-165"
       width="143.7247"
       height="28.333334"
       x="508.14819"
       y="-239.11681"
       ry="0.017057894"
       transform="matrix(0,-1,-1,0,0,0)" />
    <rect
       style="fill:#165016;fill-opacity:1;stroke:none"
       id="rect3940-7-75"
       width="143.7247"
       height="28.333334"
       x="-599.74597"
       y="-134.04121"
       ry="0.017057894"
       transform="matrix(0,1,-1,0,0,0)" />
    <rect
       style="fill:#165016;fill-opacity:1;stroke:none"
       id="rect3940-2-1-41"
       width="143.69049"
       height="28.340082"
       x="106.03319"
       y="456.27441"
       ry="0.017061956"
       transform="scale(1,-1)" />
    <rect
       style="fill:#165016;fill-opacity:1;stroke:none"
       id="rect3940-6-2"
       width="143.69049"
       height="28.340082"
       x="717.9458"
       y="-708.78632"
       ry="0.017061956" />
    <rect
       style="fill:#165016;fill-opacity:1;stroke:none"
       id="rect3940-2-14-0"
       width="143.7247"
       height="28.333334"
       x="565.31476"
       y="-861.96204"
       ry="0.017057894"
       transform="matrix(0,-1,-1,0,0,0)" />
    <rect
       style="fill:#165016;fill-opacity:1;stroke:none"
       id="rect3940-7-2-0"
       width="143.7247"
       height="28.333334"
       x="-656.91315"
       y="-756.88635"
       ry="0.017057894"
       transform="matrix(0,1,-1,0,0,0)" />
    <rect
       style="fill:#165016;fill-opacity:1;stroke:none"
       id="rect3940-2-1-3-1"
       width="143.69049"
       height="28.340082"
       x="728.87854"
       y="513.44147"
       ry="0.017061956"
       transform="scale(1,-1)" />
    <rect
       style="fill:#165016;fill-opacity:1;stroke:none"
       id="rect3940-22-4"
       width="143.69049"
       height="28.340082"
       x="467.13379"
       y="-573.01483"
       ry="0.017061956" />
    <rect
       style="fill:#165016;fill-opacity:1;stroke:none"
       id="rect3940-2-16-6"
       width="143.7247"
       height="28.333334"
       x="429.54327"
       y="-611.1499"
       ry="0.017057894"
       transform="matrix(0,-1,-1,0,0,0)" />
    <rect
       style="fill:#165016;fill-opacity:1;stroke:none"
       id="rect3940-7-8-0"
       width="143.7247"
       height="28.333334"
       x="-521.14166"
       y="-506.07373"
       ry="0.017057894"
       transform="matrix(0,1,-1,0,0,0)" />
    <rect
       style="fill:#165016;fill-opacity:1;stroke:none"
       id="rect3940-2-1-5-7"
       width="143.69049"
       height="28.340082"
       x="478.06659"
       y="377.67001"
       ry="0.017061956"
       transform="scale(1,-1)" />
    <rect
       style="fill:#165016;fill-opacity:1;stroke:none"
       id="rect3940-76-1"
       width="143.69049"
       height="28.340082"
       x="256.66418"
       y="-344.4296"
       ry="0.017061956" />
    <rect
       style="fill:#165016;fill-opacity:1;stroke:none"
       id="rect3940-2-18-7"
       width="143.7247"
       height="28.333334"
       x="200.95805"
       y="-400.68048"
       ry="0.017057894"
       transform="matrix(0,-1,-1,0,0,0)" />
    <rect
       style="fill:#165016;fill-opacity:1;stroke:none"
       id="rect3940-7-9-7"
       width="143.7247"
       height="28.333334"
       x="-292.5564"
       y="-295.60501"
       ry="0.017057894"
       transform="matrix(0,1,-1,0,0,0)" />
    <rect
       style="fill:#165016;fill-opacity:1;stroke:none"
       id="rect3940-2-1-2-7"
       width="143.69049"
       height="28.340082"
       x="267.5979"
       y="149.08476"
       ry="0.017061956"
       transform="scale(1,-1)" />
    <rect
       style="fill:#165016;fill-opacity:1;stroke:none"
       id="rect3940-79-7"
       width="143.69049"
       height="28.340082"
       x="495.41394"
       y="-79.294777"
       ry="0.017061956" />
    <rect
       style="fill:#165016;fill-opacity:1;stroke:none"
       id="rect3940-2-5-3"
       width="143.7247"
       height="28.333334"
       x="-64.176781"
       y="-639.43024"
       ry="0.017057894"
       transform="matrix(0,-1,-1,0,0,0)" />
    <rect
       style="fill:#165016;fill-opacity:1;stroke:none"
       id="rect3940-7-4-3"
       width="143.7247"
       height="28.333334"
       x="-27.422031"
       y="-534.35468"
       ry="0.017057894"
       transform="matrix(0,1,-1,0,0,0)" />
    <rect
       style="fill:#165016;fill-opacity:1;stroke:none"
       id="rect3940-2-1-31-5"
       width="143.69049"
       height="28.340082"
       x="506.34747"
       y="-116.05013"
       ry="0.017061956"
       transform="scale(1,-1)" />
    <rect
       style="fill:#165016;fill-opacity:1;stroke:none"
       id="rect3940-23-9"
       width="143.69049"
       height="28.340082"
       x="748.39032"
       y="-273.62659"
       ry="0.017061956" />
    <rect
       style="fill:#165016;fill-opacity:1;stroke:none"
       id="rect3940-2-3-9"
       width="143.7247"
       height="28.333334"
       x="130.15561"
       y="-892.40668"
       ry="0.017057894"
       transform="matrix(0,-1,-1,0,0,0)" />
    <rect
       style="fill:#165016;fill-opacity:1;stroke:none"
       id="rect3940-7-41-8"
       width="143.7247"
       height="28.333334"
       x="-221.75394"
       y="-787.33112"
       ry="0.017057894"
       transform="matrix(0,1,-1,0,0,0)" />
    <rect
       style="fill:#165016;fill-opacity:1;stroke:none"
       id="rect3940-2-1-1-1"
       width="143.69049"
       height="28.340082"
       x="759.32318"
       y="78.282326"
       ry="0.017061956"
       transform="scale(1,-1)" />
    <rect
       style="fill:#165016;fill-opacity:1;stroke:none"
       id="rect3940-3-8"
       width="143.69049"
       height="28.340082"
       x="1223.5728"
       y="-672.22473"
       ry="0.017061956" />
    <rect
       style="fill:#165016;fill-opacity:1;stroke:none"
       id="rect3940-2-8-2"
       width="143.7247"
       height="28.333334"
       x="528.75305"
       y="-1367.5887"
       ry="0.017057894"
       transform="matrix(0,-1,-1,0,0,0)" />
    <rect
       style="fill:#165016;fill-opacity:1;stroke:none"
       id="rect3940-7-7-6"
       width="143.7247"
       height="28.333334"
       x="-620.3515"
       y="-1262.5133"
       ry="0.017057894"
       transform="matrix(0,1,-1,0,0,0)" />
    <rect
       style="fill:#165016;fill-opacity:1;stroke:none"
       id="rect3940-2-1-4-6"
       width="143.69049"
       height="28.340082"
       x="1234.5049"
       y="476.87991"
       ry="0.017061956"
       transform="scale(1,-1)" />
    <rect
       style="fill:#165016;fill-opacity:1;stroke:none"
       id="rect3940-27-0"
       width="143.69049"
       height="28.340082"
       x="1233.8486"
       y="-125.67064"
       ry="0.017061956" />
    <rect
       style="fill:#165016;fill-opacity:1;stroke:none"
       id="rect3940-2-7-3"
       width="143.7247"
       height="28.333334"
       x="-17.801096"
       y="-1377.8656"
       ry="0.017057894"
       transform="matrix(0,-1,-1,0,0,0)" />
    <rect
       style="fill:#165016;fill-opacity:1;stroke:none"
       id="rect3940-7-93-8"
       width="143.7247"
       height="28.333334"
       x="-73.797287"
       y="-1272.7893"
       ry="0.017057894"
       transform="matrix(0,1,-1,0,0,0)" />
    <rect
       style="fill:#165016;fill-opacity:1;stroke:none"
       id="rect3940-2-1-19-0"
       width="143.69049"
       height="28.340082"
       x="1244.7822"
       y="-69.674271"
       ry="0.017061956"
       transform="scale(1,-1)" />
    <rect
       style="fill:#165016;fill-opacity:1;stroke:none"
       id="rect3940-8-1"
       width="143.69049"
       height="28.340082"
       x="1005.6111"
       y="-437.39105"
       ry="0.017061956" />
    <rect
       style="fill:#165016;fill-opacity:1;stroke:none"
       id="rect3940-2-6-2"
       width="143.7247"
       height="28.333334"
       x="293.91949"
       y="-1149.6272"
       ry="0.017057894"
       transform="matrix(0,-1,-1,0,0,0)" />
    <rect
       style="fill:#165016;fill-opacity:1;stroke:none"
       id="rect3940-7-5-5"
       width="143.7247"
       height="28.333334"
       x="-385.51776"
       y="-1044.551"
       ry="0.017057894"
       transform="matrix(0,1,-1,0,0,0)" />
    <rect
       style="fill:#165016;fill-opacity:1;stroke:none"
       id="rect3940-2-1-0-0"
       width="143.69049"
       height="28.340082"
       x="1016.5431"
       y="242.0462"
       ry="0.017061956"
       transform="scale(1,-1)" />
    <rect
       style="fill:#165016;fill-opacity:1;stroke:none"
       id="rect3940-28-9"
       width="143.69049"
       height="28.340082"
       x="147.44548"
       y="-30.672264"
       ry="0.017061956" />
    <rect
       style="fill:#165016;fill-opacity:1;stroke:none"
       id="rect3940-2-60-4"
       width="143.7247"
       height="28.333334"
       x="-112.7993"
       y="-291.46103"
       ry="0.017057894"
       transform="matrix(0,-1,-1,0,0,0)" />
    <rect
       style="fill:#165016;fill-opacity:1;stroke:none"
       id="rect3940-7-24-7"
       width="143.7247"
       height="28.333334"
       x="21.201517"
       y="-186.38602"
       ry="0.017057894"
       transform="matrix(0,1,-1,0,0,0)" />
    <rect
       style="fill:#165016;fill-opacity:1;stroke:none"
       id="rect3940-2-1-8-8"
       width="143.69049"
       height="28.340082"
       x="158.3783"
       y="-164.67308"
       ry="0.017061956"
       transform="scale(1,-1)" />
    <rect
       style="fill:#165016;fill-opacity:1;stroke:none"
       id="rect3940-65-3"
       width="143.69049"
       height="28.340082"
       x="962.6626"
       y="-0.36652741"
       ry="0.017061956" />
    <rect
       style="fill:#165016;fill-opacity:1;stroke:none"
       id="rect3940-2-0-5"
       width="143.7247"
       height="28.333334"
       x="-143.10504"
       y="-1106.6787"
       ry="0.017057894"
       transform="matrix(0,-1,-1,0,0,0)" />
    <rect
       style="fill:#165016;fill-opacity:1;stroke:none"
       id="rect3940-7-90-1"
       width="143.7247"
       height="28.333334"
       x="51.506092"
       y="-1001.6024"
       ry="0.017057894"
       transform="matrix(0,1,-1,0,0,0)" />
    <rect
       style="fill:#165016;fill-opacity:1;stroke:none"
       id="rect3940-2-1-06-2"
       width="143.69049"
       height="28.340082"
       x="973.59521"
       y="-194.97766"
       ry="0.017061956"
       transform="scale(1,-1)" />
    <rect
       style="fill:#7f6c35;fill-opacity:1;stroke:none"
       id="rect4208-01"
       width="10.320902"
       height="80.157867"
       x="661.26776"
       y="290.95261"
       ry="0.0051183267" />
    <rect
       style="fill:#7f6c35;fill-opacity:1;stroke:none"
       id="rect4208-1-6"
       width="10.320902"
       height="80.157867"
       x="775.00616"
       y="269.79715"
       ry="0.0051183267" />
    <rect
       style="fill:#7f6c35;fill-opacity:1;stroke:none"
       id="rect4208-3-4"
       width="10.320902"
       height="80.157867"
       x="808.90497"
       y="402.38754"
       ry="0.0051183267" />
    <rect
       style="fill:#7f6c35;fill-opacity:1;stroke:none"
       id="rect4208-8-0"
       width="10.320902"
       height="80.157867"
       x="727.44672"
       y="364.93845"
       ry="0.0051183267" />
    <rect
       style="fill:#7f6c35;fill-opacity:1;stroke:none"
       id="rect4208-9-6"
       width="10.320902"
       height="80.157867"
       x="649.02393"
       y="431.7402"
       ry="0.0051183267" />
    <rect
       style="fill:#7f6c35;fill-opacity:1;stroke:none"
       id="rect4208-34-1"
       width="10.320902"
       height="80.157867"
       x="794.23187"
       y="521.82098"
       ry="0.0051183267" />
    <rect
       style="fill:#7f6c35;fill-opacity:1;stroke:none"
       id="rect4208-4-8"
       width="10.320902"
       height="80.157867"
       x="708.72638"
       y="522.32672"
       ry="0.0051183267" />
    <rect
       style="fill:#7f6c35;fill-opacity:1;stroke:none"
       id="rect4208-0-9"
       width="10.320902"
       height="80.157867"
       x="658.1308"
       y="614.43182"
       ry="0.0051183267" />
    <rect
       style="fill:#7f6c35;fill-opacity:1;stroke:none"
       id="rect4208-66-8"
       width="10.320902"
       height="80.157867"
       x="795.75018"
       y="666.55792"
       ry="0.0051183267" />
    <rect
       style="fill:#7f6c35;fill-opacity:1;stroke:none"
       id="rect4208-18-4"
       width="10.320902"
       height="80.157867"
       x="717.32733"
       y="724.75616"
       ry="0.0051183267" />
    <rect
       style="fill:#7f6c35;fill-opacity:1;stroke:none"
       id="rect4208-49-1"
       width="10.320902"
       height="80.157867"
       x="790.12549"
       y="803.01862"
       ry="0.0051183267" />
    <rect
       style="fill:#7f6c35;fill-opacity:1;stroke:none"
       id="rect4208-63-4"
       width="10.320902"
       height="80.157867"
       x="661.67279"
       y="849.24945"
       ry="0.0051183267" />
    <rect
       style="fill:#7f6c35;fill-opacity:1;stroke:none"
       id="rect4208-7-3"
       width="10.320902"
       height="80.157867"
       x="742.23828"
       y="879.08868"
       ry="0.0051183267" />
  </g>
</svg>
