<?xml version="1.0" encoding="UTF-8" standalone="no"?>
<!-- Created with Inkscape (http://www.inkscape.org/) -->

<svg
   xmlns:dc="http://purl.org/dc/elements/1.1/"
   xmlns:cc="http://creativecommons.org/ns#"
   xmlns:rdf="http://www.w3.org/1999/02/22-rdf-syntax-ns#"
   xmlns:svg="http://www.w3.org/2000/svg"
   xmlns="http://www.w3.org/2000/svg"
   xmlns:sodipodi="http://sodipodi.sourceforge.net/DTD/sodipodi-0.dtd"
   xmlns:inkscape="http://www.inkscape.org/namespaces/inkscape"
   width="700"
   height="1761.1915"
   id="svg3326"
   version="1.1"
   inkscape:version="0.48.2 r9819"
   sodipodi:docname="tree3.svg"
   inkscape:export-filename="D:\WIP\GGJ2014\lui\Assets\Sprites\tree3.png"
   inkscape:export-xdpi="90"
   inkscape:export-ydpi="90">
  <defs
     id="defs3328" />
  <sodipodi:namedview
     id="base"
     pagecolor="#ffffff"
     bordercolor="#666666"
     borderopacity="1.0"
     inkscape:pageopacity="0.0"
     inkscape:pageshadow="2"
     inkscape:zoom="0.24748737"
     inkscape:cx="623.77083"
     inkscape:cy="629.1542"
     inkscape:document-units="px"
     inkscape:current-layer="layer1"
     showgrid="false"
     inkscape:window-width="1920"
     inkscape:window-height="1028"
     inkscape:window-x="-8"
     inkscape:window-y="-8"
     inkscape:window-maximized="1"
     fit-margin-top="0"
     fit-margin-left="0"
     fit-margin-right="0"
     fit-margin-bottom="0" />
  <metadata
     id="metadata3331">
    <rdf:RDF>
      <cc:Work
         rdf:about="">
        <dc:format>image/svg+xml</dc:format>
        <dc:type
           rdf:resource="http://purl.org/dc/dcmitype/StillImage" />
        <dc:title></dc:title>
      </cc:Work>
    </rdf:RDF>
  </metadata>
  <g
     inkscape:label="Layer 1"
     inkscape:groupmode="layer"
     id="layer1"
     transform="translate(-13.571429,348.82932)">
    <rect
       style="fill:#504416;fill-opacity:1;stroke:none"
       id="rect3920-8-7"
       width="218.57146"
       height="1000"
       x="248.32178"
       y="412.36218"
       ry="0.048946615" />
    <rect
       style="fill:#005522;fill-opacity:1;stroke:none"
       id="rect3920-2"
       width="700"
       height="800"
       x="13.571429"
       y="-348.82932"
       ry="0.039157294" />
    <rect
       style="fill:#165016;fill-opacity:1;stroke:none"
       id="rect3940-6-2"
       width="143.69049"
       height="28.340082"
       x="497.23151"
       y="-303.07199"
       ry="0.017061956" />
    <rect
       style="fill:#165016;fill-opacity:1;stroke:none"
       id="rect3940-2-14-0"
       width="143.7247"
       height="28.333334"
       x="159.60045"
       y="-641.24774"
       ry="0.017057894"
       transform="matrix(0,-1,-1,0,0,0)" />
    <rect
       style="fill:#165016;fill-opacity:1;stroke:none"
       id="rect3940-7-2-0"
       width="143.7247"
       height="28.333334"
       x="-251.19884"
       y="-536.17206"
       ry="0.017057894"
       transform="matrix(0,1,-1,0,0,0)" />
    <rect
       style="fill:#165016;fill-opacity:1;stroke:none"
       id="rect3940-2-1-3-1"
       width="143.69049"
       height="28.340082"
       x="508.16425"
       y="107.72715"
       ry="0.017061956"
       transform="scale(1,-1)" />
    <rect
       style="fill:#165016;fill-opacity:1;stroke:none"
       id="rect3940-22-4"
       width="143.69049"
       height="28.340082"
       x="80.705215"
       y="-87.300522"
       ry="0.017061956" />
    <rect
       style="fill:#165016;fill-opacity:1;stroke:none"
       id="rect3940-2-16-6"
       width="143.7247"
       height="28.333334"
       x="-56.17104"
       y="-224.72133"
       ry="0.017057894"
       transform="matrix(0,-1,-1,0,0,0)" />
    <rect
       style="fill:#165016;fill-opacity:1;stroke:none"
       id="rect3940-7-8-0"
       width="143.7247"
       height="28.333334"
       x="-35.427349"
       y="-119.64516"
       ry="0.017057894"
       transform="matrix(0,1,-1,0,0,0)" />
    <rect
       style="fill:#165016;fill-opacity:1;stroke:none"
       id="rect3940-2-1-5-7"
       width="143.69049"
       height="28.340082"
       x="91.638016"
       y="-108.0443"
       ry="0.017061956"
       transform="scale(1,-1)" />
    <rect
       style="fill:#165016;fill-opacity:1;stroke:none"
       id="rect3940-23-9"
       width="143.69049"
       height="28.340082"
       x="190.53317"
       y="183.5163"
       ry="0.017061956" />
    <rect
       style="fill:#165016;fill-opacity:1;stroke:none"
       id="rect3940-2-3-9"
       width="143.7247"
       height="28.333334"
       x="-326.9873"
       y="-334.54953"
       ry="0.017057894"
       transform="matrix(0,-1,-1,0,0,0)" />
    <rect
       style="fill:#165016;fill-opacity:1;stroke:none"
       id="rect3940-7-41-8"
       width="143.7247"
       height="28.333334"
       x="235.38892"
       y="-229.47397"
       ry="0.017057894"
       transform="matrix(0,1,-1,0,0,0)" />
    <rect
       style="fill:#165016;fill-opacity:1;stroke:none"
       id="rect3940-2-1-1-1"
       width="143.69049"
       height="28.340082"
       x="201.46603"
       y="-378.86053"
       ry="0.017061956"
       transform="scale(1,-1)" />
    <rect
       style="fill:#7f6c35;fill-opacity:1;stroke:none"
       id="rect4208-01"
       width="10.320902"
       height="80.157867"
       x="403.41064"
       y="686.66687"
       ry="0.0051183267" />
    <rect
       style="fill:#7f6c35;fill-opacity:1;stroke:none"
       id="rect4208-1-6"
       width="10.320902"
       height="80.157867"
       x="294.29187"
       y="679.79718"
       ry="0.0051183267" />
    <rect
       style="fill:#7f6c35;fill-opacity:1;stroke:none"
       id="rect4208-3-4"
       width="10.320902"
       height="80.157867"
       x="353.90497"
       y="786.67328"
       ry="0.0051183267" />
    <rect
       style="fill:#7f6c35;fill-opacity:1;stroke:none"
       id="rect4208-9-6"
       width="10.320902"
       height="80.157867"
       x="294.02393"
       y="881.74017"
       ry="0.0051183267" />
    <rect
       style="fill:#7f6c35;fill-opacity:1;stroke:none"
       id="rect4208-34-1"
       width="10.320902"
       height="80.157867"
       x="419.23187"
       y="918.96387"
       ry="0.0051183267" />
    <rect
       style="fill:#7f6c35;fill-opacity:1;stroke:none"
       id="rect4208-0-9"
       width="10.320902"
       height="80.157867"
       x="283.1308"
       y="1011.5747"
       ry="0.0051183267" />
    <rect
       style="fill:#7f6c35;fill-opacity:1;stroke:none"
       id="rect4208-66-8"
       width="10.320902"
       height="80.157867"
       x="333.60733"
       y="1115.1293"
       ry="0.0051183267" />
    <rect
       style="fill:#7f6c35;fill-opacity:1;stroke:none"
       id="rect4208-18-4"
       width="10.320902"
       height="80.157867"
       x="358.04163"
       y="963.32758"
       ry="0.0051183267" />
    <rect
       style="fill:#7f6c35;fill-opacity:1;stroke:none"
       id="rect4208-49-1"
       width="10.320902"
       height="80.157867"
       x="400.83978"
       y="1224.4473"
       ry="0.0051183267" />
    <rect
       style="fill:#7f6c35;fill-opacity:1;stroke:none"
       id="rect4208-63-4"
       width="10.320902"
       height="80.157867"
       x="286.67279"
       y="1274.9637"
       ry="0.0051183267" />
    <rect
       style="fill:#165016;fill-opacity:1;stroke:none"
       id="rect3940-23-9-1"
       width="143.69049"
       height="28.340082"
       x="376.97403"
       y="-71.023926"
       ry="0.017061956" />
    <rect
       style="fill:#165016;fill-opacity:1;stroke:none"
       id="rect3940-2-3-9-7"
       width="143.7247"
       height="28.333334"
       x="-72.447083"
       y="-520.99042"
       ry="0.017057894"
       transform="matrix(0,-1,-1,0,0,0)" />
    <rect
       style="fill:#165016;fill-opacity:1;stroke:none"
       id="rect3940-7-41-8-4"
       width="143.7247"
       height="28.333334"
       x="-19.151306"
       y="-415.91486"
       ry="0.017057894"
       transform="matrix(0,1,-1,0,0,0)" />
    <rect
       style="fill:#165016;fill-opacity:1;stroke:none"
       id="rect3940-2-1-1-1-0"
       width="143.69049"
       height="28.340082"
       x="387.90692"
       y="-124.32031"
       ry="0.017061956"
       transform="scale(1,-1)" />
    <rect
       style="fill:#165016;fill-opacity:1;stroke:none"
       id="rect3940-23-9-9"
       width="143.69049"
       height="28.340082"
       x="488.40259"
       y="174.69037"
       ry="0.017061956" />
    <rect
       style="fill:#165016;fill-opacity:1;stroke:none"
       id="rect3940-2-3-9-4"
       width="143.7247"
       height="28.333334"
       x="-318.16138"
       y="-632.41901"
       ry="0.017057894"
       transform="matrix(0,-1,-1,0,0,0)" />
    <rect
       style="fill:#165016;fill-opacity:1;stroke:none"
       id="rect3940-7-41-8-8"
       width="143.7247"
       height="28.333334"
       x="226.56299"
       y="-527.34338"
       ry="0.017057894"
       transform="matrix(0,1,-1,0,0,0)" />
    <rect
       style="fill:#165016;fill-opacity:1;stroke:none"
       id="rect3940-2-1-1-1-8"
       width="143.69049"
       height="28.340082"
       x="499.33545"
       y="-370.03461"
       ry="0.017061956"
       transform="scale(1,-1)" />
    <rect
       style="fill:#165016;fill-opacity:1;stroke:none"
       id="rect3940-23-9-2"
       width="143.69049"
       height="28.340082"
       x="251.25978"
       y="-328.16675"
       ry="0.017061956" />
    <rect
       style="fill:#165016;fill-opacity:1;stroke:none"
       id="rect3940-2-3-9-45"
       width="143.7247"
       height="28.333334"
       x="184.69577"
       y="-395.27612"
       ry="0.017057894"
       transform="matrix(0,-1,-1,0,0,0)" />
    <rect
       style="fill:#165016;fill-opacity:1;stroke:none"
       id="rect3940-7-41-8-5"
       width="143.7247"
       height="28.333334"
       x="-276.29416"
       y="-290.20056"
       ry="0.017057894"
       transform="matrix(0,1,-1,0,0,0)" />
    <rect
       style="fill:#165016;fill-opacity:1;stroke:none"
       id="rect3940-2-1-1-1-1"
       width="143.69049"
       height="28.340082"
       x="262.19263"
       y="132.82254"
       ry="0.017061956"
       transform="scale(1,-1)" />
    <rect
       style="fill:#7f6c35;fill-opacity:1;stroke:none"
       id="rect4208-1-6-7"
       width="10.320902"
       height="80.157867"
       x="303.41098"
       y="477.99756"
       ry="0.0051183267" />
    <rect
       style="fill:#7f6c35;fill-opacity:1;stroke:none"
       id="rect4208-1-6-1"
       width="10.320902"
       height="80.157867"
       x="381.98239"
       y="567.99756"
       ry="0.0051183267" />
  </g>
</svg>
