<?xml version="1.0" encoding="UTF-8" standalone="no"?>
<!-- Created with Inkscape (http://www.inkscape.org/) -->

<svg
   xmlns:dc="http://purl.org/dc/elements/1.1/"
   xmlns:cc="http://creativecommons.org/ns#"
   xmlns:rdf="http://www.w3.org/1999/02/22-rdf-syntax-ns#"
   xmlns:svg="http://www.w3.org/2000/svg"
   xmlns="http://www.w3.org/2000/svg"
   xmlns:sodipodi="http://sodipodi.sourceforge.net/DTD/sodipodi-0.dtd"
   xmlns:inkscape="http://www.inkscape.org/namespaces/inkscape"
   width="148.49243"
   height="249.50761"
   id="svg4934"
   version="1.1"
   inkscape:version="0.48.2 r9819"
   sodipodi:docname="tree1.svg"
   inkscape:export-filename="D:\WIP\GGJ2014\lui\Assets\Sprites\tree1.png"
   inkscape:export-xdpi="90"
   inkscape:export-ydpi="90">
  <defs
     id="defs4936" />
  <sodipodi:namedview
     id="base"
     pagecolor="#ffffff"
     bordercolor="#666666"
     borderopacity="1.0"
     inkscape:pageopacity="0.0"
     inkscape:pageshadow="2"
     inkscape:zoom="1.4"
     inkscape:cx="101.12958"
     inkscape:cy="115.07976"
     inkscape:document-units="px"
     inkscape:current-layer="layer1"
     showgrid="false"
     fit-margin-top="0"
     fit-margin-left="0"
     fit-margin-right="0"
     fit-margin-bottom="0"
     inkscape:window-width="1920"
     inkscape:window-height="1028"
     inkscape:window-x="-8"
     inkscape:window-y="-8"
     inkscape:window-maximized="1" />
  <metadata
     id="metadata4939">
    <rdf:RDF>
      <cc:Work
         rdf:about="">
        <dc:format>image/svg+xml</dc:format>
        <dc:type
           rdf:resource="http://purl.org/dc/dcmitype/StillImage" />
        <dc:title />
      </cc:Work>
    </rdf:RDF>
  </metadata>
  <g
     inkscape:label="Layer 1"
     inkscape:groupmode="layer"
     id="layer1"
     transform="translate(-320.03952,-413.32266)">
    <rect
       style="fill:#cca024;fill-opacity:1;stroke:none"
       id="rect3920-8"
       width="27.551023"
       height="143.72473"
       x="380.69226"
       y="519.10553"
       ry="0.0070348387" />
    <rect
       style="fill:#7f6435;fill-opacity:1;stroke:none"
       id="rect3920"
       width="150"
       height="124.49395"
       x="320.03952"
       y="412.83029"
       ry="0.0060935575" />
    <rect
       style="fill:#7f6416;fill-opacity:1;stroke:none"
       id="rect3940"
       width="18.112244"
       height="3.542511"
       x="337.28387"
       y="427.25333"
       ry="0.002132745" />
    <rect
       style="fill:#7f6416;fill-opacity:1;stroke:none"
       id="rect3940-2"
       width="17.965591"
       height="3.5714283"
       x="-445.18729"
       y="-355.43716"
       ry="0.0021501544"
       transform="matrix(0,-1,-1,0,0,0)" />
    <rect
       style="fill:#7f6416;fill-opacity:1;stroke:none"
       id="rect3940-7"
       width="17.965591"
       height="3.5714283"
       x="433.73749"
       y="-342.19235"
       ry="0.0021501544"
       transform="matrix(0,1,-1,0,0,0)" />
    <rect
       style="fill:#7f6416;fill-opacity:1;stroke:none"
       id="rect3940-2-1"
       width="18.112244"
       height="3.542511"
       x="338.66193"
       y="-451.67142"
       ry="0.002132745"
       transform="scale(1,-1)" />
    <rect
       style="fill:#7f6416;fill-opacity:1;stroke:none"
       id="rect3940-6"
       width="18.112244"
       height="3.542511"
       x="386.2532"
       y="421.37018"
       ry="0.002132745" />
    <rect
       style="fill:#7f6416;fill-opacity:1;stroke:none"
       id="rect3940-2-14"
       width="17.965591"
       height="3.5714283"
       x="-439.30411"
       y="-404.40649"
       ry="0.0021501544"
       transform="matrix(0,-1,-1,0,0,0)" />
    <rect
       style="fill:#7f6416;fill-opacity:1;stroke:none"
       id="rect3940-7-2"
       width="17.965591"
       height="3.5714283"
       x="427.85431"
       y="-391.16168"
       ry="0.0021501544"
       transform="matrix(0,1,-1,0,0,0)" />
    <rect
       style="fill:#7f6416;fill-opacity:1;stroke:none"
       id="rect3940-2-1-3"
       width="18.112244"
       height="3.542511"
       x="387.63132"
       y="-445.78827"
       ry="0.002132745"
       transform="scale(1,-1)" />
    <rect
       style="fill:#7f6416;fill-opacity:1;stroke:none"
       id="rect3940-22"
       width="18.112244"
       height="3.542511"
       x="364.82465"
       y="447.43298"
       ry="0.002132745" />
    <rect
       style="fill:#7f6416;fill-opacity:1;stroke:none"
       id="rect3940-2-16"
       width="17.965591"
       height="3.5714283"
       x="-465.36691"
       y="-382.97794"
       ry="0.0021501544"
       transform="matrix(0,-1,-1,0,0,0)" />
    <rect
       style="fill:#7f6416;fill-opacity:1;stroke:none"
       id="rect3940-7-8"
       width="17.965591"
       height="3.5714283"
       x="453.91711"
       y="-369.73306"
       ry="0.0021501544"
       transform="matrix(0,1,-1,0,0,0)" />
    <rect
       style="fill:#7f6416;fill-opacity:1;stroke:none"
       id="rect3940-2-1-5"
       width="18.112244"
       height="3.542511"
       x="366.2027"
       y="-471.85107"
       ry="0.002132745"
       transform="scale(1,-1)" />
    <rect
       style="fill:#7f6416;fill-opacity:1;stroke:none"
       id="rect3940-76"
       width="18.112244"
       height="3.542511"
       x="338.80423"
       y="465.9046"
       ry="0.002132745" />
    <rect
       style="fill:#7f6416;fill-opacity:1;stroke:none"
       id="rect3940-2-18"
       width="17.965591"
       height="3.5714283"
       x="-483.83853"
       y="-356.95749"
       ry="0.0021501544"
       transform="matrix(0,-1,-1,0,0,0)" />
    <rect
       style="fill:#7f6416;fill-opacity:1;stroke:none"
       id="rect3940-7-9"
       width="17.965591"
       height="3.5714283"
       x="472.38873"
       y="-343.71268"
       ry="0.0021501544"
       transform="matrix(0,1,-1,0,0,0)" />
    <rect
       style="fill:#7f6416;fill-opacity:1;stroke:none"
       id="rect3940-2-1-2"
       width="18.112244"
       height="3.542511"
       x="340.18234"
       y="-490.32269"
       ry="0.002132745"
       transform="scale(1,-1)" />
    <rect
       style="fill:#7f6416;fill-opacity:1;stroke:none"
       id="rect3940-79"
       width="18.112244"
       height="3.542511"
       x="364.56952"
       y="496.01596"
       ry="0.002132745" />
    <rect
       style="fill:#7f6416;fill-opacity:1;stroke:none"
       id="rect3940-2-5"
       width="17.965591"
       height="3.5714283"
       x="-513.94989"
       y="-382.72281"
       ry="0.0021501544"
       transform="matrix(0,-1,-1,0,0,0)" />
    <rect
       style="fill:#7f6416;fill-opacity:1;stroke:none"
       id="rect3940-7-4"
       width="17.965591"
       height="3.5714283"
       x="502.50012"
       y="-369.478"
       ry="0.0021501544"
       transform="matrix(0,1,-1,0,0,0)" />
    <rect
       style="fill:#7f6416;fill-opacity:1;stroke:none"
       id="rect3940-2-1-31"
       width="18.112244"
       height="3.542511"
       x="365.94763"
       y="-520.43402"
       ry="0.002132745"
       transform="scale(1,-1)" />
    <rect
       style="fill:#7f6416;fill-opacity:1;stroke:none"
       id="rect3940-23"
       width="18.112244"
       height="3.542511"
       x="396.45728"
       y="471.72446"
       ry="0.002132745" />
    <rect
       style="fill:#7f6416;fill-opacity:1;stroke:none"
       id="rect3940-2-3"
       width="17.965591"
       height="3.5714283"
       x="-489.65842"
       y="-414.61053"
       ry="0.0021501544"
       transform="matrix(0,-1,-1,0,0,0)" />
    <rect
       style="fill:#7f6416;fill-opacity:1;stroke:none"
       id="rect3940-7-41"
       width="17.965591"
       height="3.5714283"
       x="478.20862"
       y="-401.36572"
       ry="0.0021501544"
       transform="matrix(0,1,-1,0,0,0)" />
    <rect
       style="fill:#7f6416;fill-opacity:1;stroke:none"
       id="rect3940-2-1-1"
       width="18.112244"
       height="3.542511"
       x="397.83539"
       y="-496.14255"
       ry="0.002132745"
       transform="scale(1,-1)" />
    <rect
       style="fill:#7f6416;fill-opacity:1;stroke:none"
       id="rect3940-3"
       width="18.112244"
       height="3.542511"
       x="426.30426"
       y="433.76904"
       ry="0.002132745" />
    <rect
       style="fill:#7f6416;fill-opacity:1;stroke:none"
       id="rect3940-2-8"
       width="17.965591"
       height="3.5714283"
       x="-451.70297"
       y="-444.45752"
       ry="0.0021501544"
       transform="matrix(0,-1,-1,0,0,0)" />
    <rect
       style="fill:#7f6416;fill-opacity:1;stroke:none"
       id="rect3940-7-7"
       width="17.965591"
       height="3.5714283"
       x="440.25317"
       y="-431.21271"
       ry="0.0021501544"
       transform="matrix(0,1,-1,0,0,0)" />
    <rect
       style="fill:#7f6416;fill-opacity:1;stroke:none"
       id="rect3940-2-1-4"
       width="18.112244"
       height="3.542511"
       x="427.68228"
       y="-458.18713"
       ry="0.002132745"
       transform="scale(1,-1)" />
    <rect
       style="fill:#7f6416;fill-opacity:1;stroke:none"
       id="rect3940-27"
       width="18.112244"
       height="3.542511"
       x="439.05933"
       y="501.83578"
       ry="0.002132745" />
    <rect
       style="fill:#7f6416;fill-opacity:1;stroke:none"
       id="rect3940-2-7"
       width="17.965591"
       height="3.5714283"
       x="-519.76971"
       y="-457.21262"
       ry="0.0021501544"
       transform="matrix(0,-1,-1,0,0,0)" />
    <rect
       style="fill:#7f6416;fill-opacity:1;stroke:none"
       id="rect3940-7-93"
       width="17.965591"
       height="3.5714283"
       x="508.31992"
       y="-443.9678"
       ry="0.0021501544"
       transform="matrix(0,1,-1,0,0,0)" />
    <rect
       style="fill:#7f6416;fill-opacity:1;stroke:none"
       id="rect3940-2-1-19"
       width="18.112244"
       height="3.542511"
       x="440.43738"
       y="-526.25385"
       ry="0.002132745"
       transform="scale(1,-1)" />
    <rect
       style="fill:#7f6416;fill-opacity:1;stroke:none"
       id="rect3940-8"
       width="18.112244"
       height="3.542511"
       x="443.14099"
       y="464.13342"
       ry="0.002132745" />
    <rect
       style="fill:#7f6416;fill-opacity:1;stroke:none"
       id="rect3940-2-6"
       width="17.965591"
       height="3.5714283"
       x="-482.06735"
       y="-461.29428"
       ry="0.0021501544"
       transform="matrix(0,-1,-1,0,0,0)" />
    <rect
       style="fill:#7f6416;fill-opacity:1;stroke:none"
       id="rect3940-7-5"
       width="17.965591"
       height="3.5714283"
       x="470.61755"
       y="-448.04941"
       ry="0.0021501544"
       transform="matrix(0,1,-1,0,0,0)" />
    <rect
       style="fill:#7f6416;fill-opacity:1;stroke:none"
       id="rect3940-2-1-0"
       width="18.112244"
       height="3.542511"
       x="444.51898"
       y="-488.55148"
       ry="0.002132745"
       transform="scale(1,-1)" />
    <rect
       style="fill:#7f6416;fill-opacity:1;stroke:none"
       id="rect3940-28"
       width="18.112244"
       height="3.542511"
       x="329.87567"
       y="504.6192"
       ry="0.002132745" />
    <rect
       style="fill:#7f6416;fill-opacity:1;stroke:none"
       id="rect3940-2-60"
       width="17.965591"
       height="3.5714283"
       x="-522.5531"
       y="-348.02896"
       ry="0.0021501544"
       transform="matrix(0,-1,-1,0,0,0)" />
    <rect
       style="fill:#7f6416;fill-opacity:1;stroke:none"
       id="rect3940-7-24"
       width="17.965591"
       height="3.5714283"
       x="511.10336"
       y="-334.78415"
       ry="0.0021501544"
       transform="matrix(0,1,-1,0,0,0)" />
    <rect
       style="fill:#7f6416;fill-opacity:1;stroke:none"
       id="rect3940-2-1-8"
       width="18.112244"
       height="3.542511"
       x="331.25372"
       y="-529.03729"
       ry="0.002132745"
       transform="scale(1,-1)" />
    <rect
       style="fill:#7f6416;fill-opacity:1;stroke:none"
       id="rect3940-65"
       width="18.112244"
       height="3.542511"
       x="405.1308"
       y="504.61926"
       ry="0.002132745" />
    <rect
       style="fill:#7f6416;fill-opacity:1;stroke:none"
       id="rect3940-2-0"
       width="17.965591"
       height="3.5714283"
       x="-522.55316"
       y="-423.28409"
       ry="0.0021501544"
       transform="matrix(0,-1,-1,0,0,0)" />
    <rect
       style="fill:#7f6416;fill-opacity:1;stroke:none"
       id="rect3940-7-90"
       width="17.965591"
       height="3.5714283"
       x="511.10342"
       y="-410.03922"
       ry="0.0021501544"
       transform="matrix(0,1,-1,0,0,0)" />
    <rect
       style="fill:#7f6416;fill-opacity:1;stroke:none"
       id="rect3940-2-1-06"
       width="18.112244"
       height="3.542511"
       x="406.50885"
       y="-529.03735"
       ry="0.002132745"
       transform="scale(1,-1)" />
    <rect
       style="fill:#7f6c35;fill-opacity:1;stroke:none"
       id="rect4208"
       width="1.3009541"
       height="10.019734"
       x="385.47543"
       y="542.29688"
       ry="0.0006397909" />
    <rect
       style="fill:#7f6c35;fill-opacity:1;stroke:none"
       id="rect4208-1"
       width="1.3009541"
       height="10.019734"
       x="399.81223"
       y="539.6524"
       ry="0.0006397909" />
    <rect
       style="fill:#7f6c35;fill-opacity:1;stroke:none"
       id="rect4208-3"
       width="1.3009541"
       height="10.019734"
       x="404.08514"
       y="556.22626"
       ry="0.0006397909" />
    <rect
       style="fill:#7f6c35;fill-opacity:1;stroke:none"
       id="rect4208-8"
       width="1.3009541"
       height="10.019734"
       x="393.81726"
       y="551.5451"
       ry="0.0006397909" />
    <rect
       style="fill:#7f6c35;fill-opacity:1;stroke:none"
       id="rect4208-9"
       width="1.3009541"
       height="10.019734"
       x="383.9321"
       y="559.89526"
       ry="0.0006397909" />
    <rect
       style="fill:#7f6c35;fill-opacity:1;stroke:none"
       id="rect4208-34"
       width="1.3009541"
       height="10.019734"
       x="402.23563"
       y="571.15546"
       ry="0.0006397909" />
    <rect
       style="fill:#7f6c35;fill-opacity:1;stroke:none"
       id="rect4208-4"
       width="1.3009541"
       height="10.019734"
       x="391.45761"
       y="571.21863"
       ry="0.0006397909" />
    <rect
       style="fill:#7f6c35;fill-opacity:1;stroke:none"
       id="rect4208-0"
       width="1.3009541"
       height="10.019734"
       x="385.07999"
       y="582.73181"
       ry="0.0006397909" />
    <rect
       style="fill:#7f6c35;fill-opacity:1;stroke:none"
       id="rect4208-66"
       width="1.3009541"
       height="10.019734"
       x="402.427"
       y="589.24756"
       ry="0.0006397909" />
    <rect
       style="fill:#7f6c35;fill-opacity:1;stroke:none"
       id="rect4208-18"
       width="1.3009541"
       height="10.019734"
       x="392.54175"
       y="596.52234"
       ry="0.0006397909" />
    <rect
       style="fill:#7f6c35;fill-opacity:1;stroke:none"
       id="rect4208-49"
       width="1.3009541"
       height="10.019734"
       x="399.5571"
       y="605.94794"
       ry="0.0006397909" />
    <rect
       style="fill:#7f6c35;fill-opacity:1;stroke:none"
       id="rect4208-63"
       width="1.3009541"
       height="10.019734"
       x="385.52649"
       y="612.08405"
       ry="0.0006397909" />
    <rect
       style="fill:#7f6c35;fill-opacity:1;stroke:none"
       id="rect4208-7"
       width="1.3009541"
       height="10.019734"
       x="393.88101"
       y="620.8139"
       ry="0.0006397909" />
    <rect
       style="fill:#7f6c35;fill-opacity:1;stroke:none"
       id="rect4208-88"
       width="1.3009541"
       height="10.019734"
       x="401.27899"
       y="630.80884"
       ry="0.0006397909" />
    <rect
       style="fill:#7f6c35;fill-opacity:1;stroke:none"
       id="rect4208-2"
       width="1.3009541"
       height="10.019734"
       x="390.94736"
       y="637.1347"
       ry="0.0006397909" />
    <rect
       style="fill:#7f6c35;fill-opacity:1;stroke:none"
       id="rect4208-91"
       width="1.3009541"
       height="10.019734"
       x="399.04691"
       y="647.76227"
       ry="0.0006397909" />
    <rect
       style="fill:#7f6c35;fill-opacity:1;stroke:none"
       id="rect4208-35"
       width="1.3009541"
       height="10.019734"
       x="385.27136"
       y="650.10278"
       ry="0.0006397909" />
  </g>
</svg>
