<?xml version="1.0" encoding="UTF-8" standalone="no"?>
<!-- Created with Inkscape (http://www.inkscape.org/) -->

<svg
   xmlns:dc="http://purl.org/dc/elements/1.1/"
   xmlns:cc="http://creativecommons.org/ns#"
   xmlns:rdf="http://www.w3.org/1999/02/22-rdf-syntax-ns#"
   xmlns:svg="http://www.w3.org/2000/svg"
   xmlns="http://www.w3.org/2000/svg"
   xmlns:sodipodi="http://sodipodi.sourceforge.net/DTD/sodipodi-0.dtd"
   xmlns:inkscape="http://www.inkscape.org/namespaces/inkscape"
   width="148.49243"
   height="249.50761"
   id="svg4934"
   version="1.1"
   inkscape:version="0.48.2 r9819"
   sodipodi:docname="tree1.svg"
   inkscape:export-filename="D:\WIP\GGJ2014\lui\Assets\Sprites\tree1.png"
   inkscape:export-xdpi="90"
   inkscape:export-ydpi="90">
  <defs
     id="defs4936" />
  <sodipodi:namedview
     id="base"
     pagecolor="#ffffff"
     bordercolor="#666666"
     borderopacity="1.0"
     inkscape:pageopacity="0.0"
     inkscape:pageshadow="2"
     inkscape:zoom="0.35"
     inkscape:cx="54.96048"
     inkscape:cy="130.46809"
     inkscape:document-units="px"
     inkscape:current-layer="layer1"
     showgrid="false"
     fit-margin-top="0"
     fit-margin-left="0"
     fit-margin-right="0"
     fit-margin-bottom="0"
     inkscape:window-width="469"
     inkscape:window-height="403"
     inkscape:window-x="50"
     inkscape:window-y="50"
     inkscape:window-maximized="0" />
  <metadata
     id="metadata4939">
    <rdf:RDF>
      <cc:Work
         rdf:about="">
        <dc:format>image/svg+xml</dc:format>
        <dc:type
           rdf:resource="http://purl.org/dc/dcmitype/StillImage" />
        <dc:title></dc:title>
      </cc:Work>
    </rdf:RDF>
  </metadata>
  <g
     inkscape:label="Layer 1"
     inkscape:groupmode="layer"
     id="layer1"
     transform="translate(-320.03952,-413.32266)">
    <rect
       style="fill:#cca024;fill-opacity:1;stroke:none"
       id="rect3920-8"
       width="27.274122"
       height="143.44167"
       x="380.08267"
       y="519.38861"
       ry="0.0070209834" />
    <rect
       style="fill:#7f6435;fill-opacity:1;stroke:none"
       id="rect3920"
       width="148.49243"
       height="124.24876"
       x="320.03952"
       y="413.32266"
       ry="0.006081556" />
    <rect
       style="fill:#7f6416;fill-opacity:1;stroke:none"
       id="rect3940"
       width="17.930208"
       height="3.5355339"
       x="337.11057"
       y="427.71732"
       ry="0.0021285445" />
    <rect
       style="fill:#7f6416;fill-opacity:1;stroke:none"
       id="rect3940-2"
       width="17.930208"
       height="3.5355339"
       x="-445.61594"
       y="-355.08139"
       ry="0.0021285445"
       transform="matrix(0,-1,-1,0,0,0)" />
    <rect
       style="fill:#7f6416;fill-opacity:1;stroke:none"
       id="rect3940-7"
       width="17.930208"
       height="3.5355339"
       x="434.18869"
       y="-341.9697"
       ry="0.0021285445"
       transform="matrix(0,1,-1,0,0,0)" />
    <rect
       style="fill:#7f6416;fill-opacity:1;stroke:none"
       id="rect3940-2-1"
       width="17.930208"
       height="3.5355339"
       x="338.47476"
       y="-452.08731"
       ry="0.0021285445"
       transform="scale(1,-1)" />
    <rect
       style="fill:#7f6416;fill-opacity:1;stroke:none"
       id="rect3940-6"
       width="17.930208"
       height="3.5355339"
       x="385.58774"
       y="421.84573"
       ry="0.0021285445" />
    <rect
       style="fill:#7f6416;fill-opacity:1;stroke:none"
       id="rect3940-2-14"
       width="17.930208"
       height="3.5355339"
       x="-439.74435"
       y="-403.55856"
       ry="0.0021285445"
       transform="matrix(0,-1,-1,0,0,0)" />
    <rect
       style="fill:#7f6416;fill-opacity:1;stroke:none"
       id="rect3940-7-2"
       width="17.930208"
       height="3.5355339"
       x="428.31711"
       y="-390.44687"
       ry="0.0021285445"
       transform="matrix(0,1,-1,0,0,0)" />
    <rect
       style="fill:#7f6416;fill-opacity:1;stroke:none"
       id="rect3940-2-1-3"
       width="17.930208"
       height="3.5355339"
       x="386.952"
       y="-446.21573"
       ry="0.0021285445"
       transform="scale(1,-1)" />
    <rect
       style="fill:#7f6416;fill-opacity:1;stroke:none"
       id="rect3940-22"
       width="17.930208"
       height="3.5355339"
       x="364.37454"
       y="447.85721"
       ry="0.0021285445" />
    <rect
       style="fill:#7f6416;fill-opacity:1;stroke:none"
       id="rect3940-2-16"
       width="17.930208"
       height="3.5355339"
       x="-465.75583"
       y="-382.34537"
       ry="0.0021285445"
       transform="matrix(0,-1,-1,0,0,0)" />
    <rect
       style="fill:#7f6416;fill-opacity:1;stroke:none"
       id="rect3940-7-8"
       width="17.930208"
       height="3.5355339"
       x="454.32858"
       y="-369.23361"
       ry="0.0021285445"
       transform="matrix(0,1,-1,0,0,0)" />
    <rect
       style="fill:#7f6416;fill-opacity:1;stroke:none"
       id="rect3940-2-1-5"
       width="17.930208"
       height="3.5355339"
       x="365.73874"
       y="-472.2272"
       ry="0.0021285445"
       transform="scale(1,-1)" />
    <rect
       style="fill:#7f6416;fill-opacity:1;stroke:none"
       id="rect3940-76"
       width="17.930208"
       height="3.5355339"
       x="338.61563"
       y="466.29245"
       ry="0.0021285445" />
    <rect
       style="fill:#7f6416;fill-opacity:1;stroke:none"
       id="rect3940-2-18"
       width="17.930208"
       height="3.5355339"
       x="-484.19107"
       y="-356.58646"
       ry="0.0021285445"
       transform="matrix(0,-1,-1,0,0,0)" />
    <rect
       style="fill:#7f6416;fill-opacity:1;stroke:none"
       id="rect3940-7-9"
       width="17.930208"
       height="3.5355339"
       x="472.76382"
       y="-343.47476"
       ry="0.0021285445"
       transform="matrix(0,1,-1,0,0,0)" />
    <rect
       style="fill:#7f6416;fill-opacity:1;stroke:none"
       id="rect3940-2-1-2"
       width="17.930208"
       height="3.5355339"
       x="339.97989"
       y="-490.66245"
       ry="0.0021285445"
       transform="scale(1,-1)" />
    <rect
       style="fill:#7f6416;fill-opacity:1;stroke:none"
       id="rect3940-79"
       width="17.930208"
       height="3.5355339"
       x="364.12198"
       y="496.34451"
       ry="0.0021285445" />
    <rect
       style="fill:#7f6416;fill-opacity:1;stroke:none"
       id="rect3940-2-5"
       width="17.930208"
       height="3.5355339"
       x="-514.2431"
       y="-382.0928"
       ry="0.0021285445"
       transform="matrix(0,-1,-1,0,0,0)" />
    <rect
       style="fill:#7f6416;fill-opacity:1;stroke:none"
       id="rect3940-7-4"
       width="17.930208"
       height="3.5355339"
       x="502.81589"
       y="-368.98111"
       ry="0.0021285445"
       transform="matrix(0,1,-1,0,0,0)" />
    <rect
       style="fill:#7f6416;fill-opacity:1;stroke:none"
       id="rect3940-2-1-31"
       width="17.930208"
       height="3.5355339"
       x="365.48624"
       y="-520.71448"
       ry="0.0021285445"
       transform="scale(1,-1)" />
    <rect
       style="fill:#7f6416;fill-opacity:1;stroke:none"
       id="rect3940-23"
       width="17.930208"
       height="3.5355339"
       x="395.68924"
       y="472.10086"
       ry="0.0021285445" />
    <rect
       style="fill:#7f6416;fill-opacity:1;stroke:none"
       id="rect3940-2-3"
       width="17.930208"
       height="3.5355339"
       x="-489.99948"
       y="-413.66006"
       ry="0.0021285445"
       transform="matrix(0,-1,-1,0,0,0)" />
    <rect
       style="fill:#7f6416;fill-opacity:1;stroke:none"
       id="rect3940-7-41"
       width="17.930208"
       height="3.5355339"
       x="478.57224"
       y="-400.54837"
       ry="0.0021285445"
       transform="matrix(0,1,-1,0,0,0)" />
    <rect
       style="fill:#7f6416;fill-opacity:1;stroke:none"
       id="rect3940-2-1-1"
       width="17.930208"
       height="3.5355339"
       x="397.0535"
       y="-496.47086"
       ry="0.0021285445"
       transform="scale(1,-1)" />
    <rect
       style="fill:#7f6416;fill-opacity:1;stroke:none"
       id="rect3940-3"
       width="17.930208"
       height="3.5355339"
       x="425.23624"
       y="434.22018"
       ry="0.0021285445" />
    <rect
       style="fill:#7f6416;fill-opacity:1;stroke:none"
       id="rect3940-2-8"
       width="17.930208"
       height="3.5355339"
       x="-452.1188"
       y="-443.20706"
       ry="0.0021285445"
       transform="matrix(0,-1,-1,0,0,0)" />
    <rect
       style="fill:#7f6416;fill-opacity:1;stroke:none"
       id="rect3940-7-7"
       width="17.930208"
       height="3.5355339"
       x="440.69156"
       y="-430.09537"
       ry="0.0021285445"
       transform="matrix(0,1,-1,0,0,0)" />
    <rect
       style="fill:#7f6416;fill-opacity:1;stroke:none"
       id="rect3940-2-1-4"
       width="17.930208"
       height="3.5355339"
       x="426.60043"
       y="-458.59018"
       ry="0.0021285445"
       transform="scale(1,-1)" />
    <rect
       style="fill:#7f6416;fill-opacity:1;stroke:none"
       id="rect3940-27"
       width="17.930208"
       height="3.5355339"
       x="437.86313"
       y="502.15286"
       ry="0.0021285445" />
    <rect
       style="fill:#7f6416;fill-opacity:1;stroke:none"
       id="rect3940-2-7"
       width="17.930208"
       height="3.5355339"
       x="-520.05145"
       y="-455.83395"
       ry="0.0021285445"
       transform="matrix(0,-1,-1,0,0,0)" />
    <rect
       style="fill:#7f6416;fill-opacity:1;stroke:none"
       id="rect3940-7-93"
       width="17.930208"
       height="3.5355339"
       x="508.62424"
       y="-442.72226"
       ry="0.0021285445"
       transform="matrix(0,1,-1,0,0,0)" />
    <rect
       style="fill:#7f6416;fill-opacity:1;stroke:none"
       id="rect3940-2-1-19"
       width="17.930208"
       height="3.5355339"
       x="439.22733"
       y="-526.52283"
       ry="0.0021285445"
       transform="scale(1,-1)" />
    <rect
       style="fill:#7f6416;fill-opacity:1;stroke:none"
       id="rect3940-8"
       width="17.930208"
       height="3.5355339"
       x="441.90378"
       y="464.52475"
       ry="0.0021285445" />
    <rect
       style="fill:#7f6416;fill-opacity:1;stroke:none"
       id="rect3940-2-6"
       width="17.930208"
       height="3.5355339"
       x="-482.42337"
       y="-459.8746"
       ry="0.0021285445"
       transform="matrix(0,-1,-1,0,0,0)" />
    <rect
       style="fill:#7f6416;fill-opacity:1;stroke:none"
       id="rect3940-7-5"
       width="17.930208"
       height="3.5355339"
       x="470.99612"
       y="-446.76285"
       ry="0.0021285445"
       transform="matrix(0,1,-1,0,0,0)" />
    <rect
       style="fill:#7f6416;fill-opacity:1;stroke:none"
       id="rect3940-2-1-0"
       width="17.930208"
       height="3.5355339"
       x="443.26791"
       y="-488.89474"
       ry="0.0021285445"
       transform="scale(1,-1)" />
    <rect
       style="fill:#7f6416;fill-opacity:1;stroke:none"
       id="rect3940-28"
       width="17.930208"
       height="3.5355339"
       x="329.77682"
       y="504.93082"
       ry="0.0021285445" />
    <rect
       style="fill:#7f6416;fill-opacity:1;stroke:none"
       id="rect3940-2-60"
       width="17.930208"
       height="3.5355339"
       x="-522.82941"
       y="-347.74765"
       ry="0.0021285445"
       transform="matrix(0,-1,-1,0,0,0)" />
    <rect
       style="fill:#7f6416;fill-opacity:1;stroke:none"
       id="rect3940-7-24"
       width="17.930208"
       height="3.5355339"
       x="511.40219"
       y="-334.63596"
       ry="0.0021285445"
       transform="matrix(0,1,-1,0,0,0)" />
    <rect
       style="fill:#7f6416;fill-opacity:1;stroke:none"
       id="rect3940-2-1-8"
       width="17.930208"
       height="3.5355339"
       x="331.14102"
       y="-529.30078"
       ry="0.0021285445"
       transform="scale(1,-1)" />
    <rect
       style="fill:#7f6416;fill-opacity:1;stroke:none"
       id="rect3940-65"
       width="17.930208"
       height="3.5355339"
       x="404.2756"
       y="504.93088"
       ry="0.0021285445" />
    <rect
       style="fill:#7f6416;fill-opacity:1;stroke:none"
       id="rect3940-2-0"
       width="17.930208"
       height="3.5355339"
       x="-522.82947"
       y="-422.24643"
       ry="0.0021285445"
       transform="matrix(0,-1,-1,0,0,0)" />
    <rect
       style="fill:#7f6416;fill-opacity:1;stroke:none"
       id="rect3940-7-90"
       width="17.930208"
       height="3.5355339"
       x="511.40225"
       y="-409.13467"
       ry="0.0021285445"
       transform="matrix(0,1,-1,0,0,0)" />
    <rect
       style="fill:#7f6416;fill-opacity:1;stroke:none"
       id="rect3940-2-1-06"
       width="17.930208"
       height="3.5355339"
       x="405.6398"
       y="-529.30084"
       ry="0.0021285445"
       transform="scale(1,-1)" />
    <rect
       style="fill:#7f6c35;fill-opacity:1;stroke:none"
       id="rect4208"
       width="1.2878789"
       height="10"
       x="384.81778"
       y="542.53424"
       ry="0.00063853082" />
    <rect
       style="fill:#7f6c35;fill-opacity:1;stroke:none"
       id="rect4208-1"
       width="1.2878789"
       height="10"
       x="399.01047"
       y="539.89502"
       ry="0.00063853082" />
    <rect
       style="fill:#7f6c35;fill-opacity:1;stroke:none"
       id="rect4208-3"
       width="1.2878789"
       height="10"
       x="403.24045"
       y="556.43622"
       ry="0.00063853082" />
    <rect
       style="fill:#7f6c35;fill-opacity:1;stroke:none"
       id="rect4208-8"
       width="1.2878789"
       height="10"
       x="393.07578"
       y="551.76428"
       ry="0.00063853082" />
    <rect
       style="fill:#7f6c35;fill-opacity:1;stroke:none"
       id="rect4208-9"
       width="1.2878789"
       height="10"
       x="383.28995"
       y="560.09802"
       ry="0.00063853082" />
    <rect
       style="fill:#7f6c35;fill-opacity:1;stroke:none"
       id="rect4208-34"
       width="1.2878789"
       height="10"
       x="401.40952"
       y="571.336"
       ry="0.00063853082" />
    <rect
       style="fill:#7f6c35;fill-opacity:1;stroke:none"
       id="rect4208-4"
       width="1.2878789"
       height="10"
       x="390.73984"
       y="571.39905"
       ry="0.00063853082" />
    <rect
       style="fill:#7f6c35;fill-opacity:1;stroke:none"
       id="rect4208-0"
       width="1.2878789"
       height="10"
       x="384.4263"
       y="582.88959"
       ry="0.00063853082" />
    <rect
       style="fill:#7f6c35;fill-opacity:1;stroke:none"
       id="rect4208-66"
       width="1.2878789"
       height="10"
       x="401.59897"
       y="589.39246"
       ry="0.00063853082" />
    <rect
       style="fill:#7f6c35;fill-opacity:1;stroke:none"
       id="rect4208-18"
       width="1.2878789"
       height="10"
       x="391.81308"
       y="596.65295"
       ry="0.00063853082" />
    <rect
       style="fill:#7f6c35;fill-opacity:1;stroke:none"
       id="rect4208-49"
       width="1.2878789"
       height="10"
       x="398.7579"
       y="606.06"
       ry="0.00063853082" />
    <rect
       style="fill:#7f6c35;fill-opacity:1;stroke:none"
       id="rect4208-63"
       width="1.2878789"
       height="10"
       x="384.86832"
       y="612.18402"
       ry="0.00063853082" />
    <rect
       style="fill:#7f6c35;fill-opacity:1;stroke:none"
       id="rect4208-7"
       width="1.2878789"
       height="10"
       x="393.13889"
       y="620.89667"
       ry="0.00063853082" />
    <rect
       style="fill:#7f6c35;fill-opacity:1;stroke:none"
       id="rect4208-88"
       width="1.2878789"
       height="10"
       x="400.46249"
       y="630.87189"
       ry="0.00063853082" />
    <rect
       style="fill:#7f6c35;fill-opacity:1;stroke:none"
       id="rect4208-2"
       width="1.2878789"
       height="10"
       x="390.23471"
       y="637.1853"
       ry="0.00063853082" />
    <rect
       style="fill:#7f6c35;fill-opacity:1;stroke:none"
       id="rect4208-91"
       width="1.2878789"
       height="10"
       x="398.25284"
       y="647.79193"
       ry="0.00063853082" />
    <rect
       style="fill:#7f6c35;fill-opacity:1;stroke:none"
       id="rect4208-35"
       width="1.2878789"
       height="10"
       x="384.61575"
       y="650.12787"
       ry="0.00063853082" />
  </g>
</svg>
